# Blender 5.2.2 LTS
# www.blender.org
mtllib Hammer.mtl
o pfb_chr_prop1630_00_(UmaContainerProp)_mesh
v -0.204103 -0.007425 0.004984
v -0.240440 -0.009700 0.005202
v -0.240440 -0.005149 0.004767
v -0.240440 -0.006102 -0.005202
v -0.240440 -0.010653 -0.004767
v -0.204103 -0.008378 -0.004984
v -0.237897 -0.027361 -0.009246
v -0.227420 -0.007998 -0.021994
v -0.238230 -0.007998 -0.009246
v -0.226923 -0.027361 -0.021994
v -0.228567 -0.062767 -0.018592
v -0.225578 -0.060996 -0.021994
v -0.230566 -0.063244 -0.015620
v -0.237897 -0.027361 -0.009246
v -0.233060 -0.062767 -0.012433
v -0.235554 -0.060996 -0.009246
v -0.238357 -0.023180 -0.005422
v -0.238376 -0.007998 -0.005422
v -0.186230 -0.023045 -0.005477
v -0.186207 -0.007998 -0.005477
v -0.186230 0.007310 -0.005477
v -0.238357 0.007184 -0.005422
v -0.235596 -0.062767 -0.004699
v -0.235554 -0.060996 -0.009246
v -0.237897 -0.027361 -0.009246
v -0.235660 -0.063244 0.000000
v -0.238001 -0.027361 0.000000
v -0.238357 -0.023180 -0.005422
v -0.238230 -0.007998 -0.009246
v -0.238376 -0.007998 -0.005422
v -0.238341 -0.023180 0.000000
v -0.238357 0.007184 -0.005422
v -0.238357 -0.023180 0.005422
v -0.237897 0.011365 -0.009246
v -0.237897 -0.027361 0.009246
v -0.235596 -0.062767 0.004699
v -0.235554 -0.060996 0.009246
v -0.238230 -0.007998 0.009246
v -0.238376 -0.007998 0.005422
v -0.238357 0.007184 0.005422
v -0.237897 0.011365 0.009246
v -0.238001 0.011365 0.000000
v -0.238341 0.007184 0.000000
v -0.235660 0.047248 0.000000
v -0.235596 0.046771 -0.004699
v -0.235554 0.045000 -0.009246
v -0.235596 0.046771 0.004699
v -0.235554 0.045000 0.009246
v -0.191423 -0.062767 -0.012433
v -0.188929 -0.060996 -0.009246
v -0.186585 -0.027361 -0.009246
v -0.193917 -0.063244 -0.015620
v -0.197560 -0.027361 -0.021994
v -0.196410 -0.062767 -0.018807
v -0.198904 -0.060996 -0.021994
v -0.197063 -0.007998 -0.021994
v -0.186253 -0.007998 -0.009246
v -0.186585 0.011365 -0.009246
v -0.197560 0.011365 -0.021994
v -0.193917 0.047248 -0.015620
v -0.191423 0.046771 -0.012433
v -0.188929 0.045000 -0.009246
v -0.196410 0.046771 -0.018807
v -0.198904 0.045000 -0.021994
v -0.205722 -0.062767 -0.021954
v -0.198904 -0.060996 -0.021994
v -0.197560 -0.027361 -0.021994
v -0.212278 -0.063244 -0.021915
v -0.226923 -0.027361 -0.021994
v -0.219357 -0.062767 -0.021875
v -0.225578 -0.060996 -0.021994
v -0.227420 -0.007998 -0.021994
v -0.197063 -0.007998 -0.021994
v -0.197560 0.011365 -0.021994
v -0.226923 0.011365 -0.021994
v -0.212278 0.047248 -0.021915
v -0.205722 0.046771 -0.021954
v -0.198904 0.045000 -0.021994
v -0.219357 0.046771 -0.021875
v -0.225578 0.045000 -0.021994
v -0.186585 -0.027361 -0.009246
v -0.188929 -0.060996 -0.009246
v -0.188887 -0.062767 -0.004699
v -0.188844 -0.063244 0.000000
v -0.186488 -0.027361 0.000000
v -0.186585 -0.027361 0.009246
v -0.188887 -0.062767 0.004699
v -0.188929 -0.060996 0.009246
v -0.186230 -0.023045 -0.005477
v -0.186253 -0.007998 -0.009246
v -0.186214 -0.023045 0.000000
v -0.186207 -0.007998 -0.005477
v -0.186230 -0.023045 0.005591
v -0.186230 0.007310 -0.005477
v -0.186253 -0.007998 0.009246
v -0.186207 -0.007998 0.005591
v -0.186230 0.007310 0.005591
v -0.186585 0.011365 -0.009246
v -0.186585 0.011365 0.009246
v -0.186488 0.011365 0.000000
v -0.186214 0.007310 0.000000
v -0.188844 0.047248 0.000000
v -0.188887 0.046771 -0.004699
v -0.188929 0.045000 -0.009246
v -0.188887 0.046771 0.004699
v -0.188929 0.045000 0.009246
v -0.238357 -0.023180 0.005422
v -0.186230 -0.023045 0.005591
v -0.238376 -0.007998 0.005422
v -0.186207 -0.007998 0.005591
v -0.186230 0.007310 0.005591
v -0.238357 0.007184 0.005422
v -0.233060 -0.062767 0.012433
v -0.235554 -0.060996 0.009246
v -0.237897 -0.027361 0.009246
v -0.230566 -0.063244 0.015620
v -0.226923 -0.027361 0.021994
v -0.228567 -0.062767 0.018592
v -0.225578 -0.060996 0.021994
v -0.227420 -0.007998 0.021994
v -0.238230 -0.007998 0.009246
v -0.237897 0.011365 0.009246
v -0.226923 0.011365 0.021994
v -0.230566 0.047248 0.015620
v -0.233060 0.046771 0.012433
v -0.235554 0.045000 0.009246
v -0.228567 0.046771 0.018592
v -0.225578 0.045000 0.021994
v -0.186585 -0.027361 0.009246
v -0.188929 -0.060996 0.009246
v -0.191423 -0.062767 0.012433
v -0.193917 -0.063244 0.015620
v -0.197560 -0.027361 0.021994
v -0.196410 -0.062767 0.018807
v -0.198904 -0.060996 0.021994
v -0.197063 -0.007998 0.021994
v -0.186253 -0.007998 0.009246
v -0.186585 0.011365 0.009246
v -0.197560 0.011365 0.021994
v -0.193917 0.047248 0.015620
v -0.191423 0.046771 0.012433
v -0.188929 0.045000 0.009246
v -0.196410 0.046771 0.018807
v -0.198904 0.045000 0.021994
v -0.197560 -0.027361 0.021994
v -0.198904 -0.060996 0.021994
v -0.205722 -0.062767 0.021954
v -0.212278 -0.063244 0.021915
v -0.226923 -0.027361 0.021994
v -0.219357 -0.062767 0.021875
v -0.225578 -0.060996 0.021994
v -0.227420 -0.007998 0.021994
v -0.197063 -0.007998 0.021994
v -0.197560 0.011365 0.021994
v -0.226923 0.011365 0.021994
v -0.212278 0.047248 0.021915
v -0.205722 0.046771 0.021954
v -0.198904 0.045000 0.021994
v -0.219357 0.046771 0.021875
v -0.225578 0.045000 0.021994
v -0.238357 -0.023180 -0.005422
v -0.186230 -0.023045 -0.005477
v -0.186214 -0.023045 0.000000
v -0.238341 -0.023180 0.000000
v -0.186230 -0.023045 0.005591
v -0.238357 -0.023180 0.005422
v -0.237897 0.011365 -0.009246
v -0.238230 -0.007998 -0.009246
v -0.227420 -0.007998 -0.021994
v -0.226923 0.011365 -0.021994
v -0.230566 0.047248 -0.015620
v -0.233060 0.046771 -0.012433
v -0.235554 0.045000 -0.009246
v -0.228567 0.046771 -0.018592
v -0.225578 0.045000 -0.021994
v -0.190910 0.048664 -0.008467
v -0.189588 0.048664 0.000000
v -0.194485 0.048664 -0.015157
v -0.200049 0.048664 -0.020147
v -0.206028 0.048664 -0.021167
v -0.212278 0.048664 -0.021499
v -0.218492 0.048664 -0.021167
v -0.224433 0.048664 -0.020147
v -0.229997 0.048664 -0.015157
v -0.233572 0.048664 -0.008467
v -0.234967 0.048664 0.000000
v -0.233572 0.048664 0.008467
v -0.229997 0.048664 0.015157
v -0.224433 0.048664 0.020147
v -0.218492 0.048664 0.021167
v -0.212278 0.048664 0.021499
v -0.206028 0.048664 0.021167
v -0.200049 0.048664 0.020147
v -0.194485 0.048664 0.015157
v -0.190910 0.048664 0.008467
v -0.238357 0.007184 -0.005422
v -0.186214 0.007310 0.000000
v -0.186230 0.007310 -0.005477
v -0.238341 0.007184 0.000000
v -0.186230 0.007310 0.005591
v -0.238357 0.007184 0.005422
v -0.240440 -0.005149 0.004767
v -0.240440 -0.009700 0.005202
v -0.240440 -0.010653 -0.004767
v -0.240440 -0.006102 -0.005202
v -0.204103 -0.008378 -0.004984
v -0.240440 -0.010653 -0.004767
v -0.240440 -0.009700 0.005202
v -0.204103 -0.007425 0.004984
v -0.240440 -0.005149 0.004767
v -0.240440 -0.006102 -0.005202
v -0.204103 -0.008378 -0.004984
v -0.204103 -0.007425 0.004984
v -0.237311 0.007059 0.005363
v -0.237859 -0.007901 -0.005877
v -0.237311 0.006937 -0.005877
v -0.237859 -0.007901 0.005363
v -0.237311 -0.022944 -0.005877
v -0.237311 -0.022777 0.005363
v -0.188919 -0.022944 0.005363
v -0.237311 -0.022777 0.005363
v -0.237859 -0.007901 0.005363
v -0.188919 0.007142 0.005363
v -0.237311 0.007059 0.005363
v -0.135658 -0.007901 0.005363
v -0.135658 0.007142 0.005363
v -0.135658 -0.022944 0.005363
v -0.088264 -0.000031 0.006047
v -0.088264 -0.014382 0.006047
v -0.088264 -0.007207 0.006047
v -0.077576 -0.010665 0.006357
v -0.075542 -0.009197 0.006505
v -0.077576 -0.003748 0.006357
v -0.074419 -0.007207 0.006654
v -0.075542 -0.005217 0.006505
v -0.074419 -0.014645 0.006089
v -0.075542 -0.009197 0.006505
v -0.077576 -0.010665 0.006357
v -0.088264 -0.014382 0.006047
v -0.135658 -0.022944 0.005363
v -0.031221 -0.005063 0.006654
v -0.074419 0.000232 0.006089
v -0.075542 -0.005217 0.006505
v -0.077576 -0.003748 0.006357
v -0.088264 -0.000031 0.006047
v -0.135658 0.007142 0.005363
v -0.074419 -0.017124 0.004613
v -0.031221 -0.012668 0.006089
v 0.000000 -0.010878 0.006231
v -0.031221 -0.015202 0.004613
v -0.074419 -0.018318 0.002178
v -0.074419 -0.018951 -0.000257
v -0.031221 -0.016416 0.002178
v -0.135658 -0.022944 -0.000257
v -0.188919 -0.022944 0.005363
v -0.188919 -0.022944 0.000000
v -0.237311 -0.022777 0.005363
v -0.237311 -0.022944 -0.005877
v -0.188919 -0.022944 -0.005007
v -0.135658 -0.022944 -0.005877
v 0.000000 -0.014703 0.002232
v -0.031221 -0.017069 -0.000257
v 0.000000 -0.013468 0.004721
v -0.074419 -0.018318 -0.002692
v 0.023232 -0.013138 0.002286
v 0.000000 -0.015377 -0.000257
v -0.031221 -0.016416 -0.002692
v -0.074419 -0.017124 -0.005127
v -0.074419 -0.014645 -0.006603
v -0.088264 -0.014382 -0.006561
v -0.077576 -0.010665 -0.006871
v -0.075542 -0.009197 -0.007019
v -0.074419 -0.007207 -0.007168
v -0.031221 -0.012668 -0.006603
v -0.031221 -0.015202 -0.005127
v 0.000000 -0.010878 -0.006745
v 0.000000 -0.013468 -0.005235
v 0.000000 -0.014703 -0.002746
v 0.023232 -0.013811 -0.000257
v 0.023232 -0.013138 -0.002800
v -0.031221 -0.005063 -0.007168
v 0.023232 -0.011903 -0.005344
v 0.053708 -0.011681 -0.000257
v 0.053708 -0.010855 0.002760
v 0.053708 -0.010855 -0.003274
v 0.053708 -0.009416 0.005777
v 0.085419 -0.007802 0.002976
v 0.085475 -0.008565 -0.000257
v 0.085419 -0.007802 -0.003490
v 0.085297 -0.006123 0.006209
v 0.053708 -0.006344 0.007606
v 0.085057 -0.002809 0.008169
v 0.084696 0.002164 0.009430
v 0.023232 -0.011903 0.004830
v 0.053708 -0.009416 -0.006291
v 0.085297 -0.006123 -0.006723
v 0.053708 -0.006344 -0.008120
v 0.085057 -0.002809 -0.008683
v 0.084696 0.002164 -0.009944
v 0.053708 0.002879 0.008869
v 0.084336 0.007137 0.010065
v 0.083853 0.013791 0.009534
v 0.023232 -0.009314 0.006372
v 0.023232 -0.001052 0.006961
v 0.053708 0.015115 0.007606
v 0.083370 0.020445 0.008169
v 0.083030 0.025138 0.004913
v 0.053708 0.002879 -0.009383
v 0.084336 0.007137 -0.010579
v 0.083853 0.013791 -0.010048
v 0.053708 0.015115 -0.008120
v 0.083370 0.020445 -0.008683
v 0.083030 0.025138 -0.005427
v 0.023232 -0.001052 -0.007475
v 0.023232 0.009060 0.006372
v 0.053708 0.018576 0.004626
v 0.082896 0.026977 -0.000257
v 0.053708 0.020453 -0.000257
v 0.023232 0.011649 0.004224
v 0.000000 0.005866 0.006231
v 0.023232 0.013557 -0.000257
v 0.023232 0.011649 -0.004738
v 0.053708 0.018576 -0.005140
v 0.000000 0.008456 0.004224
v 0.000000 -0.003105 0.006808
v -0.031221 0.002542 0.006089
v -0.031221 0.005075 0.004224
v 0.000000 0.009895 -0.000257
v -0.031221 0.006943 -0.000257
v -0.074419 0.002710 0.004224
v -0.074419 0.004537 -0.000257
v 0.000000 0.008456 -0.004738
v -0.031221 0.005075 -0.004738
v -0.135658 0.007142 -0.000257
v -0.188919 0.007142 0.005363
v 0.000000 0.005866 -0.006745
v -0.074419 0.002710 -0.004738
v -0.188919 0.007142 0.000000
v -0.237311 0.007059 0.005363
v -0.237311 0.006937 -0.005877
v -0.188919 0.007142 -0.005007
v -0.135658 0.007142 -0.005877
v -0.031221 0.002542 -0.006603
v -0.074419 0.000232 -0.006603
v -0.088264 -0.000031 -0.006561
v -0.077576 -0.003748 -0.006871
v -0.075542 -0.005217 -0.007019
v 0.000000 -0.003105 -0.007322
v 0.023232 0.009060 -0.006886
v 0.023232 -0.009314 -0.006886
v -0.077576 -0.010665 -0.006871
v -0.075542 -0.009197 -0.007019
v -0.088264 -0.007207 -0.006561
v -0.075542 -0.005217 -0.007019
v -0.077576 -0.003748 -0.006871
v -0.088264 -0.014382 -0.006561
v -0.088264 -0.000031 -0.006561
v -0.135658 -0.007901 -0.005877
v -0.135658 -0.022944 -0.005877
v -0.135658 0.007142 -0.005877
v -0.188919 -0.022944 -0.005007
v -0.188919 0.007142 -0.005007
v -0.237859 -0.007901 -0.005877
v -0.237311 0.006937 -0.005877
v -0.237311 -0.022944 -0.005877
v -0.188844 -0.063244 0.000000
v -0.188887 -0.062767 -0.004699
v -0.189588 -0.064660 0.000000
v -0.188887 -0.062767 0.004699
v -0.190910 -0.064660 -0.008467
v -0.188929 -0.060996 -0.009246
v -0.191423 -0.062767 -0.012433
v -0.190910 -0.064660 0.008467
v -0.188929 -0.060996 0.009246
v -0.191423 -0.062767 0.012433
v -0.194485 -0.064660 -0.015157
v -0.193917 -0.063244 -0.015620
v -0.196410 -0.062767 -0.018807
v -0.200049 -0.064660 -0.020147
v -0.198904 -0.060996 -0.021994
v -0.206028 -0.064660 -0.021167
v -0.205722 -0.062767 -0.021954
v -0.194485 -0.064660 0.015157
v -0.193917 -0.063244 0.015620
v -0.196410 -0.062767 0.018807
v -0.200049 -0.064660 0.020147
v -0.198904 -0.060996 0.021994
v -0.206028 -0.064660 0.021167
v -0.205722 -0.062767 0.021954
v -0.212278 -0.064660 -0.021499
v -0.212278 -0.063244 -0.021915
v -0.219357 -0.062767 -0.021875
v -0.218492 -0.064660 -0.021167
v -0.225578 -0.060996 -0.021994
v -0.224433 -0.064660 -0.020147
v -0.228567 -0.062767 -0.018592
v -0.212278 -0.064660 0.021499
v -0.212278 -0.063244 0.021915
v -0.219357 -0.062767 0.021875
v -0.218492 -0.064660 0.021167
v -0.225578 -0.060996 0.021994
v -0.224433 -0.064660 0.020147
v -0.228567 -0.062767 0.018592
v -0.229997 -0.064660 -0.015157
v -0.230566 -0.063244 -0.015620
v -0.233060 -0.062767 -0.012433
v -0.229997 -0.064660 0.015157
v -0.230566 -0.063244 0.015620
v -0.233060 -0.062767 0.012433
v -0.233572 -0.064660 -0.008467
v -0.235554 -0.060996 -0.009246
v -0.235596 -0.062767 -0.004699
v -0.233572 -0.064660 0.008467
v -0.235554 -0.060996 0.009246
v -0.235596 -0.062767 0.004699
v -0.234967 -0.064660 0.000000
v -0.235660 -0.063244 0.000000
v -0.212278 -0.064660 -0.021499
v -0.218492 -0.064660 -0.021167
v -0.212273 -0.065832 -0.017528
v -0.206028 -0.064660 -0.021167
v -0.217320 -0.065832 -0.017139
v -0.221525 -0.065832 -0.015354
v -0.224433 -0.064660 -0.020147
v -0.215801 -0.066554 -0.011954
v -0.225867 -0.065832 -0.011626
v -0.229997 -0.064660 -0.015157
v -0.218855 -0.066554 -0.010927
v -0.229296 -0.065832 -0.006771
v -0.233572 -0.064660 -0.008467
v -0.221950 -0.066554 -0.008274
v -0.212278 -0.066936 0.000000
v -0.212272 -0.066554 -0.012494
v -0.224166 -0.066554 -0.004731
v -0.208728 -0.066554 -0.011953
v -0.230533 -0.065832 0.000000
v -0.234967 -0.064660 0.000000
v -0.233572 -0.064660 0.008467
v -0.225079 -0.066554 0.000000
v -0.229296 -0.065832 0.006771
v -0.229997 -0.064660 0.015157
v -0.224166 -0.066554 0.004731
v -0.225867 -0.065832 0.011626
v -0.224433 -0.064660 0.020147
v -0.221950 -0.066554 0.008275
v -0.221525 -0.065832 0.015329
v -0.218492 -0.064660 0.021167
v -0.218855 -0.066554 0.010902
v -0.215801 -0.066554 0.011942
v -0.217320 -0.065832 0.017125
v -0.212273 -0.065832 0.017528
v -0.212278 -0.064660 0.021499
v -0.206028 -0.064660 0.021167
v -0.212272 -0.066554 0.012494
v -0.208728 -0.066554 0.011944
v -0.205657 -0.066554 0.010906
v -0.207199 -0.065832 0.017128
v -0.202969 -0.065832 0.015333
v -0.200049 -0.064660 0.020147
v -0.194485 -0.064660 0.015157
v -0.198590 -0.065832 0.011658
v -0.190910 -0.064660 0.008467
v -0.202524 -0.066554 0.008308
v -0.195201 -0.065832 0.006770
v -0.189588 -0.064660 0.000000
v -0.200349 -0.066554 0.004730
v -0.194068 -0.065832 0.000000
v -0.195201 -0.065832 -0.006770
v -0.190910 -0.064660 -0.008467
v -0.199527 -0.066554 0.000000
v -0.198590 -0.065832 -0.011659
v -0.194485 -0.064660 -0.015157
v -0.202969 -0.065832 -0.015353
v -0.200049 -0.064660 -0.020147
v -0.200349 -0.066554 -0.004730
v -0.202524 -0.066554 -0.008308
v -0.205657 -0.066554 -0.010925
v -0.207199 -0.065832 -0.017138
v -0.188844 0.047248 0.000000
v -0.189588 0.048664 0.000000
v -0.188887 0.046771 -0.004699
v -0.188887 0.046771 0.004699
v -0.190910 0.048664 -0.008467
v -0.188929 0.045000 -0.009246
v -0.191423 0.046771 -0.012433
v -0.190910 0.048664 0.008467
v -0.188929 0.045000 0.009246
v -0.191423 0.046771 0.012433
v -0.194485 0.048664 -0.015157
v -0.193917 0.047248 -0.015620
v -0.196410 0.046771 -0.018807
v -0.200049 0.048664 -0.020147
v -0.198904 0.045000 -0.021994
v -0.206028 0.048664 -0.021167
v -0.205722 0.046771 -0.021954
v -0.194485 0.048664 0.015157
v -0.193917 0.047248 0.015620
v -0.196410 0.046771 0.018807
v -0.200049 0.048664 0.020147
v -0.198904 0.045000 0.021994
v -0.206028 0.048664 0.021167
v -0.205722 0.046771 0.021954
v -0.212278 0.048664 -0.021499
v -0.212278 0.047248 -0.021915
v -0.219357 0.046771 -0.021875
v -0.218492 0.048664 -0.021167
v -0.225578 0.045000 -0.021994
v -0.224433 0.048664 -0.020147
v -0.228567 0.046771 -0.018592
v -0.212278 0.048664 0.021499
v -0.212278 0.047248 0.021915
v -0.219357 0.046771 0.021875
v -0.218492 0.048664 0.021167
v -0.225578 0.045000 0.021994
v -0.224433 0.048664 0.020147
v -0.228567 0.046771 0.018592
v -0.229997 0.048664 -0.015157
v -0.230566 0.047248 -0.015620
v -0.233060 0.046771 -0.012433
v -0.229997 0.048664 0.015157
v -0.230566 0.047248 0.015620
v -0.233060 0.046771 0.012433
v -0.233572 0.048664 -0.008467
v -0.235554 0.045000 -0.009246
v -0.235596 0.046771 -0.004699
v -0.233572 0.048664 0.008467
v -0.235554 0.045000 0.009246
v -0.235596 0.046771 0.004699
v -0.234967 0.048664 0.000000
v -0.235660 0.047248 0.000000
v 0.086888 0.007304 -0.000257
v 0.086642 0.007304 0.007108
v 0.086265 0.012495 0.006657
v 0.085889 0.017687 0.005619
v 0.086901 0.003734 0.006584
v 0.085544 0.022435 0.002865
v 0.087160 0.000165 0.005619
v 0.085434 0.023963 -0.000257
v 0.087364 -0.002647 0.003861
v 0.085544 0.022435 -0.003379
v 0.087453 -0.003869 0.001802
v 0.085889 0.017687 -0.006133
v 0.087475 -0.004175 -0.000257
v 0.086265 0.012495 -0.007171
v 0.087453 -0.003869 -0.002316
v 0.086642 0.007304 -0.007621
v 0.087364 -0.002647 -0.004375
v 0.086901 0.003734 -0.007098
v 0.087160 0.000165 -0.006133
v 0.084155 0.026453 -0.000257
v 0.085544 0.022435 -0.003379
v 0.085434 0.023963 -0.000257
v 0.085544 0.022435 0.002865
v 0.084286 0.024651 -0.004512
v 0.085889 0.017687 -0.006133
v 0.084286 0.024651 0.003998
v 0.085889 0.017687 0.005619
v 0.084655 0.019568 -0.007818
v 0.086265 0.012495 -0.007171
v 0.083030 0.025138 -0.005427
v 0.082896 0.026977 -0.000257
v 0.083370 0.020445 -0.008683
v 0.083030 0.025138 0.004913
v 0.085102 0.013396 -0.009043
v 0.083853 0.013791 -0.010048
v 0.084336 0.007137 -0.010579
v 0.084655 0.019568 0.007304
v 0.083370 0.020445 0.008169
v 0.085550 0.007225 -0.009520
v 0.086642 0.007304 -0.007621
v 0.086901 0.003734 -0.007098
v 0.085102 0.013396 0.008529
v 0.083853 0.013791 0.009534
v 0.086265 0.012495 0.006657
v 0.084336 0.007137 0.010065
v 0.085879 0.002697 -0.008949
v 0.084696 0.002164 -0.009944
v 0.085057 -0.002809 -0.008683
v 0.087160 0.000165 -0.006133
v 0.085550 0.007225 0.009006
v 0.086642 0.007304 0.007108
v 0.086901 0.003734 0.006584
v 0.086207 -0.001831 -0.007818
v 0.085297 -0.006123 -0.006723
v 0.085879 0.002697 0.008435
v 0.084696 0.002164 0.009430
v 0.085057 -0.002809 0.008169
v 0.086423 -0.004804 -0.006059
v 0.086546 -0.006504 -0.003158
v 0.087364 -0.002647 -0.004375
v 0.085419 -0.007802 -0.003490
v 0.087453 -0.003869 -0.002316
v 0.087475 -0.004175 -0.000257
v 0.085475 -0.008565 -0.000257
v 0.086207 -0.001831 0.007304
v 0.087160 0.000165 0.005619
v 0.086603 -0.007287 -0.000257
v 0.087453 -0.003869 0.001802
v 0.086423 -0.004804 0.005545
v 0.085297 -0.006123 0.006209
v 0.087364 -0.002647 0.003861
v 0.086546 -0.006504 0.002644
v 0.085419 -0.007802 0.002976
vn -0.0000 0.0952 0.9955
vn -0.0000 -0.0952 -0.9955
vn -0.7603 -0.0000 -0.6496
vn -0.7596 -0.0266 -0.6499
vn -0.7592 -0.0265 -0.6503
vn -0.7432 -0.0297 -0.6684
vn -0.7940 -0.0215 -0.6076
vn -0.7859 -0.0368 -0.6173
vn -0.7942 -0.0540 -0.6053
vn -0.8012 -0.0558 -0.5958
vn 0.0011 -0.0000 1.0000
vn -0.9978 -0.0626 -0.0212
vn -0.9969 -0.0695 -0.0363
vn -0.9973 -0.0682 -0.0264
vn -0.9978 -0.0667 -0.0000
vn -0.9977 -0.0673 -0.0000
vn -0.9968 -0.0408 -0.0687
vn -0.9987 -0.0000 -0.0504
vn -0.9993 -0.0000 -0.0383
vn -0.9967 -0.0809 -0.0000
vn -0.9968 0.0408 -0.0687
vn -0.9968 -0.0408 0.0687
vn -0.9978 0.0626 -0.0212
vn -0.9978 -0.0626 0.0212
vn -0.9973 -0.0682 0.0264
vn -0.9969 -0.0695 0.0363
vn -0.9987 -0.0000 0.0504
vn -0.9993 -0.0000 0.0383
vn -0.9968 0.0408 0.0687
vn -0.9978 0.0626 0.0212
vn -0.9977 0.0673 -0.0000
vn -0.9967 0.0809 -0.0000
vn -0.9978 0.0667 -0.0000
vn -0.9973 0.0682 -0.0264
vn -0.9969 0.0695 -0.0363
vn -0.9973 0.0682 0.0264
vn -0.9969 0.0695 0.0363
vn 0.7596 -0.0266 -0.6498
vn 0.8012 -0.0558 -0.5959
vn 0.7939 -0.0539 -0.6057
vn 0.7743 -0.0403 -0.6315
vn 0.7593 -0.0266 -0.6502
vn 0.7827 -0.0306 -0.6217
vn 0.7787 -0.0311 -0.6266
vn 0.7605 -0.0000 -0.6493
vn 0.7603 -0.0000 -0.6496
vn 0.7596 0.0266 -0.6498
vn 0.7593 0.0266 -0.6502
vn 0.7743 0.0403 -0.6315
vn 0.7942 0.0540 -0.6053
vn 0.8012 0.0558 -0.5959
vn 0.7827 0.0306 -0.6217
vn 0.7787 0.0311 -0.6266
vn -0.0003 -0.0008 -1.0000
vn -0.0059 0.0002 -1.0000
vn -0.0060 0.0003 -1.0000
vn -0.0023 -0.0022 -1.0000
vn 0.0003 -0.0010 -1.0000
vn 0.0023 -0.0029 -1.0000
vn 0.0193 0.0008 -0.9998
vn -0.0000 -0.0000 -1.0000
vn -0.0003 0.0008 -1.0000
vn 0.0003 0.0010 -1.0000
vn -0.0023 0.0022 -1.0000
vn -0.0060 -0.0003 -1.0000
vn -0.0059 -0.0002 -1.0000
vn 0.0023 0.0029 -1.0000
vn 0.0193 -0.0008 -0.9998
vn 0.9974 -0.0678 -0.0235
vn 0.9969 -0.0695 -0.0363
vn 0.9979 -0.0617 -0.0175
vn 0.9978 -0.0666 -0.0000
vn 0.9978 -0.0661 -0.0000
vn 0.9979 -0.0619 0.0175
vn 0.9974 -0.0678 0.0235
vn 0.9969 -0.0695 0.0363
vn 0.9982 -0.0334 -0.0502
vn 0.9997 -0.0000 -0.0241
vn 0.9980 -0.0635 -0.0000
vn 0.9999 -0.0000 -0.0122
vn 0.9981 -0.0338 0.0515
vn 0.9981 0.0345 -0.0513
vn 0.9997 -0.0000 0.0246
vn 0.9999 -0.0000 0.0126
vn 0.9980 0.0349 0.0527
vn 0.9979 0.0617 -0.0179
vn 0.9979 0.0619 0.0178
vn 0.9978 0.0661 -0.0000
vn 0.9977 0.0676 -0.0000
vn 0.9978 0.0666 -0.0000
vn 0.9974 0.0678 -0.0231
vn 0.9969 0.0695 -0.0363
vn 0.9974 0.0678 0.0235
vn 0.9969 0.0695 0.0363
vn 0.0033 -0.0000 -1.0000
vn -0.7596 -0.0266 0.6499
vn -0.8012 -0.0558 0.5958
vn -0.7942 -0.0540 0.6053
vn -0.7859 -0.0368 0.6173
vn -0.7592 -0.0265 0.6503
vn -0.7940 -0.0215 0.6076
vn -0.7432 -0.0297 0.6684
vn -0.7605 -0.0000 0.6493
vn -0.7603 -0.0000 0.6496
vn -0.7596 0.0266 0.6498
vn -0.7592 0.0266 0.6503
vn -0.7859 0.0368 0.6173
vn -0.7942 0.0540 0.6053
vn -0.8012 0.0558 0.5958
vn -0.7940 0.0215 0.6076
vn -0.7432 0.0297 0.6684
vn 0.7942 -0.0540 0.6053
vn 0.8012 -0.0558 0.5959
vn 0.7596 -0.0266 0.6498
vn 0.7744 -0.0403 0.6315
vn 0.7593 -0.0265 0.6502
vn 0.7827 -0.0306 0.6217
vn 0.7787 -0.0311 0.6266
vn 0.7605 -0.0000 0.6493
vn 0.7603 -0.0000 0.6496
vn 0.7596 0.0266 0.6498
vn 0.7593 0.0266 0.6502
vn 0.7744 0.0403 0.6315
vn 0.7942 0.0540 0.6053
vn 0.8012 0.0558 0.5959
vn 0.7827 0.0306 0.6217
vn 0.7787 0.0311 0.6266
vn -0.0060 0.0003 1.0000
vn -0.0059 0.0002 1.0000
vn -0.0003 -0.0008 1.0000
vn -0.0023 -0.0022 1.0000
vn 0.0003 -0.0010 1.0000
vn 0.0023 -0.0029 1.0000
vn 0.0193 0.0008 0.9998
vn -0.0000 -0.0000 1.0000
vn -0.0003 0.0008 1.0000
vn 0.0003 0.0010 1.0000
vn -0.0023 0.0022 1.0000
vn -0.0060 -0.0003 1.0000
vn -0.0059 -0.0002 1.0000
vn 0.0023 0.0029 1.0000
vn 0.0193 -0.0008 0.9998
vn -0.0026 1.0000 -0.0000
vn -0.7596 0.0266 -0.6499
vn -0.7592 0.0265 -0.6503
vn -0.7859 0.0368 -0.6173
vn -0.7942 0.0540 -0.6053
vn -0.8012 0.0558 -0.5958
vn -0.7940 0.0215 -0.6076
vn -0.7432 0.0297 -0.6684
vn -0.0000 1.0000 -0.0000
vn 0.0024 -1.0000 -0.0000
vn -1.0000 -0.0000 -0.0000
vn 0.0628 -0.9935 0.0950
vn 0.0628 0.9935 -0.0950
vn -0.9993 0.0366 -0.0000
vn -1.0000 0.0002 -0.0001
vn -0.9993 0.0368 -0.0002
vn -1.0000 -0.0000 0.0001
vn -0.9993 -0.0366 0.0003
vn -0.0063 -0.0000 1.0000
vn -0.0069 -0.0000 1.0000
vn -0.0068 -0.0000 1.0000
vn -0.0162 -0.0000 0.9999
vn -0.0173 -0.0000 0.9998
vn -0.0390 -0.0321 0.9987
vn -0.0432 -0.0462 0.9980
vn -0.0388 0.0320 0.9987
vn -0.0000 -0.0024 1.0000
vn -0.0432 0.0463 0.9980
vn -0.0052 -0.0772 0.9970
vn 0.0163 -0.2464 0.9690
vn -0.0000 -0.0023 1.0000
vn -0.0062 -0.0719 0.9974
vn -0.0041 -0.0577 0.9983
vn 0.0350 -0.9992 0.0177
vn -0.0026 -0.0003 1.0000
vn -0.0008 0.2846 0.9586
vn -0.0052 0.0772 0.9970
vn -0.0062 0.0719 0.9974
vn -0.0043 0.0671 0.9977
vn 0.0395 0.9910 0.1279
vn 0.0511 -0.7254 0.6865
vn 0.0082 -0.1985 0.9801
vn 0.0072 -0.1961 0.9806
vn 0.0346 -0.7237 0.6893
vn 0.0610 -0.9342 0.3515
vn 0.0622 -0.9981 -0.0000
vn 0.0451 -0.9335 0.3558
vn 0.0348 -0.9994 -0.0000
vn -0.0017 -1.0000 -0.0000
vn -0.0009 -1.0000 0.0009
vn -0.0019 -0.9999 0.0138
vn -0.0017 -0.9999 0.0142
vn -0.0000 -1.0000 -0.0000
vn 0.0351 -0.9992 -0.0178
vn 0.0554 -0.9328 0.3562
vn 0.0483 -0.9988 -0.0000
vn 0.0411 -0.7232 0.6894
vn 0.0609 -0.9342 -0.3515
vn 0.0633 -0.9341 0.3513
vn 0.0596 -0.9982 -0.0000
vn 0.0451 -0.9335 -0.3557
vn 0.0511 -0.7254 -0.6865
vn 0.0163 -0.2465 -0.9690
vn -0.0041 -0.0577 -0.9983
vn -0.0062 -0.0719 -0.9974
vn -0.0051 -0.0772 -0.9970
vn -0.0000 -0.0023 -1.0000
vn 0.0082 -0.1984 -0.9801
vn 0.0346 -0.7236 -0.6893
vn 0.0072 -0.1961 -0.9806
vn 0.0411 -0.7232 -0.6894
vn 0.0554 -0.9328 -0.3561
vn 0.0685 -0.9976 -0.0000
vn 0.0633 -0.9341 -0.3513
vn -0.0026 -0.0000 -1.0000
vn 0.0420 -0.7318 -0.6802
vn 0.0837 -0.9965 -0.0000
vn 0.0776 -0.9331 0.3511
vn 0.0776 -0.9331 -0.3510
vn 0.0529 -0.7279 0.6836
vn 0.0892 -0.9314 0.3529
vn 0.0959 -0.9954 -0.0000
vn 0.0892 -0.9314 -0.3529
vn 0.0648 -0.7201 0.6908
vn -0.0114 -0.2583 0.9660
vn 0.0287 -0.4015 0.9154
vn -0.0081 -0.1781 0.9840
vn 0.0420 -0.7318 0.6803
vn 0.0529 -0.7279 -0.6836
vn 0.0648 -0.7201 -0.6908
vn -0.0114 -0.2583 -0.9660
vn 0.0287 -0.4015 -0.9154
vn -0.0080 -0.1782 -0.9840
vn -0.0500 0.0002 0.9987
vn -0.0380 -0.0074 0.9992
vn -0.0534 0.1319 0.9898
vn -0.0105 -0.2130 0.9770
vn -0.0346 -0.0031 0.9994
vn -0.0950 0.2912 0.9519
vn -0.1055 0.4599 0.8817
vn -0.1791 0.8006 0.5718
vn -0.0500 0.0002 -0.9987
vn -0.0380 -0.0074 -0.9993
vn -0.0534 0.1319 -0.9898
vn -0.0950 0.2912 -0.9519
vn -0.1055 0.4599 -0.8817
vn -0.1791 0.8006 -0.5718
vn -0.0346 -0.0031 -0.9994
vn -0.0695 0.2220 0.9726
vn -0.1829 0.8002 0.5712
vn -0.2199 0.9755 0.0002
vn -0.2214 0.9752 -0.0001
vn -0.1626 0.8178 0.5521
vn -0.0300 0.2194 0.9752
vn -0.1930 0.9812 -0.0000
vn -0.1626 0.8178 -0.5521
vn -0.1829 0.8002 -0.5712
vn -0.1016 0.8329 0.5440
vn -0.0064 -0.0001 1.0000
vn -0.0187 0.2289 0.9733
vn -0.0626 0.8268 0.5590
vn -0.1226 0.9902 0.0674
vn -0.0723 0.9966 0.0394
vn 0.0123 0.8922 0.4515
vn 0.0150 0.9999 -0.0000
vn -0.1017 0.8091 -0.5788
vn -0.0584 0.8042 -0.5915
vn 0.0399 0.9992 -0.0000
vn -0.0009 1.0000 -0.0000
vn -0.0300 0.2194 -0.9752
vn 0.0123 0.8922 -0.4515
vn -0.0015 1.0000 -0.0007
vn -0.0029 0.9999 -0.0106
vn -0.0029 0.9999 -0.0107
vn -0.0018 1.0000 -0.0000
vn 0.0397 0.9909 -0.1284
vn -0.0187 0.2288 -0.9733
vn -0.0008 0.2847 -0.9586
vn -0.0043 0.0671 -0.9977
vn -0.0062 0.0719 -0.9974
vn -0.0052 0.0772 -0.9970
vn -0.0064 -0.0001 -1.0000
vn -0.0695 0.2220 -0.9726
vn -0.0105 -0.2130 -0.9770
vn -0.0000 -0.0024 -1.0000
vn -0.0432 -0.0463 -0.9980
vn -0.0388 -0.0320 -0.9987
vn -0.0173 -0.0000 -0.9998
vn -0.0432 0.0462 -0.9980
vn -0.0390 0.0321 -0.9987
vn -0.0162 -0.0000 -0.9999
vn -0.0154 -0.0000 -0.9999
vn -0.0001 -0.0000 -1.0000
vn 0.0179 -0.0000 -0.9998
vn 0.0180 -0.0007 -0.9998
vn 0.0180 0.0007 -0.9998
vn 0.8418 -0.5398 -0.0000
vn 0.8101 -0.5688 -0.1422
vn 0.8853 -0.4651 -0.0000
vn 0.8101 -0.5688 0.1422
vn 0.8010 -0.5388 -0.2610
vn 0.8219 -0.5018 -0.2697
vn 0.7352 -0.5659 -0.3731
vn 0.8010 -0.5388 0.2610
vn 0.8219 -0.5018 0.2697
vn 0.7352 -0.5659 0.3731
vn 0.6595 -0.5468 -0.5157
vn 0.6991 -0.4600 -0.5475
vn 0.5349 -0.5700 -0.6236
vn 0.2988 -0.5177 -0.8017
vn 0.3018 -0.4969 -0.8136
vn 0.0900 -0.4186 -0.9037
vn 0.0770 -0.3885 -0.9182
vn 0.6595 -0.5468 0.5157
vn 0.6991 -0.4600 0.5475
vn 0.5349 -0.5700 0.6236
vn 0.2988 -0.5177 0.8017
vn 0.3018 -0.4969 0.8136
vn 0.0900 -0.4186 0.9037
vn 0.0770 -0.3885 0.9182
vn -0.0040 -0.3042 -0.9526
vn -0.0055 -0.2818 -0.9595
vn -0.0759 -0.3753 -0.9238
vn -0.0863 -0.4068 -0.9094
vn -0.3142 -0.4993 -0.8074
vn -0.2998 -0.5233 -0.7977
vn -0.5160 -0.6003 -0.6111
vn -0.0040 -0.3042 0.9526
vn -0.0056 -0.2818 0.9595
vn -0.0761 -0.3753 0.9238
vn -0.0863 -0.4068 0.9094
vn -0.3142 -0.4993 0.8074
vn -0.2998 -0.5233 0.7977
vn -0.5160 -0.6003 0.6111
vn -0.6511 -0.5690 -0.5022
vn -0.7172 -0.4595 -0.5239
vn -0.7352 -0.5659 -0.3731
vn -0.6511 -0.5690 0.5023
vn -0.7172 -0.4595 0.5239
vn -0.7352 -0.5659 0.3731
vn -0.8018 -0.5367 -0.2627
vn -0.8219 -0.5018 -0.2696
vn -0.8144 -0.5612 -0.1478
vn -0.8018 -0.5367 0.2627
vn -0.8219 -0.5018 0.2697
vn -0.8144 -0.5612 0.1478
vn -0.8523 -0.5231 -0.0000
vn -0.8984 -0.4393 -0.0000
vn -0.0000 -0.9816 -0.1910
vn -0.0426 -0.9677 -0.2486
vn -0.0001 -0.9591 -0.2832
vn 0.0425 -0.9677 -0.2486
vn -0.0426 -0.9825 -0.1812
vn -0.0982 -0.9837 -0.1506
vn -0.1111 -0.9784 -0.1742
vn -0.0202 -0.9962 -0.0847
vn -0.1421 -0.9825 -0.1208
vn -0.1664 -0.9761 -0.1401
vn -0.0473 -0.9960 -0.0763
vn -0.1852 -0.9803 -0.0683
vn -0.2243 -0.9710 -0.0823
vn -0.0663 -0.9961 -0.0588
vn -0.0000 -0.9960 -0.0899
vn -0.0816 -0.9962 -0.0318
vn 0.0201 -0.9962 -0.0847
vn -0.2016 -0.9795 -0.0000
vn -0.2521 -0.9677 -0.0000
vn -0.2243 -0.9710 0.0823
vn -0.0875 -0.9962 -0.0000
vn -0.1851 -0.9803 0.0683
vn -0.1661 -0.9761 0.1400
vn -0.0815 -0.9962 0.0319
vn -0.1419 -0.9825 0.1209
vn -0.1106 -0.9785 0.1740
vn -0.0665 -0.9961 0.0588
vn -0.0979 -0.9838 0.1505
vn -0.0427 -0.9679 0.2478
vn -0.0471 -0.9960 0.0764
vn -0.0205 -0.9962 0.0847
vn -0.0431 -0.9826 0.1808
vn -0.0000 -0.9816 0.1910
vn -0.0001 -0.9591 0.2832
vn 0.0426 -0.9678 0.2480
vn -0.0000 -0.9959 0.0899
vn 0.0198 -0.9962 0.0849
vn 0.0463 -0.9960 0.0765
vn 0.0428 -0.9826 0.1809
vn 0.0972 -0.9837 0.1510
vn 0.1104 -0.9784 0.1748
vn 0.1665 -0.9760 0.1403
vn 0.1420 -0.9824 0.1210
vn 0.2242 -0.9712 0.0806
vn 0.0662 -0.9961 0.0591
vn 0.1854 -0.9804 0.0665
vn 0.2510 -0.9680 -0.0000
vn 0.0818 -0.9962 0.0305
vn 0.2007 -0.9797 -0.0000
vn 0.1855 -0.9804 -0.0664
vn 0.2242 -0.9712 -0.0806
vn 0.0871 -0.9962 -0.0000
vn 0.1422 -0.9824 -0.1209
vn 0.1667 -0.9760 -0.1404
vn 0.0974 -0.9837 -0.1511
vn 0.1108 -0.9783 -0.1750
vn 0.0819 -0.9962 -0.0306
vn 0.0666 -0.9961 -0.0586
vn 0.0465 -0.9960 -0.0764
vn 0.0424 -0.9825 -0.1811
vn 0.8101 0.5688 -0.1422
vn 0.8418 0.5398 -0.0000
vn 0.8853 0.4651 -0.0000
vn 0.8101 0.5688 0.1422
vn 0.8010 0.5388 -0.2610
vn 0.8219 0.5018 -0.2697
vn 0.7352 0.5659 -0.3731
vn 0.8010 0.5388 0.2610
vn 0.8219 0.5018 0.2697
vn 0.7352 0.5659 0.3731
vn 0.6595 0.5468 -0.5157
vn 0.6991 0.4600 -0.5475
vn 0.5349 0.5700 -0.6236
vn 0.2988 0.5177 -0.8017
vn 0.3018 0.4969 -0.8136
vn 0.0900 0.4186 -0.9037
vn 0.0770 0.3885 -0.9182
vn 0.6595 0.5468 0.5157
vn 0.6991 0.4600 0.5475
vn 0.5349 0.5700 0.6236
vn 0.2988 0.5177 0.8017
vn 0.3018 0.4969 0.8136
vn 0.0900 0.4186 0.9037
vn 0.0770 0.3885 0.9182
vn -0.0040 0.3043 -0.9526
vn -0.0054 0.2818 -0.9595
vn -0.0758 0.3753 -0.9238
vn -0.0863 0.4068 -0.9094
vn -0.3142 0.4993 -0.8074
vn -0.2998 0.5233 -0.7977
vn -0.5160 0.6003 -0.6111
vn -0.0040 0.3042 0.9526
vn -0.0056 0.2818 0.9595
vn -0.0760 0.3753 0.9238
vn -0.0863 0.4068 0.9094
vn -0.3142 0.4993 0.8074
vn -0.2998 0.5233 0.7977
vn -0.5160 0.6003 0.6111
vn -0.6511 0.5690 -0.5023
vn -0.7173 0.4595 -0.5238
vn -0.7352 0.5658 -0.3732
vn -0.6511 0.5690 0.5022
vn -0.7172 0.4595 0.5239
vn -0.7352 0.5659 0.3732
vn -0.8018 0.5367 -0.2628
vn -0.8219 0.5018 -0.2697
vn -0.8144 0.5612 -0.1478
vn -0.8018 0.5367 0.2627
vn -0.8219 0.5018 0.2697
vn -0.8144 0.5612 0.1478
vn -0.8523 0.5231 -0.0000
vn -0.8984 0.4393 -0.0000
vn 0.9965 0.0774 0.0317
vn 0.9968 0.0720 0.0333
vn 0.9973 0.0729 -0.0000
vn 0.9963 0.0830 0.0228
vn 0.9973 0.0653 0.0322
vn 0.9962 0.0861 0.0115
vn 0.9979 0.0597 0.0263
vn 0.9962 0.0870 -0.0000
vn 0.9984 0.0544 0.0160
vn 0.9962 0.0861 -0.0115
vn 0.9986 0.0517 0.0070
vn 0.9963 0.0830 -0.0228
vn 0.9987 0.0510 -0.0000
vn 0.9965 0.0774 -0.0317
vn 0.9986 0.0518 -0.0075
vn 0.9968 0.0720 -0.0333
vn 0.9984 0.0544 -0.0160
vn 0.9973 0.0653 -0.0322
vn 0.9979 0.0597 -0.0263
vn 0.8968 0.4425 -0.0000
vn 0.8912 0.3432 -0.2966
vn 0.7283 0.6853 -0.0000
vn 0.8912 0.3432 0.2966
vn 0.7682 0.5173 -0.3771
vn 0.8799 0.2084 -0.4271
vn 0.7682 0.5173 0.3771
vn 0.8799 0.2084 0.4271
vn 0.7925 0.2754 -0.5442
vn 0.8671 0.1252 -0.4821
vn 0.6089 0.6011 -0.5177
vn 0.4731 0.8810 -0.0000
vn 0.6613 0.3506 -0.6631
vn 0.6089 0.6010 0.5177
vn 0.7786 0.1426 -0.6111
vn 0.6457 0.1578 -0.7471
vn 0.6528 0.0414 -0.7564
vn 0.7925 0.2755 0.5442
vn 0.6613 0.3506 0.6631
vn 0.7764 0.0509 -0.6281
vn 0.8680 0.0579 -0.4932
vn 0.8803 -0.0251 -0.4738
vn 0.7786 0.1426 0.6111
vn 0.6457 0.1578 0.7471
vn 0.8671 0.1252 0.4821
vn 0.6528 0.0414 0.7564
vn 0.7937 -0.0595 -0.6054
vn 0.6650 -0.0967 -0.7405
vn 0.7041 -0.2311 -0.6715
vn 0.9062 -0.0858 -0.4141
vn 0.7764 0.0509 0.6281
vn 0.8680 0.0579 0.4932
vn 0.8803 -0.0251 0.4737
vn 0.8271 -0.1546 -0.5404
vn 0.7663 -0.4500 -0.4585
vn 0.7937 -0.0595 0.6054
vn 0.6649 -0.0967 0.7407
vn 0.7041 -0.2311 0.6715
vn 0.8676 -0.3133 -0.3861
vn 0.8838 -0.4242 -0.1973
vn 0.9398 -0.1971 -0.2791
vn 0.7666 -0.5894 -0.2548
vn 0.9519 -0.2731 -0.1391
vn 0.9585 -0.2852 -0.0000
vn 0.7638 -0.6455 -0.0000
vn 0.8271 -0.1546 0.5404
vn 0.9062 -0.0858 0.4142
vn 0.8837 -0.4681 -0.0000
vn 0.9519 -0.2731 0.1391
vn 0.8676 -0.3133 0.3861
vn 0.7663 -0.4500 0.4585
vn 0.9398 -0.1971 0.2791
vn 0.8838 -0.4243 0.1973
vn 0.7666 -0.5894 0.2548
vt 0.971680 0.467773
vt 0.893555 0.467773
vt 0.932617 0.272461
vt 0.670898 0.930664
vt 0.670898 0.864258
vt 0.561523 0.930664
vt 0.561523 0.864258
vt 0.372070 0.866211
vt 0.362305 0.881836
vt 0.360352 0.897461
vt 0.362305 0.915039
vt 0.372070 0.934570
vt 0.401367 0.139648
vt 0.448242 0.221680
vt 0.401367 0.221680
vt 0.448242 0.139648
vt 0.362305 0.954102
vt 0.360352 0.975586
vt 0.561523 0.975586
vt 0.584961 0.961914
vt 0.670898 0.961914
vt 0.584961 0.975586
vt 0.756836 0.961914
vt 0.780273 0.930664
vt 0.780273 0.975586
vt 0.756836 0.975586
vt 0.981445 0.975586
vt 0.979492 0.954102
vt 0.969727 0.934570
vt 0.561523 0.678711
vt 0.372070 0.678711
vt 0.362305 0.696289
vt 0.360352 0.713867
vt 0.561523 0.743164
vt 0.362305 0.729492
vt 0.372070 0.745117
vt 0.670898 0.743164
vt 0.670898 0.678711
vt 0.780273 0.678711
vt 0.780273 0.743164
vt 0.981445 0.713867
vt 0.979492 0.696289
vt 0.969727 0.678711
vt 0.979492 0.729492
vt 0.969727 0.745117
vt 0.362305 0.774414
vt 0.360352 0.805664
vt 0.362305 0.838867
vt 0.780273 0.864258
vt 0.981445 0.805664
vt 0.979492 0.774414
vt 0.979492 0.838867
vt 0.969727 0.866211
vt 0.362305 0.657227
vt 0.360352 0.635742
vt 0.561523 0.635742
vt 0.584961 0.651367
vt 0.584961 0.635742
vt 0.670898 0.651367
vt 0.756836 0.651367
vt 0.780273 0.635742
vt 0.756836 0.635742
vt 0.981445 0.635742
vt 0.979492 0.657227
vt 0.981445 0.897461
vt 0.979492 0.915039
vt 0.979492 0.881836
vt 0.358398 0.221680
vt 0.372070 0.221680
vt 0.372070 0.139648
vt 0.358398 0.139648
vt 0.344727 0.221680
vt 0.344727 0.139648
vt 0.584961 0.045898
vt 0.690430 0.087891
vt 0.631836 0.022461
vt 0.549805 0.081055
vt 0.541992 0.122070
vt 0.540039 0.165039
vt 0.541992 0.204102
vt 0.549805 0.245117
vt 0.584961 0.282227
vt 0.631836 0.305664
vt 0.690430 0.315430
vt 0.750977 0.305664
vt 0.797852 0.282227
vt 0.833008 0.243164
vt 0.838867 0.204102
vt 0.840820 0.165039
vt 0.838867 0.122070
vt 0.833008 0.083008
vt 0.797852 0.045898
vt 0.750977 0.022461
vt 0.502930 0.221680
vt 0.489258 0.221680
vt 0.502930 0.139648
vt 0.489258 0.139648
vt 0.475586 0.221680
vt 0.475586 0.139648
vt 0.973633 0.575195
vt 0.875977 0.575195
vt 0.875977 0.530273
vt 0.973633 0.530273
vt 0.872070 0.213867
vt 0.987305 0.213867
vt 0.987305 0.022461
vt 0.872070 0.022461
vt 0.831055 0.374023
vt 0.831055 0.563477
vt 0.715820 0.563477
vt 0.715820 0.374023
vt 0.336914 0.010742
vt 0.426758 0.010742
vt 0.336914 0.079102
vt 0.426758 0.079102
vt 0.516602 0.010742
vt 0.516602 0.079102
vt 0.168945 0.997070
vt 0.055664 0.997070
vt 0.055664 0.985352
vt 0.284180 0.985352
vt 0.284180 0.997070
vt 0.168945 0.797852
vt 0.284180 0.797852
vt 0.055664 0.797852
vt 0.241211 0.641602
vt 0.096680 0.641602
vt 0.168945 0.641602
vt 0.133789 0.606445
vt 0.149414 0.600586
vt 0.204102 0.606445
vt 0.168945 0.596680
vt 0.188477 0.600586
vt 0.094727 0.596680
vt 0.166992 0.477539
vt 0.241211 0.596680
vt 0.061523 0.596680
vt 0.094727 0.477539
vt 0.094727 0.374023
vt 0.061523 0.477539
vt 0.043945 0.596680
vt 0.026367 0.596680
vt 0.047852 0.477539
vt 0.020508 0.797852
vt 0.020508 0.985352
vt 0.049805 0.374023
vt 0.032227 0.477539
vt 0.061523 0.374023
vt 0.049805 0.297852
vt 0.038086 0.374023
vt 0.028320 0.297852
vt 0.061523 0.297852
vt 0.034180 0.198242
vt 0.047852 0.198242
vt 0.065430 0.198242
vt 0.049805 0.098633
vt 0.034180 0.098633
vt 0.069336 0.098633
vt 0.094727 0.198242
vt 0.094727 0.098633
vt 0.129883 0.098633
vt 0.166992 0.198242
vt 0.166992 0.098633
vt 0.204102 0.098633
vt 0.094727 0.297852
vt 0.166992 0.297852
vt 0.243164 0.198242
vt 0.243164 0.098633
vt 0.276367 0.098633
vt 0.243164 0.297852
vt 0.276367 0.198242
vt 0.313477 0.098633
vt 0.313477 0.198242
vt 0.276367 0.297852
vt 0.243164 0.374023
vt 0.313477 0.297852
vt 0.276367 0.374023
vt 0.166992 0.374023
vt 0.243164 0.477539
vt 0.276367 0.477539
vt 0.313477 0.374023
vt 0.307617 0.477539
vt 0.276367 0.596680
vt 0.309570 0.596680
vt 0.319336 0.797852
vt 0.319336 0.985352
vt 0.350586 0.635742
vt 0.350586 0.678711
vt 0.350586 0.713867
vt 0.350586 0.745117
vt 0.350586 0.774414
vt 0.350586 0.805664
vt 0.350586 0.834961
vt 0.350586 0.866211
vt 0.350586 0.897461
vt 0.350586 0.934570
vt 0.350586 0.975586
vt 0.368164 0.454102
vt 0.342773 0.497070
vt 0.340820 0.454102
vt 0.342773 0.413086
vt 0.372070 0.489258
vt 0.383789 0.516602
vt 0.350586 0.536133
vt 0.407227 0.477539
vt 0.409180 0.545898
vt 0.385742 0.573242
vt 0.415039 0.499023
vt 0.444336 0.567383
vt 0.432617 0.596680
vt 0.432617 0.518555
vt 0.491211 0.454102
vt 0.403320 0.454102
vt 0.458008 0.534180
vt 0.407227 0.430664
vt 0.491211 0.577148
vt 0.491211 0.606445
vt 0.551758 0.596680
vt 0.491211 0.540039
vt 0.540039 0.567383
vt 0.598633 0.573242
vt 0.524414 0.534180
vt 0.573242 0.545898
vt 0.633789 0.536133
vt 0.549805 0.518555
vt 0.598633 0.516602
vt 0.639648 0.497070
vt 0.567383 0.499023
vt 0.575195 0.477539
vt 0.612305 0.489258
vt 0.614258 0.454102
vt 0.643555 0.454102
vt 0.639648 0.413086
vt 0.579102 0.454102
vt 0.575195 0.430664
vt 0.567383 0.411133
vt 0.612305 0.420898
vt 0.598633 0.393555
vt 0.633789 0.374023
vt 0.598633 0.336914
vt 0.573242 0.364258
vt 0.551758 0.311523
vt 0.549805 0.389648
vt 0.540039 0.340820
vt 0.491211 0.303711
vt 0.524414 0.375977
vt 0.491211 0.333008
vt 0.444336 0.340820
vt 0.432617 0.311523
vt 0.491211 0.370117
vt 0.409180 0.364258
vt 0.385742 0.336914
vt 0.383789 0.393555
vt 0.350586 0.374023
vt 0.458008 0.375977
vt 0.432617 0.389648
vt 0.415039 0.411133
vt 0.372070 0.420898
vt 0.991211 0.635742
vt 0.991211 0.678711
vt 0.991211 0.713867
vt 0.991211 0.745117
vt 0.991211 0.774414
vt 0.991211 0.805664
vt 0.991211 0.834961
vt 0.991211 0.866211
vt 0.991211 0.897461
vt 0.991211 0.934570
vt 0.991211 0.975586
vt 0.198242 0.049805
vt 0.166992 0.051758
vt 0.168945 0.004883
vt 0.225586 0.047852
vt 0.143555 0.049805
vt 0.250977 0.034180
vt 0.116211 0.047852
vt 0.262695 0.004883
vt 0.096680 0.030273
vt 0.088867 0.018555
vt 0.086914 0.004883
vt 0.295688 0.061523
vt 0.265167 0.073242
vt 0.241211 0.077148
vt 0.204102 0.077148
vt 0.166992 0.077148
vt 0.135742 0.077148
vt 0.100586 0.077148
vt 0.077148 0.065430
vt 0.059570 0.057617
vt 0.051758 0.049805
s 1
usemtl mtl_chr_prop1630_00.001
f 3/1/1 2/2/1 1/3/1
f 6/3/2 5/2/2 4/1/2
f 9/4/3 8/5/3 7/6/4
f 8/5/3 10/7/5 7/6/4
f 12/8/6 11/9/7 10/7/5
f 10/7/5 11/9/7 13/10/8
f 14/6/4 10/7/5 13/10/8
f 13/10/8 15/11/9 14/6/4
f 15/11/9 16/12/10 14/6/4
f 19/13/11 18/14/11 17/15/11
f 18/14/11 19/13/11 20/16/11
f 21/13/11 18/14/11 20/16/11
f 18/14/11 21/13/11 22/15/11
f 25/6/12 24/12/13 23/17/14
f 25/6/12 23/17/14 26/18/15
f 26/18/15 27/19/16 25/6/12
f 28/20/17 25/6/12 27/19/16
f 28/20/17 29/4/18 25/6/12
f 30/21/19 29/4/18 28/20/17
f 28/20/17 27/19/16 31/22/20
f 29/4/18 30/21/19 32/23/21
f 27/19/16 33/20/22 31/22/20
f 29/4/18 32/23/21 34/24/23
f 35/6/24 27/19/16 26/18/15
f 35/6/24 33/20/22 27/19/16
f 26/18/15 36/17/25 35/6/24
f 36/17/25 37/12/26 35/6/24
f 38/4/27 33/20/22 35/6/24
f 38/4/27 39/21/28 33/20/22
f 39/21/28 38/4/27 40/23/29
f 40/23/29 38/4/27 41/24/30
f 34/24/23 32/23/21 42/25/31
f 40/23/29 41/24/30 42/25/31
f 42/25/31 32/23/21 43/26/32
f 40/23/29 42/25/31 43/26/32
f 34/24/23 42/25/31 44/27/33
f 44/27/33 42/25/31 41/24/30
f 44/27/33 45/28/34 34/24/23
f 45/28/34 46/29/35 34/24/23
f 41/24/30 47/28/36 44/27/33
f 41/24/30 48/29/37 47/28/36
f 51/30/38 50/31/39 49/32/40
f 51/30/38 49/32/40 52/33/41
f 52/33/41 53/34/42 51/30/38
f 54/35/43 53/34/42 52/33/41
f 55/36/44 53/34/42 54/35/43
f 51/30/38 53/34/42 56/37/45
f 57/38/46 51/30/38 56/37/45
f 58/39/47 57/38/46 56/37/45
f 59/40/48 58/39/47 56/37/45
f 58/39/47 59/40/48 60/41/49
f 60/41/49 61/42/50 58/39/47
f 61/42/50 62/43/51 58/39/47
f 59/40/48 63/44/52 60/41/49
f 64/45/53 63/44/52 59/40/48
f 67/34/54 66/36/55 65/46/56
f 67/34/54 65/46/56 68/47/57
f 68/47/57 69/7/58 67/34/54
f 70/48/59 69/7/58 68/47/57
f 71/8/60 69/7/58 70/48/59
f 69/7/58 72/5/61 67/34/54
f 72/5/61 73/37/61 67/34/54
f 73/37/61 72/5/61 74/40/62
f 72/5/61 75/49/63 74/40/62
f 74/40/62 75/49/63 76/50/64
f 76/50/64 77/51/65 74/40/62
f 77/51/65 78/45/66 74/40/62
f 75/49/63 79/52/67 76/50/64
f 80/53/68 79/52/67 75/49/63
f 83/54/69 82/31/70 81/30/71
f 84/55/72 83/54/69 81/30/71
f 81/30/71 85/56/73 84/55/72
f 84/55/72 85/56/73 86/30/74
f 86/30/74 87/54/75 84/55/72
f 86/30/74 88/31/76 87/54/75
f 81/30/71 89/57/77 85/56/73
f 90/38/78 89/57/77 81/30/71
f 85/56/73 89/57/77 91/58/79
f 92/59/80 89/57/77 90/38/78
f 93/57/81 85/56/73 91/58/79
f 93/57/81 86/30/74 85/56/73
f 92/59/80 90/38/78 94/60/82
f 93/57/81 95/38/83 86/30/74
f 96/59/84 95/38/83 93/57/81
f 96/59/84 97/60/85 95/38/83
f 94/60/82 90/38/78 98/39/86
f 95/38/83 97/60/85 99/39/87
f 94/60/82 98/39/86 100/61/88
f 99/39/87 97/60/85 100/61/88
f 94/60/82 100/61/88 101/62/89
f 100/61/88 97/60/85 101/62/89
f 102/63/90 100/61/88 98/39/86
f 99/39/87 100/61/88 102/63/90
f 98/39/86 103/64/91 102/63/90
f 98/39/86 104/43/92 103/64/91
f 102/63/90 105/64/93 99/39/87
f 105/64/93 106/43/94 99/39/87
f 109/14/95 108/13/95 107/15/95
f 109/14/95 110/16/95 108/13/95
f 110/16/95 109/14/95 111/13/95
f 111/13/95 109/14/95 112/15/95
f 115/6/96 114/12/97 113/11/98
f 115/6/96 113/11/98 116/10/99
f 116/10/99 117/7/100 115/6/96
f 118/9/101 117/7/100 116/10/99
f 118/9/101 119/8/102 117/7/100
f 117/7/100 120/5/103 115/6/96
f 120/5/103 121/4/104 115/6/96
f 121/4/104 120/5/103 122/24/105
f 120/5/103 123/49/106 122/24/105
f 122/24/105 123/49/106 124/65/107
f 124/65/107 125/66/108 122/24/105
f 125/66/108 126/29/109 122/24/105
f 123/49/106 127/67/110 124/65/107
f 128/53/111 127/67/110 123/49/106
f 131/32/112 130/31/113 129/30/114
f 132/33/115 131/32/112 129/30/114
f 129/30/114 133/34/116 132/33/115
f 133/34/116 134/35/117 132/33/115
f 135/36/118 134/35/117 133/34/116
f 133/34/116 129/30/114 136/37/119
f 129/30/114 137/38/120 136/37/119
f 137/38/120 138/39/121 136/37/119
f 138/39/121 139/40/122 136/37/119
f 140/41/123 139/40/122 138/39/121
f 138/39/121 141/42/124 140/41/123
f 138/39/121 142/43/125 141/42/124
f 143/44/126 139/40/122 140/41/123
f 144/45/127 139/40/122 143/44/126
f 147/46/128 146/36/129 145/34/130
f 148/47/131 147/46/128 145/34/130
f 145/34/130 149/7/132 148/47/131
f 149/7/132 150/48/133 148/47/131
f 151/8/134 150/48/133 149/7/132
f 152/5/135 149/7/132 145/34/130
f 153/37/135 152/5/135 145/34/130
f 152/5/135 153/37/135 154/40/136
f 155/49/137 152/5/135 154/40/136
f 156/50/138 155/49/137 154/40/136
f 154/40/136 157/51/139 156/50/138
f 154/40/136 158/45/140 157/51/139
f 159/52/141 155/49/137 156/50/138
f 160/53/142 155/49/137 159/52/141
f 163/68/143 162/69/143 161/70/143
f 164/71/143 163/68/143 161/70/143
f 163/68/143 164/71/143 165/72/143
f 164/71/143 166/73/143 165/72/143
f 169/5/3 168/4/3 167/24/144
f 170/49/145 169/5/3 167/24/144
f 171/65/146 170/49/145 167/24/144
f 167/24/144 172/66/147 171/65/146
f 167/24/144 173/29/148 172/66/147
f 174/67/149 170/49/145 171/65/146
f 174/67/149 175/53/150 170/49/145
f 178/74/151 177/75/151 176/76/151
f 179/77/151 177/75/151 178/74/151
f 180/78/151 177/75/151 179/77/151
f 181/79/151 177/75/151 180/78/151
f 182/80/151 177/75/151 181/79/151
f 177/75/151 182/80/151 183/81/151
f 184/82/151 177/75/151 183/81/151
f 185/83/151 177/75/151 184/82/151
f 186/84/151 177/75/151 185/83/151
f 177/75/151 186/84/151 187/85/151
f 177/75/151 187/85/151 188/86/151
f 177/75/151 188/86/151 189/87/151
f 190/88/151 177/75/151 189/87/151
f 177/75/151 190/88/151 191/89/151
f 191/89/151 192/90/151 177/75/151
f 177/75/151 192/90/151 193/91/151
f 177/75/151 193/91/151 194/92/151
f 177/75/151 194/92/151 195/93/151
f 198/94/152 197/95/152 196/96/152
f 197/95/152 199/97/152 196/96/152
f 199/97/152 197/95/152 200/98/152
f 201/99/152 199/97/152 200/98/152
f 204/100/153 203/101/153 202/102/153
f 205/103/153 204/100/153 202/102/153
f 208/104/154 207/105/154 206/106/154
f 209/107/154 208/104/154 206/106/154
f 212/108/155 211/109/155 210/110/155
f 213/111/155 212/108/155 210/110/155
f 216/112/156 215/113/157 214/114/158
f 215/113/157 217/115/159 214/114/158
f 215/113/157 218/116/160 217/115/159
f 218/116/160 219/117/160 217/115/159
f 222/118/135 221/119/135 220/120/135
f 220/120/135 223/121/135 222/118/135
f 224/122/135 222/118/135 223/121/135
f 220/120/135 225/123/161 223/121/135
f 223/121/135 225/123/161 226/124/162
f 220/120/135 227/125/163 225/123/161
f 226/124/162 225/123/161 228/126/164
f 229/127/164 225/123/161 227/125/163
f 228/126/164 225/123/161 230/128/165
f 230/128/165 225/123/161 229/127/164
f 230/128/165 229/127/164 231/129/166
f 231/129/166 232/130/167 230/128/165
f 233/131/168 228/126/164 230/128/165
f 232/130/167 234/132/169 230/128/165
f 230/128/165 234/132/169 233/131/168
f 234/132/169 235/133/170 233/131/168
f 237/130/171 236/134/172 234/132/173
f 238/129/174 236/134/172 237/130/171
f 238/129/174 239/127/175 236/134/172
f 236/134/172 239/127/175 240/125/176
f 234/132/173 236/134/172 241/135/177
f 234/132/173 241/135/177 242/136/178
f 242/136/178 243/133/179 234/132/173
f 244/131/180 243/133/179 242/136/178
f 244/131/180 242/136/178 245/126/181
f 246/124/182 245/126/181 242/136/178
f 240/125/176 247/137/183 236/134/172
f 236/134/172 248/138/184 241/135/177
f 248/138/184 236/134/172 247/137/183
f 241/135/177 248/138/184 249/139/185
f 250/140/186 248/138/184 247/137/183
f 249/139/185 248/138/184 250/140/186
f 240/125/176 251/141/187 247/137/183
f 250/140/186 247/137/183 251/141/187
f 251/141/187 240/125/176 252/142/188
f 253/143/189 250/140/186 251/141/187
f 253/143/189 251/141/187 252/142/188
f 252/142/188 240/125/176 254/144/190
f 255/120/191 254/144/190 240/125/176
f 256/145/192 254/144/190 255/120/191
f 257/119/193 256/145/192 255/120/191
f 258/119/194 256/145/192 257/119/193
f 256/145/192 258/119/194 259/120/195
f 256/145/192 259/120/195 254/144/190
f 259/120/195 260/125/196 254/144/190
f 260/125/196 252/142/188 254/144/190
f 253/143/189 261/146/197 250/140/186
f 262/147/198 253/143/189 252/142/188
f 253/143/189 262/147/198 261/146/197
f 263/148/199 249/139/185 250/140/186
f 261/146/197 263/148/199 250/140/186
f 264/141/200 252/142/188 260/125/196
f 262/147/198 252/142/188 264/141/200
f 261/146/197 265/149/201 263/148/199
f 262/147/198 266/150/202 261/146/197
f 261/146/197 266/150/202 265/149/201
f 267/143/203 262/147/198 264/141/200
f 266/150/202 262/147/198 267/143/203
f 264/141/200 260/125/196 268/137/204
f 267/143/203 264/141/200 268/137/204
f 269/134/205 268/137/204 260/125/196
f 260/125/196 270/127/206 269/134/205
f 271/129/207 269/134/205 270/127/206
f 271/129/207 272/130/208 269/134/205
f 269/134/205 272/130/208 273/132/209
f 274/138/210 269/134/205 273/132/209
f 268/137/204 269/134/205 275/140/211
f 275/140/211 267/143/203 268/137/204
f 269/134/205 274/138/210 275/140/211
f 275/140/211 274/138/210 276/139/212
f 267/143/203 275/140/211 277/148/213
f 277/148/213 275/140/211 276/139/212
f 278/146/214 266/150/202 267/143/203
f 278/146/214 267/143/203 277/148/213
f 266/150/202 278/146/214 279/151/215
f 266/150/202 279/151/215 265/149/201
f 278/146/214 277/148/213 280/149/216
f 278/146/214 280/149/216 279/151/215
f 281/135/217 274/138/210 273/132/209
f 276/139/212 274/138/210 281/135/217
f 277/148/213 276/139/212 282/152/218
f 277/148/213 282/152/218 280/149/216
f 283/153/219 279/151/215 280/149/216
f 284/154/220 265/149/201 279/151/215
f 283/153/219 284/154/220 279/151/215
f 285/154/221 280/149/216 282/152/218
f 285/154/221 283/153/219 280/149/216
f 284/154/220 286/155/222 265/149/201
f 284/154/220 283/153/219 287/156/223
f 284/154/220 287/156/223 286/155/222
f 283/153/219 288/157/224 287/156/223
f 289/156/225 288/157/224 283/153/219
f 285/154/221 289/156/225 283/153/219
f 287/156/223 290/158/226 286/155/222
f 286/155/222 290/158/226 291/159/227
f 290/158/226 292/160/228 291/159/227
f 291/159/227 292/160/228 293/161/229
f 286/155/222 294/152/230 265/149/201
f 286/155/222 291/159/227 294/152/230
f 265/149/201 294/152/230 263/148/199
f 263/148/199 294/152/230 249/139/185
f 285/154/221 295/155/231 289/156/225
f 295/155/231 296/158/232 289/156/225
f 295/155/231 297/159/233 296/158/232
f 295/155/231 285/154/221 282/152/218
f 295/155/231 282/152/218 297/159/233
f 297/159/233 298/160/234 296/158/232
f 299/161/235 298/160/234 297/159/233
f 293/161/229 300/162/236 291/159/227
f 300/162/236 293/161/229 301/163/237
f 300/162/236 301/163/237 302/164/238
f 291/159/227 303/165/239 294/152/230
f 294/152/230 303/165/239 249/139/185
f 304/166/240 303/165/239 291/159/227
f 249/139/185 303/165/239 304/166/240
f 300/162/236 304/166/240 291/159/227
f 302/164/238 305/167/241 300/162/236
f 302/164/238 306/168/242 305/167/241
f 305/167/241 306/168/242 307/169/243
f 297/159/233 308/162/244 299/161/235
f 309/163/245 299/161/235 308/162/244
f 310/164/246 309/163/245 308/162/244
f 308/162/244 311/167/247 310/164/246
f 310/164/246 311/167/247 312/168/248
f 313/169/249 312/168/248 311/167/247
f 308/162/244 297/159/233 314/166/250
f 308/162/244 314/166/250 311/167/247
f 304/166/240 300/162/236 315/170/251
f 300/162/236 305/167/241 315/170/251
f 316/171/252 305/167/241 307/169/243
f 316/171/252 307/169/243 317/172/253
f 318/173/254 317/172/253 313/169/249
f 318/173/254 316/171/252 317/172/253
f 319/174/255 315/170/251 305/167/241
f 316/171/252 319/174/255 305/167/241
f 304/166/240 315/170/251 320/175/256
f 320/175/256 315/170/251 319/174/255
f 321/176/257 319/174/255 316/171/252
f 318/173/254 321/176/257 316/171/252
f 322/174/258 321/176/257 318/173/254
f 323/171/259 318/173/254 313/169/249
f 323/171/259 322/174/258 318/173/254
f 323/171/259 313/169/249 311/167/247
f 323/171/259 311/167/247 322/174/258
f 324/177/260 319/174/255 321/176/257
f 324/177/260 320/175/256 319/174/255
f 325/178/261 304/166/240 320/175/256
f 325/178/261 249/139/185 304/166/240
f 325/178/261 241/135/177 249/139/185
f 241/135/177 325/178/261 326/179/262
f 325/178/261 320/175/256 326/179/262
f 241/135/177 326/179/262 242/136/178
f 327/180/263 326/179/262 320/175/256
f 242/136/178 326/179/262 327/180/263
f 324/177/260 327/180/263 320/175/256
f 328/181/264 324/177/260 321/176/257
f 328/181/264 321/176/257 322/174/258
f 328/181/264 329/182/265 324/177/260
f 329/182/265 327/180/263 324/177/260
f 330/183/266 242/136/178 327/180/263
f 242/136/178 330/183/266 246/124/182
f 331/184/267 330/183/266 327/180/263
f 246/124/182 330/183/266 331/184/267
f 329/182/265 331/184/267 327/180/263
f 332/177/268 329/182/265 328/181/264
f 332/177/268 328/181/264 322/174/258
f 332/177/268 333/180/269 329/182/265
f 329/182/265 333/180/269 331/184/267
f 334/185/270 246/124/182 331/184/267
f 335/121/271 246/124/182 334/185/270
f 332/177/268 322/174/258 336/175/272
f 332/177/268 336/175/272 333/180/269
f 333/180/269 337/183/273 331/184/267
f 334/185/270 331/184/267 337/183/273
f 338/186/274 335/121/271 334/185/270
f 338/186/274 339/122/275 335/121/271
f 338/186/274 340/122/276 339/122/275
f 341/121/277 340/122/276 338/186/274
f 338/186/274 334/185/270 341/121/277
f 341/121/277 334/185/270 342/124/278
f 342/124/278 334/185/270 337/183/273
f 333/180/269 343/179/279 337/183/273
f 336/175/272 343/179/279 333/180/269
f 342/124/278 337/183/273 344/136/280
f 343/179/279 344/136/280 337/183/273
f 344/136/280 345/126/281 342/124/278
f 346/131/282 345/126/281 344/136/280
f 346/131/282 344/136/280 347/133/283
f 347/133/283 344/136/280 273/132/209
f 273/132/209 344/136/280 343/179/279
f 281/135/217 343/179/279 336/175/272
f 281/135/217 273/132/209 343/179/279
f 348/178/284 281/135/217 336/175/272
f 348/178/284 276/139/212 281/135/217
f 348/178/284 336/175/272 349/170/285
f 322/174/258 349/170/285 336/175/272
f 311/167/247 349/170/285 322/174/258
f 314/166/250 349/170/285 311/167/247
f 314/166/250 348/178/284 349/170/285
f 348/178/284 314/166/250 276/139/212
f 314/166/250 350/165/286 276/139/212
f 276/139/212 350/165/286 282/152/218
f 297/159/233 350/165/286 314/166/250
f 282/152/218 350/165/286 297/159/233
f 273/132/287 352/130/288 351/129/289
f 353/128/290 273/132/287 351/129/289
f 354/133/291 273/132/287 353/128/290
f 355/131/292 354/133/291 353/128/290
f 351/129/289 356/127/293 353/128/290
f 353/128/290 357/126/293 355/131/292
f 356/127/293 358/123/294 353/128/290
f 353/128/290 358/123/294 357/126/293
f 359/125/294 358/123/294 356/127/293
f 357/126/293 358/123/294 360/124/294
f 359/125/294 361/120/295 358/123/294
f 362/121/61 360/124/294 358/123/294
f 358/123/294 361/120/295 362/121/61
f 362/121/61 361/120/295 363/118/296
f 363/118/296 364/122/297 362/121/61
f 361/120/295 365/119/298 363/118/296
f 368/187/299 367/54/300 366/55/301
f 369/54/302 368/187/299 366/55/301
f 367/54/300 368/187/299 370/188/303
f 367/54/300 370/188/303 371/31/304
f 370/188/303 372/32/305 371/31/304
f 368/187/299 369/54/302 373/188/306
f 373/188/306 369/54/302 374/31/307
f 375/32/308 373/188/306 374/31/307
f 376/189/309 372/32/305 370/188/303
f 376/189/309 377/33/310 372/32/305
f 376/189/309 378/35/311 377/33/310
f 379/190/312 378/35/311 376/189/309
f 380/36/313 378/35/311 379/190/312
f 380/36/313 379/190/312 381/191/314
f 381/191/314 382/46/315 380/36/313
f 375/32/308 383/189/316 373/188/306
f 384/33/317 383/189/316 375/32/308
f 385/35/318 383/189/316 384/33/317
f 385/35/318 386/190/319 383/189/316
f 387/36/320 386/190/319 385/35/318
f 388/191/321 386/190/319 387/36/320
f 387/36/320 389/46/322 388/191/321
f 382/46/315 381/191/314 390/192/323
f 390/192/323 391/47/324 382/46/315
f 392/48/325 391/47/324 390/192/323
f 390/192/323 393/193/326 392/48/325
f 394/8/327 392/48/325 393/193/326
f 393/193/326 395/194/328 394/8/327
f 395/194/328 396/9/329 394/8/327
f 397/192/330 388/191/321 389/46/322
f 389/46/322 398/47/331 397/192/330
f 397/192/330 398/47/331 399/48/332
f 399/48/332 400/193/333 397/192/330
f 400/193/333 399/48/332 401/8/334
f 401/8/334 402/194/335 400/193/333
f 403/9/336 402/194/335 401/8/334
f 396/9/329 395/194/328 404/195/337
f 396/9/329 404/195/337 405/10/338
f 405/10/338 404/195/337 406/11/339
f 402/194/335 403/9/336 407/195/340
f 407/195/340 403/9/336 408/10/341
f 407/195/340 408/10/341 409/11/342
f 406/11/339 404/195/337 410/196/343
f 406/11/339 410/196/343 411/12/344
f 410/196/343 412/17/345 411/12/344
f 407/195/340 409/11/342 413/196/346
f 413/196/346 409/11/342 414/12/347
f 415/17/348 413/196/346 414/12/347
f 416/197/349 412/17/345 410/196/343
f 415/17/348 416/197/349 413/196/346
f 417/18/350 412/17/345 416/197/349
f 417/18/350 416/197/349 415/17/348
f 420/198/351 419/199/352 418/200/353
f 418/200/353 421/201/354 420/198/351
f 419/199/352 420/198/351 422/202/355
f 419/199/352 422/202/355 423/203/356
f 419/199/352 423/203/356 424/204/357
f 422/202/355 420/198/351 425/205/358
f 422/202/355 425/205/358 423/203/356
f 423/203/356 426/206/359 424/204/357
f 426/206/359 427/207/360 424/204/357
f 425/205/358 428/208/361 423/203/356
f 423/203/356 428/208/361 426/206/359
f 426/206/359 429/209/362 427/207/360
f 429/209/362 430/210/363 427/207/360
f 428/208/361 431/211/364 426/206/359
f 426/206/359 431/211/364 429/209/362
f 425/205/358 432/212/195 428/208/361
f 428/208/361 432/212/195 431/211/364
f 433/213/365 432/212/195 425/205/358
f 420/198/351 433/213/365 425/205/358
f 431/211/364 432/212/195 434/214/366
f 431/211/364 434/214/366 429/209/362
f 435/215/367 432/212/195 433/213/365
f 435/215/367 433/213/365 420/198/351
f 429/209/362 436/216/368 430/210/363
f 429/209/362 434/214/366 436/216/368
f 436/216/368 437/217/369 430/210/363
f 437/217/369 436/216/368 438/218/370
f 434/214/366 439/219/371 436/216/368
f 434/214/366 432/212/195 439/219/371
f 436/216/368 440/220/372 438/218/370
f 436/216/368 439/219/371 440/220/372
f 438/218/370 440/220/372 441/221/373
f 439/219/371 442/222/374 440/220/372
f 439/219/371 432/212/195 442/222/374
f 440/220/372 443/223/375 441/221/373
f 440/220/372 442/222/374 443/223/375
f 441/221/373 443/223/375 444/224/376
f 442/222/374 445/225/377 443/223/375
f 442/222/374 432/212/195 445/225/377
f 443/223/375 446/226/378 444/224/376
f 443/223/375 445/225/377 446/226/378
f 446/226/378 447/227/379 444/224/376
f 445/225/377 432/212/195 448/228/380
f 445/225/377 448/228/380 446/226/378
f 432/212/195 449/229/381 448/228/380
f 446/226/378 448/228/380 449/229/381
f 450/230/382 447/227/379 446/226/378
f 450/230/382 446/226/378 449/229/381
f 450/230/382 451/231/383 447/227/379
f 450/230/382 449/229/381 451/231/383
f 447/227/379 451/231/383 452/232/384
f 452/232/384 451/231/383 453/233/385
f 449/229/381 432/212/195 454/234/386
f 449/229/381 454/234/386 451/231/383
f 454/234/386 432/212/195 455/235/387
f 451/231/383 454/234/386 455/235/387
f 455/235/387 432/212/195 456/236/388
f 453/233/385 451/231/383 457/237/389
f 457/237/389 451/231/383 455/235/387
f 453/233/385 457/237/389 458/238/390
f 457/237/389 455/235/387 458/238/390
f 455/235/387 456/236/388 458/238/390
f 453/233/385 458/238/390 459/239/391
f 459/239/391 458/238/390 460/240/392
f 458/238/390 461/241/393 460/240/392
f 458/238/390 456/236/388 461/241/393
f 460/240/392 461/241/393 462/242/394
f 456/236/388 463/243/395 461/241/393
f 456/236/388 432/212/195 463/243/395
f 461/241/393 464/244/396 462/242/394
f 461/241/393 463/243/395 464/244/396
f 462/242/394 464/244/396 465/245/397
f 463/243/395 466/246/398 464/244/396
f 463/243/395 432/212/195 466/246/398
f 464/244/396 467/247/399 465/245/397
f 464/244/396 466/246/398 467/247/399
f 467/247/399 468/248/400 465/245/397
f 468/248/400 469/249/401 465/245/397
f 466/246/398 470/250/402 467/247/399
f 466/246/398 432/212/195 470/250/402
f 467/247/399 470/250/402 468/248/400
f 468/248/400 471/251/403 469/249/401
f 471/251/403 472/252/404 469/249/401
f 471/251/403 473/253/405 472/252/404
f 473/253/405 474/254/406 472/252/404
f 473/253/405 421/201/354 474/254/406
f 470/250/402 475/255/407 468/248/400
f 468/248/400 475/255/407 471/251/403
f 470/250/402 432/212/195 475/255/407
f 475/255/407 476/256/408 471/251/403
f 475/255/407 432/212/195 476/256/408
f 471/251/403 476/256/408 473/253/405
f 476/256/408 432/212/195 477/257/409
f 476/256/408 477/257/409 473/253/405
f 432/212/195 435/215/367 477/257/409
f 473/253/405 477/257/409 435/215/367
f 478/258/410 421/201/354 473/253/405
f 478/258/410 473/253/405 435/215/367
f 478/258/410 420/198/351 421/201/354
f 478/258/410 435/215/367 420/198/351
f 481/64/411 480/259/412 479/63/413
f 480/259/412 482/64/414 479/63/413
f 480/259/412 481/64/411 483/260/415
f 483/260/415 481/64/411 484/43/416
f 485/42/417 483/260/415 484/43/416
f 482/64/414 480/259/412 486/260/418
f 482/64/414 486/260/418 487/43/419
f 486/260/418 488/42/420 487/43/419
f 485/42/417 489/261/421 483/260/415
f 490/41/422 489/261/421 485/42/417
f 491/44/423 489/261/421 490/41/422
f 491/44/423 492/262/424 489/261/421
f 493/45/425 492/262/424 491/44/423
f 494/263/426 492/262/424 493/45/425
f 493/45/425 495/51/427 494/263/426
f 496/261/428 488/42/420 486/260/418
f 497/41/429 488/42/420 496/261/428
f 496/261/428 498/44/430 497/41/429
f 499/262/431 498/44/430 496/261/428
f 500/45/432 498/44/430 499/262/431
f 500/45/432 499/262/431 501/263/433
f 501/263/433 502/51/434 500/45/432
f 503/264/435 494/263/426 495/51/427
f 495/51/427 504/50/436 503/264/435
f 503/264/435 504/50/436 505/52/437
f 505/52/437 506/265/438 503/264/435
f 506/265/438 505/52/437 507/53/439
f 507/53/439 508/266/440 506/265/438
f 509/67/441 508/266/440 507/53/439
f 502/51/434 501/263/433 510/264/442
f 510/264/442 511/50/443 502/51/434
f 512/52/444 511/50/443 510/264/442
f 510/264/442 513/265/445 512/52/444
f 514/53/446 512/52/444 513/265/445
f 513/265/445 515/266/447 514/53/446
f 515/266/447 516/67/448 514/53/446
f 508/266/440 509/67/441 517/267/449
f 517/267/449 509/67/441 518/65/450
f 518/65/450 519/66/451 517/267/449
f 516/67/448 515/266/447 520/267/452
f 516/67/448 520/267/452 521/65/453
f 520/267/452 522/66/454 521/65/453
f 517/267/449 519/66/451 523/268/455
f 523/268/455 519/66/451 524/29/456
f 525/28/457 523/268/455 524/29/456
f 522/66/454 520/267/452 526/268/458
f 522/66/454 526/268/458 527/29/459
f 526/268/458 528/28/460 527/29/459
f 525/28/457 529/269/461 523/268/455
f 529/269/461 528/28/460 526/268/458
f 530/27/462 529/269/461 525/28/457
f 530/27/462 528/28/460 529/269/461
f 533/270/463 532/271/464 531/272/465
f 533/270/463 531/272/465 534/273/466
f 535/274/467 531/272/465 532/271/464
f 536/275/468 534/273/466 531/272/465
f 531/272/465 535/274/467 537/276/469
f 538/277/470 536/275/468 531/272/465
f 539/278/471 531/272/465 537/276/469
f 538/277/470 531/272/465 540/275/472
f 541/279/473 531/272/465 539/278/471
f 540/275/472 531/272/465 542/273/474
f 531/272/465 541/279/473 543/280/475
f 544/270/476 542/273/474 531/272/465
f 545/279/477 531/272/465 543/280/475
f 544/270/476 531/272/465 546/271/478
f 545/279/477 547/278/479 531/272/465
f 546/271/478 531/272/465 548/274/480
f 547/278/479 549/276/481 531/272/465
f 548/274/480 531/272/465 549/276/481
f 552/277/482 551/275/483 550/281/484
f 552/277/482 550/281/484 553/275/485
f 551/275/483 554/282/486 550/281/484
f 551/275/483 555/273/487 554/282/486
f 550/281/484 556/282/488 553/275/485
f 553/275/485 556/282/488 557/273/489
f 555/273/487 558/283/490 554/282/486
f 558/283/490 555/273/487 559/270/491
f 550/281/484 554/282/486 560/169/492
f 561/172/493 550/281/484 560/169/492
f 556/282/488 550/281/484 561/172/493
f 560/169/492 554/282/486 562/168/494
f 554/282/486 558/283/490 562/168/494
f 563/169/495 556/282/488 561/172/493
f 562/168/494 558/283/490 564/284/496
f 564/284/496 558/283/490 559/270/491
f 565/164/497 562/168/494 564/284/496
f 565/164/497 564/284/496 566/163/498
f 567/283/499 556/282/488 563/169/495
f 556/282/488 567/283/499 557/273/489
f 568/168/500 567/283/499 563/169/495
f 564/284/496 559/270/491 569/285/501
f 564/284/496 569/285/501 566/163/498
f 559/270/491 570/271/502 569/285/501
f 570/271/502 571/274/503 569/285/501
f 557/273/489 567/283/499 572/284/504
f 572/284/504 567/283/499 568/168/500
f 573/164/505 572/284/504 568/168/500
f 574/270/506 557/273/489 572/284/504
f 573/164/505 575/163/507 572/284/504
f 566/163/498 569/285/501 576/286/508
f 571/274/503 576/286/508 569/285/501
f 577/161/509 566/163/498 576/286/508
f 577/161/509 576/286/508 578/160/510
f 571/274/503 579/276/511 576/286/508
f 574/270/506 572/284/504 580/285/512
f 575/163/507 580/285/512 572/284/504
f 581/271/513 574/270/506 580/285/512
f 582/274/514 581/271/513 580/285/512
f 576/286/508 583/287/515 578/160/510
f 579/276/511 583/287/515 576/286/508
f 578/160/510 583/287/515 584/158/516
f 585/286/517 580/285/512 575/163/507
f 585/286/517 582/274/514 580/285/512
f 586/161/518 585/286/517 575/163/507
f 586/161/518 587/160/519 585/286/517
f 588/288/520 583/287/515 579/276/511
f 583/287/515 588/288/520 584/158/516
f 584/158/516 588/288/520 589/289/521
f 590/278/522 588/288/520 579/276/511
f 589/289/521 588/288/520 590/278/522
f 591/156/523 584/158/516 589/289/521
f 592/279/524 589/289/521 590/278/522
f 592/279/524 593/280/525 589/289/521
f 591/156/523 589/289/521 594/157/526
f 585/286/517 595/287/527 582/274/514
f 587/160/519 595/287/527 585/286/517
f 595/287/527 596/276/528 582/274/514
f 593/280/525 597/290/529 589/289/521
f 589/289/521 597/290/529 594/157/526
f 593/280/525 598/279/530 597/290/529
f 599/288/531 595/287/527 587/160/519
f 596/276/528 595/287/527 599/288/531
f 600/158/532 599/288/531 587/160/519
f 601/278/533 596/276/528 599/288/531
f 594/157/526 597/290/529 602/289/534
f 598/279/530 602/289/534 597/290/529
f 598/279/530 601/278/533 602/289/534
f 601/278/533 599/288/531 602/289/534
f 602/289/534 599/288/531 600/158/532
f 603/156/535 594/157/526 602/289/534
f 603/156/535 602/289/534 600/158/532
