# Sphere OBJ
v 0.000000 0.000000 1.000000
vt 1.000000 1.000000
vn 0.000000 0.000000 1.000000
v 0.000000 0.000000 1.000000
vt 0.968750 1.000000
vn 0.000000 0.000000 1.000000
v 0.000000 0.000000 1.000000
vt 0.937500 1.000000
vn 0.000000 0.000000 1.000000
v 0.000000 0.000000 1.000000
vt 0.906250 1.000000
vn 0.000000 0.000000 1.000000
v 0.000000 0.000000 1.000000
vt 0.875000 1.000000
vn 0.000000 0.000000 1.000000
v 0.000000 0.000000 1.000000
vt 0.843750 1.000000
vn 0.000000 0.000000 1.000000
v 0.000000 0.000000 1.000000
vt 0.812500 1.000000
vn 0.000000 0.000000 1.000000
v 0.000000 0.000000 1.000000
vt 0.781250 1.000000
vn 0.000000 0.000000 1.000000
v 0.000000 0.000000 1.000000
vt 0.750000 1.000000
vn 0.000000 0.000000 1.000000
v 0.000000 0.000000 1.000000
vt 0.718750 1.000000
vn 0.000000 0.000000 1.000000
v 0.000000 0.000000 1.000000
vt 0.687500 1.000000
vn 0.000000 0.000000 1.000000
v 0.000000 0.000000 1.000000
vt 0.656250 1.000000
vn 0.000000 0.000000 1.000000
v 0.000000 0.000000 1.000000
vt 0.625000 1.000000
vn 0.000000 0.000000 1.000000
v 0.000000 0.000000 1.000000
vt 0.593750 1.000000
vn 0.000000 0.000000 1.000000
v 0.000000 0.000000 1.000000
vt 0.562500 1.000000
vn 0.000000 0.000000 1.000000
v 0.000000 0.000000 1.000000
vt 0.531250 1.000000
vn 0.000000 0.000000 1.000000
v 0.000000 0.000000 1.000000
vt 0.500000 1.000000
vn 0.000000 0.000000 1.000000
v 0.000000 0.000000 1.000000
vt 0.468750 1.000000
vn 0.000000 0.000000 1.000000
v 0.000000 0.000000 1.000000
vt 0.437500 1.000000
vn 0.000000 0.000000 1.000000
v 0.000000 0.000000 1.000000
vt 0.406250 1.000000
vn 0.000000 0.000000 1.000000
v 0.000000 0.000000 1.000000
vt 0.375000 1.000000
vn 0.000000 0.000000 1.000000
v 0.000000 0.000000 1.000000
vt 0.343750 1.000000
vn 0.000000 0.000000 1.000000
v 0.000000 0.000000 1.000000
vt 0.312500 1.000000
vn 0.000000 0.000000 1.000000
v 0.000000 0.000000 1.000000
vt 0.281250 1.000000
vn 0.000000 0.000000 1.000000
v 0.000000 0.000000 1.000000
vt 0.250000 1.000000
vn 0.000000 0.000000 1.000000
v 0.000000 0.000000 1.000000
vt 0.218750 1.000000
vn 0.000000 0.000000 1.000000
v 0.000000 0.000000 1.000000
vt 0.187500 1.000000
vn 0.000000 0.000000 1.000000
v 0.000000 0.000000 1.000000
vt 0.156250 1.000000
vn 0.000000 0.000000 1.000000
v 0.000000 0.000000 1.000000
vt 0.125000 1.000000
vn 0.000000 0.000000 1.000000
v 0.000000 0.000000 1.000000
vt 0.093750 1.000000
vn 0.000000 0.000000 1.000000
v 0.000000 0.000000 1.000000
vt 0.062500 1.000000
vn 0.000000 0.000000 1.000000
v 0.000000 0.000000 1.000000
vt 0.031250 1.000000
vn 0.000000 0.000000 1.000000
v 0.000000 0.000000 1.000000
vt 0.000000 1.000000
vn 0.000000 0.000000 1.000000
v 0.195090 0.000000 0.980785
vt 1.000000 0.937500
vn 0.195090 0.000000 0.980785
v 0.191342 0.038060 0.980785
vt 0.968750 0.937500
vn 0.191342 0.038060 0.980785
v 0.180240 0.074658 0.980785
vt 0.937500 0.937500
vn 0.180240 0.074658 0.980785
v 0.162212 0.108386 0.980785
vt 0.906250 0.937500
vn 0.162212 0.108386 0.980785
v 0.137950 0.137950 0.980785
vt 0.875000 0.937500
vn 0.137950 0.137950 0.980785
v 0.108386 0.162212 0.980785
vt 0.843750 0.937500
vn 0.108386 0.162212 0.980785
v 0.074658 0.180240 0.980785
vt 0.812500 0.937500
vn 0.074658 0.180240 0.980785
v 0.038060 0.191342 0.980785
vt 0.781250 0.937500
vn 0.038060 0.191342 0.980785
v 0.000000 0.195090 0.980785
vt 0.750000 0.937500
vn 0.000000 0.195090 0.980785
v -0.038060 0.191342 0.980785
vt 0.718750 0.937500
vn -0.038060 0.191342 0.980785
v -0.074658 0.180240 0.980785
vt 0.687500 0.937500
vn -0.074658 0.180240 0.980785
v -0.108386 0.162212 0.980785
vt 0.656250 0.937500
vn -0.108386 0.162212 0.980785
v -0.137950 0.137950 0.980785
vt 0.625000 0.937500
vn -0.137950 0.137950 0.980785
v -0.162212 0.108386 0.980785
vt 0.593750 0.937500
vn -0.162212 0.108386 0.980785
v -0.180240 0.074658 0.980785
vt 0.562500 0.937500
vn -0.180240 0.074658 0.980785
v -0.191342 0.038060 0.980785
vt 0.531250 0.937500
vn -0.191342 0.038060 0.980785
v -0.195090 0.000000 0.980785
vt 0.500000 0.937500
vn -0.195090 0.000000 0.980785
v -0.191342 -0.038060 0.980785
vt 0.468750 0.937500
vn -0.191342 -0.038060 0.980785
v -0.180240 -0.074658 0.980785
vt 0.437500 0.937500
vn -0.180240 -0.074658 0.980785
v -0.162212 -0.108386 0.980785
vt 0.406250 0.937500
vn -0.162212 -0.108386 0.980785
v -0.137950 -0.137950 0.980785
vt 0.375000 0.937500
vn -0.137950 -0.137950 0.980785
v -0.108386 -0.162212 0.980785
vt 0.343750 0.937500
vn -0.108386 -0.162212 0.980785
v -0.074658 -0.180240 0.980785
vt 0.312500 0.937500
vn -0.074658 -0.180240 0.980785
v -0.038060 -0.191342 0.980785
vt 0.281250 0.937500
vn -0.038060 -0.191342 0.980785
v 0.000000 -0.195090 0.980785
vt 0.250000 0.937500
vn 0.000000 -0.195090 0.980785
v 0.038060 -0.191342 0.980785
vt 0.218750 0.937500
vn 0.038060 -0.191342 0.980785
v 0.074658 -0.180240 0.980785
vt 0.187500 0.937500
vn 0.074658 -0.180240 0.980785
v 0.108386 -0.162212 0.980785
vt 0.156250 0.937500
vn 0.108386 -0.162212 0.980785
v 0.137950 -0.137950 0.980785
vt 0.125000 0.937500
vn 0.137950 -0.137950 0.980785
v 0.162212 -0.108386 0.980785
vt 0.093750 0.937500
vn 0.162212 -0.108386 0.980785
v 0.180240 -0.074658 0.980785
vt 0.062500 0.937500
vn 0.180240 -0.074658 0.980785
v 0.191342 -0.038060 0.980785
vt 0.031250 0.937500
vn 0.191342 -0.038060 0.980785
v 0.195090 0.000000 0.980785
vt 0.000000 0.937500
vn 0.195090 0.000000 0.980785
v 0.382684 0.000000 0.923880
vt 1.000000 0.875000
vn 0.382684 0.000000 0.923880
v 0.375330 0.074658 0.923880
vt 0.968750 0.875000
vn 0.375330 0.074658 0.923880
v 0.353553 0.146447 0.923880
vt 0.937500 0.875000
vn 0.353553 0.146447 0.923880
v 0.318190 0.212608 0.923880
vt 0.906250 0.875000
vn 0.318190 0.212608 0.923880
v 0.270598 0.270598 0.923880
vt 0.875000 0.875000
vn 0.270598 0.270598 0.923880
v 0.212608 0.318190 0.923880
vt 0.843750 0.875000
vn 0.212608 0.318190 0.923880
v 0.146447 0.353553 0.923880
vt 0.812500 0.875000
vn 0.146447 0.353553 0.923880
v 0.074658 0.375330 0.923880
vt 0.781250 0.875000
vn 0.074658 0.375330 0.923880
v 0.000000 0.382684 0.923880
vt 0.750000 0.875000
vn 0.000000 0.382684 0.923880
v -0.074658 0.375330 0.923880
vt 0.718750 0.875000
vn -0.074658 0.375330 0.923880
v -0.146447 0.353553 0.923880
vt 0.687500 0.875000
vn -0.146447 0.353553 0.923880
v -0.212608 0.318190 0.923880
vt 0.656250 0.875000
vn -0.212608 0.318190 0.923880
v -0.270598 0.270598 0.923880
vt 0.625000 0.875000
vn -0.270598 0.270598 0.923880
v -0.318190 0.212608 0.923880
vt 0.593750 0.875000
vn -0.318190 0.212608 0.923880
v -0.353553 0.146447 0.923880
vt 0.562500 0.875000
vn -0.353553 0.146447 0.923880
v -0.375330 0.074658 0.923880
vt 0.531250 0.875000
vn -0.375330 0.074658 0.923880
v -0.382684 0.000000 0.923880
vt 0.500000 0.875000
vn -0.382684 0.000000 0.923880
v -0.375330 -0.074658 0.923880
vt 0.468750 0.875000
vn -0.375330 -0.074658 0.923880
v -0.353553 -0.146447 0.923880
vt 0.437500 0.875000
vn -0.353553 -0.146447 0.923880
v -0.318190 -0.212608 0.923880
vt 0.406250 0.875000
vn -0.318190 -0.212608 0.923880
v -0.270598 -0.270598 0.923880
vt 0.375000 0.875000
vn -0.270598 -0.270598 0.923880
v -0.212607 -0.318190 0.923880
vt 0.343750 0.875000
vn -0.212607 -0.318190 0.923880
v -0.146447 -0.353554 0.923880
vt 0.312500 0.875000
vn -0.146447 -0.353554 0.923880
v -0.074658 -0.375330 0.923880
vt 0.281250 0.875000
vn -0.074658 -0.375330 0.923880
v 0.000000 -0.382684 0.923880
vt 0.250000 0.875000
vn 0.000000 -0.382684 0.923880
v 0.074658 -0.375330 0.923880
vt 0.218750 0.875000
vn 0.074658 -0.375330 0.923880
v 0.146447 -0.353553 0.923880
vt 0.187500 0.875000
vn 0.146447 -0.353553 0.923880
v 0.212608 -0.318190 0.923880
vt 0.156250 0.875000
vn 0.212608 -0.318190 0.923880
v 0.270598 -0.270598 0.923880
vt 0.125000 0.875000
vn 0.270598 -0.270598 0.923880
v 0.318190 -0.212608 0.923880
vt 0.093750 0.875000
vn 0.318190 -0.212608 0.923880
v 0.353553 -0.146447 0.923880
vt 0.062500 0.875000
vn 0.353553 -0.146447 0.923880
v 0.375330 -0.074658 0.923880
vt 0.031250 0.875000
vn 0.375330 -0.074658 0.923880
v 0.382684 0.000000 0.923880
vt 0.000000 0.875000
vn 0.382684 0.000000 0.923880
v 0.555570 0.000000 0.831470
vt 1.000000 0.812500
vn 0.555570 0.000000 0.831470
v 0.544895 0.108386 0.831470
vt 0.968750 0.812500
vn 0.544895 0.108386 0.831470
v 0.513280 0.212608 0.831470
vt 0.937500 0.812500
vn 0.513280 0.212608 0.831470
v 0.461940 0.308658 0.831470
vt 0.906250 0.812500
vn 0.461940 0.308658 0.831470
v 0.392848 0.392848 0.831470
vt 0.875000 0.812500
vn 0.392848 0.392848 0.831470
v 0.308658 0.461940 0.831470
vt 0.843750 0.812500
vn 0.308658 0.461940 0.831470
v 0.212608 0.513280 0.831470
vt 0.812500 0.812500
vn 0.212608 0.513280 0.831470
v 0.108386 0.544895 0.831470
vt 0.781250 0.812500
vn 0.108386 0.544895 0.831470
v 0.000000 0.555570 0.831470
vt 0.750000 0.812500
vn 0.000000 0.555570 0.831470
v -0.108386 0.544895 0.831470
vt 0.718750 0.812500
vn -0.108386 0.544895 0.831470
v -0.212608 0.513280 0.831470
vt 0.687500 0.812500
vn -0.212608 0.513280 0.831470
v -0.308658 0.461940 0.831470
vt 0.656250 0.812500
vn -0.308658 0.461940 0.831470
v -0.392848 0.392848 0.831470
vt 0.625000 0.812500
vn -0.392848 0.392848 0.831470
v -0.461940 0.308658 0.831470
vt 0.593750 0.812500
vn -0.461940 0.308658 0.831470
v -0.513280 0.212607 0.831470
vt 0.562500 0.812500
vn -0.513280 0.212607 0.831470
v -0.544895 0.108386 0.831470
vt 0.531250 0.812500
vn -0.544895 0.108386 0.831470
v -0.555570 0.000000 0.831470
vt 0.500000 0.812500
vn -0.555570 0.000000 0.831470
v -0.544895 -0.108387 0.831470
vt 0.468750 0.812500
vn -0.544895 -0.108387 0.831470
v -0.513280 -0.212608 0.831470
vt 0.437500 0.812500
vn -0.513280 -0.212608 0.831470
v -0.461940 -0.308658 0.831470
vt 0.406250 0.812500
vn -0.461940 -0.308658 0.831470
v -0.392847 -0.392848 0.831470
vt 0.375000 0.812500
vn -0.392847 -0.392848 0.831470
v -0.308658 -0.461940 0.831470
vt 0.343750 0.812500
vn -0.308658 -0.461940 0.831470
v -0.212607 -0.513280 0.831470
vt 0.312500 0.812500
vn -0.212607 -0.513280 0.831470
v -0.108386 -0.544895 0.831470
vt 0.281250 0.812500
vn -0.108386 -0.544895 0.831470
v 0.000000 -0.555570 0.831470
vt 0.250000 0.812500
vn 0.000000 -0.555570 0.831470
v 0.108386 -0.544895 0.831470
vt 0.218750 0.812500
vn 0.108386 -0.544895 0.831470
v 0.212608 -0.513280 0.831470
vt 0.187500 0.812500
vn 0.212608 -0.513280 0.831470
v 0.308658 -0.461940 0.831470
vt 0.156250 0.812500
vn 0.308658 -0.461940 0.831470
v 0.392848 -0.392847 0.831470
vt 0.125000 0.812500
vn 0.392848 -0.392847 0.831470
v 0.461940 -0.308658 0.831470
vt 0.093750 0.812500
vn 0.461940 -0.308658 0.831470
v 0.513280 -0.212608 0.831470
vt 0.062500 0.812500
vn 0.513280 -0.212608 0.831470
v 0.544895 -0.108386 0.831470
vt 0.031250 0.812500
vn 0.544895 -0.108386 0.831470
v 0.555570 0.000000 0.831470
vt 0.000000 0.812500
vn 0.555570 0.000000 0.831470
v 0.707107 0.000000 0.707107
vt 1.000000 0.750000
vn 0.707107 0.000000 0.707107
v 0.693520 0.137950 0.707107
vt 0.968750 0.750000
vn 0.693520 0.137950 0.707107
v 0.653282 0.270598 0.707107
vt 0.937500 0.750000
vn 0.653282 0.270598 0.707107
v 0.587938 0.392848 0.707107
vt 0.906250 0.750000
vn 0.587938 0.392848 0.707107
v 0.500000 0.500000 0.707107
vt 0.875000 0.750000
vn 0.500000 0.500000 0.707107
v 0.392847 0.587938 0.707107
vt 0.843750 0.750000
vn 0.392847 0.587938 0.707107
v 0.270598 0.653282 0.707107
vt 0.812500 0.750000
vn 0.270598 0.653282 0.707107
v 0.137950 0.693520 0.707107
vt 0.781250 0.750000
vn 0.137950 0.693520 0.707107
v 0.000000 0.707107 0.707107
vt 0.750000 0.750000
vn 0.000000 0.707107 0.707107
v -0.137950 0.693520 0.707107
vt 0.718750 0.750000
vn -0.137950 0.693520 0.707107
v -0.270598 0.653282 0.707107
vt 0.687500 0.750000
vn -0.270598 0.653282 0.707107
v -0.392848 0.587938 0.707107
vt 0.656250 0.750000
vn -0.392848 0.587938 0.707107
v -0.500000 0.500000 0.707107
vt 0.625000 0.750000
vn -0.500000 0.500000 0.707107
v -0.587938 0.392847 0.707107
vt 0.593750 0.750000
vn -0.587938 0.392847 0.707107
v -0.653282 0.270598 0.707107
vt 0.562500 0.750000
vn -0.653282 0.270598 0.707107
v -0.693520 0.137950 0.707107
vt 0.531250 0.750000
vn -0.693520 0.137950 0.707107
v -0.707107 0.000000 0.707107
vt 0.500000 0.750000
vn -0.707107 0.000000 0.707107
v -0.693520 -0.137950 0.707107
vt 0.468750 0.750000
vn -0.693520 -0.137950 0.707107
v -0.653282 -0.270598 0.707107
vt 0.437500 0.750000
vn -0.653282 -0.270598 0.707107
v -0.587938 -0.392848 0.707107
vt 0.406250 0.750000
vn -0.587938 -0.392848 0.707107
v -0.500000 -0.500000 0.707107
vt 0.375000 0.750000
vn -0.500000 -0.500000 0.707107
v -0.392847 -0.587938 0.707107
vt 0.343750 0.750000
vn -0.392847 -0.587938 0.707107
v -0.270598 -0.653282 0.707107
vt 0.312500 0.750000
vn -0.270598 -0.653282 0.707107
v -0.137950 -0.693520 0.707107
vt 0.281250 0.750000
vn -0.137950 -0.693520 0.707107
v 0.000000 -0.707107 0.707107
vt 0.250000 0.750000
vn 0.000000 -0.707107 0.707107
v 0.137950 -0.693520 0.707107
vt 0.218750 0.750000
vn 0.137950 -0.693520 0.707107
v 0.270598 -0.653281 0.707107
vt 0.187500 0.750000
vn 0.270598 -0.653282 0.707107
v 0.392848 -0.587938 0.707107
vt 0.156250 0.750000
vn 0.392848 -0.587938 0.707107
v 0.500000 -0.500000 0.707107
vt 0.125000 0.750000
vn 0.500000 -0.500000 0.707107
v 0.587938 -0.392848 0.707107
vt 0.093750 0.750000
vn 0.587938 -0.392848 0.707107
v 0.653282 -0.270598 0.707107
vt 0.062500 0.750000
vn 0.653282 -0.270598 0.707107
v 0.693520 -0.137950 0.707107
vt 0.031250 0.750000
vn 0.693520 -0.137950 0.707107
v 0.707107 0.000000 0.707107
vt 0.000000 0.750000
vn 0.707107 0.000000 0.707107
v 0.831470 0.000000 0.555570
vt 1.000000 0.687500
vn 0.831470 0.000000 0.555570
v 0.815493 0.162212 0.555570
vt 0.968750 0.687500
vn 0.815493 0.162212 0.555570
v 0.768178 0.318190 0.555570
vt 0.937500 0.687500
vn 0.768178 0.318190 0.555570
v 0.691342 0.461940 0.555570
vt 0.906250 0.687500
vn 0.691342 0.461940 0.555570
v 0.587938 0.587938 0.555570
vt 0.875000 0.687500
vn 0.587938 0.587938 0.555570
v 0.461940 0.691342 0.555570
vt 0.843750 0.687500
vn 0.461940 0.691342 0.555570
v 0.318190 0.768178 0.555570
vt 0.812500 0.687500
vn 0.318190 0.768178 0.555570
v 0.162212 0.815493 0.555570
vt 0.781250 0.687500
vn 0.162212 0.815493 0.555570
v 0.000000 0.831470 0.555570
vt 0.750000 0.687500
vn 0.000000 0.831470 0.555570
v -0.162212 0.815493 0.555570
vt 0.718750 0.687500
vn -0.162212 0.815493 0.555570
v -0.318190 0.768178 0.555570
vt 0.687500 0.687500
vn -0.318190 0.768178 0.555570
v -0.461940 0.691342 0.555570
vt 0.656250 0.687500
vn -0.461940 0.691342 0.555570
v -0.587938 0.587938 0.555570
vt 0.625000 0.687500
vn -0.587938 0.587938 0.555570
v -0.691342 0.461940 0.555570
vt 0.593750 0.687500
vn -0.691342 0.461940 0.555570
v -0.768178 0.318190 0.555570
vt 0.562500 0.687500
vn -0.768178 0.318190 0.555570
v -0.815493 0.162212 0.555570
vt 0.531250 0.687500
vn -0.815493 0.162212 0.555570
v -0.831470 0.000000 0.555570
vt 0.500000 0.687500
vn -0.831470 0.000000 0.555570
v -0.815493 -0.162212 0.555570
vt 0.468750 0.687500
vn -0.815493 -0.162212 0.555570
v -0.768178 -0.318190 0.555570
vt 0.437500 0.687500
vn -0.768178 -0.318190 0.555570
v -0.691342 -0.461940 0.555570
vt 0.406250 0.687500
vn -0.691342 -0.461940 0.555570
v -0.587938 -0.587938 0.555570
vt 0.375000 0.687500
vn -0.587938 -0.587938 0.555570
v -0.461940 -0.691342 0.555570
vt 0.343750 0.687500
vn -0.461940 -0.691342 0.555570
v -0.318189 -0.768178 0.555570
vt 0.312500 0.687500
vn -0.318189 -0.768178 0.555570
v -0.162212 -0.815493 0.555570
vt 0.281250 0.687500
vn -0.162212 -0.815493 0.555570
v 0.000000 -0.831470 0.555570
vt 0.250000 0.687500
vn 0.000000 -0.831470 0.555570
v 0.162212 -0.815493 0.555570
vt 0.218750 0.687500
vn 0.162212 -0.815493 0.555570
v 0.318190 -0.768178 0.555570
vt 0.187500 0.687500
vn 0.318190 -0.768178 0.555570
v 0.461940 -0.691342 0.555570
vt 0.156250 0.687500
vn 0.461940 -0.691342 0.555570
v 0.587938 -0.587938 0.555570
vt 0.125000 0.687500
vn 0.587938 -0.587938 0.555570
v 0.691342 -0.461940 0.555570
vt 0.093750 0.687500
vn 0.691342 -0.461940 0.555570
v 0.768178 -0.318190 0.555570
vt 0.062500 0.687500
vn 0.768178 -0.318190 0.555570
v 0.815493 -0.162212 0.555570
vt 0.031250 0.687500
vn 0.815493 -0.162212 0.555570
v 0.831470 0.000000 0.555570
vt 0.000000 0.687500
vn 0.831470 0.000000 0.555570
v 0.923880 0.000000 0.382683
vt 1.000000 0.625000
vn 0.923880 0.000000 0.382684
v 0.906127 0.180240 0.382683
vt 0.968750 0.625000
vn 0.906128 0.180240 0.382684
v 0.853553 0.353553 0.382683
vt 0.937500 0.625000
vn 0.853553 0.353553 0.382684
v 0.768178 0.513280 0.382683
vt 0.906250 0.625000
vn 0.768178 0.513280 0.382684
v 0.653282 0.653282 0.382683
vt 0.875000 0.625000
vn 0.653282 0.653282 0.382684
v 0.513280 0.768178 0.382683
vt 0.843750 0.625000
vn 0.513280 0.768178 0.382684
v 0.353553 0.853553 0.382683
vt 0.812500 0.625000
vn 0.353553 0.853553 0.382684
v 0.180240 0.906128 0.382683
vt 0.781250 0.625000
vn 0.180240 0.906128 0.382683
v 0.000000 0.923880 0.382683
vt 0.750000 0.625000
vn 0.000000 0.923880 0.382684
v -0.180240 0.906127 0.382683
vt 0.718750 0.625000
vn -0.180240 0.906128 0.382684
v -0.353553 0.853553 0.382683
vt 0.687500 0.625000
vn -0.353553 0.853553 0.382683
v -0.513280 0.768178 0.382683
vt 0.656250 0.625000
vn -0.513280 0.768178 0.382683
v -0.653282 0.653282 0.382683
vt 0.625000 0.625000
vn -0.653282 0.653282 0.382684
v -0.768178 0.513280 0.382683
vt 0.593750 0.625000
vn -0.768178 0.513280 0.382684
v -0.853554 0.353553 0.382683
vt 0.562500 0.625000
vn -0.853554 0.353553 0.382683
v -0.906128 0.180240 0.382683
vt 0.531250 0.625000
vn -0.906128 0.180240 0.382683
v -0.923880 0.000000 0.382683
vt 0.500000 0.625000
vn -0.923880 0.000000 0.382684
v -0.906127 -0.180240 0.382683
vt 0.468750 0.625000
vn -0.906128 -0.180240 0.382684
v -0.853553 -0.353553 0.382683
vt 0.437500 0.625000
vn -0.853553 -0.353553 0.382684
v -0.768178 -0.513280 0.382683
vt 0.406250 0.625000
vn -0.768178 -0.513280 0.382684
v -0.653281 -0.653282 0.382683
vt 0.375000 0.625000
vn -0.653281 -0.653282 0.382684
v -0.513280 -0.768178 0.382683
vt 0.343750 0.625000
vn -0.513280 -0.768178 0.382684
v -0.353553 -0.853554 0.382683
vt 0.312500 0.625000
vn -0.353553 -0.853554 0.382684
v -0.180240 -0.906127 0.382683
vt 0.281250 0.625000
vn -0.180240 -0.906128 0.382684
v 0.000000 -0.923880 0.382683
vt 0.250000 0.625000
vn 0.000000 -0.923880 0.382684
v 0.180240 -0.906127 0.382683
vt 0.218750 0.625000
vn 0.180240 -0.906128 0.382684
v 0.353554 -0.853553 0.382683
vt 0.187500 0.625000
vn 0.353554 -0.853553 0.382684
v 0.513280 -0.768178 0.382683
vt 0.156250 0.625000
vn 0.513280 -0.768178 0.382683
v 0.653282 -0.653281 0.382683
vt 0.125000 0.625000
vn 0.653282 -0.653281 0.382684
v 0.768178 -0.513280 0.382683
vt 0.093750 0.625000
vn 0.768178 -0.513280 0.382684
v 0.853553 -0.353553 0.382683
vt 0.062500 0.625000
vn 0.853553 -0.353553 0.382683
v 0.906128 -0.180240 0.382683
vt 0.031250 0.625000
vn 0.906128 -0.180240 0.382683
v 0.923880 0.000000 0.382683
vt 0.000000 0.625000
vn 0.923880 0.000000 0.382684
v 0.980785 0.000000 0.195090
vt 1.000000 0.562500
vn 0.980785 0.000000 0.195090
v 0.961940 0.191342 0.195090
vt 0.968750 0.562500
vn 0.961940 0.191342 0.195090
v 0.906128 0.375330 0.195090
vt 0.937500 0.562500
vn 0.906128 0.375330 0.195090
v 0.815493 0.544895 0.195090
vt 0.906250 0.562500
vn 0.815493 0.544895 0.195090
v 0.693520 0.693520 0.195090
vt 0.875000 0.562500
vn 0.693520 0.693520 0.195090
v 0.544895 0.815493 0.195090
vt 0.843750 0.562500
vn 0.544895 0.815493 0.195090
v 0.375330 0.906128 0.195090
vt 0.812500 0.562500
vn 0.375330 0.906128 0.195090
v 0.191342 0.961940 0.195090
vt 0.781250 0.562500
vn 0.191342 0.961940 0.195090
v 0.000000 0.980785 0.195090
vt 0.750000 0.562500
vn 0.000000 0.980785 0.195090
v -0.191342 0.961940 0.195090
vt 0.718750 0.562500
vn -0.191342 0.961940 0.195090
v -0.375330 0.906128 0.195090
vt 0.687500 0.562500
vn -0.375330 0.906128 0.195090
v -0.544895 0.815493 0.195090
vt 0.656250 0.562500
vn -0.544895 0.815493 0.195090
v -0.693520 0.693520 0.195090
vt 0.625000 0.562500
vn -0.693520 0.693520 0.195090
v -0.815493 0.544895 0.195090
vt 0.593750 0.562500
vn -0.815493 0.544895 0.195090
v -0.906128 0.375330 0.195090
vt 0.562500 0.562500
vn -0.906128 0.375330 0.195090
v -0.961940 0.191342 0.195090
vt 0.531250 0.562500
vn -0.961940 0.191342 0.195090
v -0.980785 0.000000 0.195090
vt 0.500000 0.562500
vn -0.980785 0.000000 0.195090
v -0.961940 -0.191342 0.195090
vt 0.468750 0.562500
vn -0.961940 -0.191342 0.195090
v -0.906128 -0.375330 0.195090
vt 0.437500 0.562500
vn -0.906128 -0.375330 0.195090
v -0.815493 -0.544895 0.195090
vt 0.406250 0.562500
vn -0.815493 -0.544895 0.195090
v -0.693520 -0.693520 0.195090
vt 0.375000 0.562500
vn -0.693520 -0.693520 0.195090
v -0.544895 -0.815493 0.195090
vt 0.343750 0.562500
vn -0.544895 -0.815493 0.195090
v -0.375330 -0.906128 0.195090
vt 0.312500 0.562500
vn -0.375330 -0.906128 0.195090
v -0.191342 -0.961940 0.195090
vt 0.281250 0.562500
vn -0.191342 -0.961940 0.195090
v 0.000000 -0.980785 0.195090
vt 0.250000 0.562500
vn 0.000000 -0.980785 0.195090
v 0.191342 -0.961940 0.195090
vt 0.218750 0.562500
vn 0.191342 -0.961940 0.195090
v 0.375330 -0.906127 0.195090
vt 0.187500 0.562500
vn 0.375330 -0.906127 0.195090
v 0.544895 -0.815493 0.195090
vt 0.156250 0.562500
vn 0.544895 -0.815493 0.195090
v 0.693520 -0.693520 0.195090
vt 0.125000 0.562500
vn 0.693520 -0.693520 0.195090
v 0.815493 -0.544895 0.195090
vt 0.093750 0.562500
vn 0.815493 -0.544895 0.195090
v 0.906128 -0.375330 0.195090
vt 0.062500 0.562500
vn 0.906128 -0.375330 0.195090
v 0.961940 -0.191342 0.195090
vt 0.031250 0.562500
vn 0.961940 -0.191342 0.195090
v 0.980785 0.000000 0.195090
vt 0.000000 0.562500
vn 0.980785 0.000000 0.195090
v 1.000000 0.000000 0.000000
vt 1.000000 0.500000
vn 1.000000 0.000000 0.000000
v 0.980785 0.195090 0.000000
vt 0.968750 0.500000
vn 0.980785 0.195090 0.000000
v 0.923880 0.382684 0.000000
vt 0.937500 0.500000
vn 0.923880 0.382684 0.000000
v 0.831470 0.555570 0.000000
vt 0.906250 0.500000
vn 0.831470 0.555570 0.000000
v 0.707107 0.707107 0.000000
vt 0.875000 0.500000
vn 0.707107 0.707107 0.000000
v 0.555570 0.831470 0.000000
vt 0.843750 0.500000
vn 0.555570 0.831470 0.000000
v 0.382683 0.923880 0.000000
vt 0.812500 0.500000
vn 0.382684 0.923880 0.000000
v 0.195090 0.980785 0.000000
vt 0.781250 0.500000
vn 0.195090 0.980785 0.000000
v 0.000000 1.000000 0.000000
vt 0.750000 0.500000
vn 0.000000 1.000000 0.000000
v -0.195090 0.980785 0.000000
vt 0.718750 0.500000
vn -0.195090 0.980785 0.000000
v -0.382684 0.923880 0.000000
vt 0.687500 0.500000
vn -0.382684 0.923880 0.000000
v -0.555570 0.831470 0.000000
vt 0.656250 0.500000
vn -0.555570 0.831470 0.000000
v -0.707107 0.707107 0.000000
vt 0.625000 0.500000
vn -0.707107 0.707107 0.000000
v -0.831470 0.555570 0.000000
vt 0.593750 0.500000
vn -0.831470 0.555570 0.000000
v -0.923880 0.382683 0.000000
vt 0.562500 0.500000
vn -0.923880 0.382683 0.000000
v -0.980785 0.195090 0.000000
vt 0.531250 0.500000
vn -0.980785 0.195090 0.000000
v -1.000000 0.000000 0.000000
vt 0.500000 0.500000
vn -1.000000 0.000000 0.000000
v -0.980785 -0.195091 0.000000
vt 0.468750 0.500000
vn -0.980785 -0.195091 0.000000
v -0.923880 -0.382683 0.000000
vt 0.437500 0.500000
vn -0.923880 -0.382684 0.000000
v -0.831470 -0.555570 0.000000
vt 0.406250 0.500000
vn -0.831470 -0.555570 0.000000
v -0.707107 -0.707107 0.000000
vt 0.375000 0.500000
vn -0.707107 -0.707107 0.000000
v -0.555570 -0.831470 0.000000
vt 0.343750 0.500000
vn -0.555570 -0.831470 0.000000
v -0.382683 -0.923880 0.000000
vt 0.312500 0.500000
vn -0.382683 -0.923880 0.000000
v -0.195090 -0.980785 0.000000
vt 0.281250 0.500000
vn -0.195090 -0.980785 0.000000
v 0.000000 -1.000000 0.000000
vt 0.250000 0.500000
vn 0.000000 -1.000000 0.000000
v 0.195090 -0.980785 0.000000
vt 0.218750 0.500000
vn 0.195090 -0.980785 0.000000
v 0.382684 -0.923879 0.000000
vt 0.187500 0.500000
vn 0.382684 -0.923879 0.000000
v 0.555570 -0.831470 0.000000
vt 0.156250 0.500000
vn 0.555570 -0.831470 0.000000
v 0.707107 -0.707107 0.000000
vt 0.125000 0.500000
vn 0.707107 -0.707107 0.000000
v 0.831470 -0.555570 0.000000
vt 0.093750 0.500000
vn 0.831470 -0.555570 0.000000
v 0.923880 -0.382683 0.000000
vt 0.062500 0.500000
vn 0.923880 -0.382683 0.000000
v 0.980785 -0.195090 0.000000
vt 0.031250 0.500000
vn 0.980785 -0.195090 0.000000
v 1.000000 0.000000 0.000000
vt 0.000000 0.500000
vn 1.000000 0.000000 0.000000
v 0.980785 0.000000 -0.195090
vt 1.000000 0.437500
vn 0.980785 0.000000 -0.195090
v 0.961940 0.191342 -0.195090
vt 0.968750 0.437500
vn 0.961940 0.191342 -0.195090
v 0.906127 0.375330 -0.195090
vt 0.937500 0.437500
vn 0.906128 0.375330 -0.195090
v 0.815493 0.544895 -0.195090
vt 0.906250 0.437500
vn 0.815493 0.544895 -0.195090
v 0.693520 0.693520 -0.195090
vt 0.875000 0.437500
vn 0.693520 0.693520 -0.195090
v 0.544895 0.815493 -0.195090
vt 0.843750 0.437500
vn 0.544895 0.815493 -0.195090
v 0.375330 0.906127 -0.195090
vt 0.812500 0.437500
vn 0.375330 0.906128 -0.195090
v 0.191342 0.961940 -0.195090
vt 0.781250 0.437500
vn 0.191342 0.961940 -0.195090
v 0.000000 0.980785 -0.195090
vt 0.750000 0.437500
vn 0.000000 0.980785 -0.195090
v -0.191342 0.961940 -0.195090
vt 0.718750 0.437500
vn -0.191342 0.961940 -0.195090
v -0.375330 0.906127 -0.195090
vt 0.687500 0.437500
vn -0.375330 0.906127 -0.195090
v -0.544895 0.815493 -0.195090
vt 0.656250 0.437500
vn -0.544895 0.815493 -0.195090
v -0.693520 0.693520 -0.195090
vt 0.625000 0.437500
vn -0.693520 0.693520 -0.195090
v -0.815493 0.544895 -0.195090
vt 0.593750 0.437500
vn -0.815493 0.544895 -0.195090
v -0.906128 0.375330 -0.195090
vt 0.562500 0.437500
vn -0.906128 0.375330 -0.195090
v -0.961940 0.191342 -0.195090
vt 0.531250 0.437500
vn -0.961940 0.191342 -0.195090
v -0.980785 0.000000 -0.195090
vt 0.500000 0.437500
vn -0.980785 0.000000 -0.195090
v -0.961940 -0.191342 -0.195090
vt 0.468750 0.437500
vn -0.961940 -0.191342 -0.195090
v -0.906127 -0.375330 -0.195090
vt 0.437500 0.437500
vn -0.906128 -0.375330 -0.195090
v -0.815493 -0.544895 -0.195090
vt 0.406250 0.437500
vn -0.815493 -0.544895 -0.195090
v -0.693520 -0.693520 -0.195090
vt 0.375000 0.437500
vn -0.693520 -0.693520 -0.195090
v -0.544895 -0.815493 -0.195090
vt 0.343750 0.437500
vn -0.544895 -0.815493 -0.195090
v -0.375330 -0.906128 -0.195090
vt 0.312500 0.437500
vn -0.375330 -0.906128 -0.195090
v -0.191342 -0.961940 -0.195090
vt 0.281250 0.437500
vn -0.191342 -0.961940 -0.195090
v 0.000000 -0.980785 -0.195090
vt 0.250000 0.437500
vn 0.000000 -0.980785 -0.195090
v 0.191342 -0.961940 -0.195090
vt 0.218750 0.437500
vn 0.191342 -0.961940 -0.195090
v 0.375330 -0.906127 -0.195090
vt 0.187500 0.437500
vn 0.375331 -0.906127 -0.195090
v 0.544895 -0.815493 -0.195090
vt 0.156250 0.437500
vn 0.544895 -0.815493 -0.195090
v 0.693520 -0.693520 -0.195090
vt 0.125000 0.437500
vn 0.693520 -0.693520 -0.195090
v 0.815493 -0.544895 -0.195090
vt 0.093750 0.437500
vn 0.815493 -0.544895 -0.195090
v 0.906128 -0.375330 -0.195090
vt 0.062500 0.437500
vn 0.906128 -0.375330 -0.195090
v 0.961940 -0.191342 -0.195090
vt 0.031250 0.437500
vn 0.961940 -0.191342 -0.195090
v 0.980785 0.000000 -0.195090
vt 0.000000 0.437500
vn 0.980785 0.000000 -0.195090
v 0.923880 0.000000 -0.382684
vt 1.000000 0.375000
vn 0.923880 0.000000 -0.382684
v 0.906127 0.180240 -0.382684
vt 0.968750 0.375000
vn 0.906127 0.180240 -0.382684
v 0.853553 0.353553 -0.382684
vt 0.937500 0.375000
vn 0.853553 0.353553 -0.382684
v 0.768178 0.513280 -0.382684
vt 0.906250 0.375000
vn 0.768178 0.513280 -0.382684
v 0.653282 0.653282 -0.382684
vt 0.875000 0.375000
vn 0.653282 0.653282 -0.382684
v 0.513280 0.768178 -0.382684
vt 0.843750 0.375000
vn 0.513280 0.768178 -0.382684
v 0.353553 0.853553 -0.382684
vt 0.812500 0.375000
vn 0.353553 0.853553 -0.382684
v 0.180240 0.906128 -0.382684
vt 0.781250 0.375000
vn 0.180240 0.906128 -0.382684
v 0.000000 0.923880 -0.382684
vt 0.750000 0.375000
vn 0.000000 0.923880 -0.382684
v -0.180240 0.906127 -0.382684
vt 0.718750 0.375000
vn -0.180240 0.906127 -0.382684
v -0.353553 0.853553 -0.382684
vt 0.687500 0.375000
vn -0.353553 0.853553 -0.382684
v -0.513280 0.768178 -0.382684
vt 0.656250 0.375000
vn -0.513280 0.768178 -0.382684
v -0.653282 0.653282 -0.382684
vt 0.625000 0.375000
vn -0.653282 0.653282 -0.382684
v -0.768178 0.513280 -0.382684
vt 0.593750 0.375000
vn -0.768178 0.513280 -0.382684
v -0.853554 0.353553 -0.382684
vt 0.562500 0.375000
vn -0.853554 0.353553 -0.382684
v -0.906128 0.180240 -0.382684
vt 0.531250 0.375000
vn -0.906128 0.180240 -0.382684
v -0.923880 0.000000 -0.382684
vt 0.500000 0.375000
vn -0.923880 0.000000 -0.382684
v -0.906127 -0.180240 -0.382684
vt 0.468750 0.375000
vn -0.906127 -0.180240 -0.382684
v -0.853553 -0.353553 -0.382684
vt 0.437500 0.375000
vn -0.853553 -0.353553 -0.382684
v -0.768178 -0.513280 -0.382684
vt 0.406250 0.375000
vn -0.768178 -0.513280 -0.382684
v -0.653281 -0.653282 -0.382684
vt 0.375000 0.375000
vn -0.653281 -0.653282 -0.382684
v -0.513280 -0.768178 -0.382684
vt 0.343750 0.375000
vn -0.513280 -0.768178 -0.382684
v -0.353553 -0.853554 -0.382684
vt 0.312500 0.375000
vn -0.353553 -0.853554 -0.382684
v -0.180240 -0.906127 -0.382684
vt 0.281250 0.375000
vn -0.180240 -0.906127 -0.382684
v 0.000000 -0.923880 -0.382684
vt 0.250000 0.375000
vn 0.000000 -0.923880 -0.382684
v 0.180240 -0.906127 -0.382684
vt 0.218750 0.375000
vn 0.180240 -0.906127 -0.382684
v 0.353554 -0.853553 -0.382684
vt 0.187500 0.375000
vn 0.353554 -0.853553 -0.382684
v 0.513280 -0.768178 -0.382684
vt 0.156250 0.375000
vn 0.513280 -0.768178 -0.382684
v 0.653282 -0.653281 -0.382684
vt 0.125000 0.375000
vn 0.653282 -0.653281 -0.382684
v 0.768178 -0.513280 -0.382684
vt 0.093750 0.375000
vn 0.768178 -0.513280 -0.382684
v 0.853553 -0.353553 -0.382684
vt 0.062500 0.375000
vn 0.853553 -0.353553 -0.382684
v 0.906128 -0.180240 -0.382684
vt 0.031250 0.375000
vn 0.906128 -0.180240 -0.382684
v 0.923880 0.000000 -0.382684
vt 0.000000 0.375000
vn 0.923880 0.000000 -0.382684
v 0.831470 0.000000 -0.555570
vt 1.000000 0.312500
vn 0.831470 0.000000 -0.555570
v 0.815493 0.162212 -0.555570
vt 0.968750 0.312500
vn 0.815493 0.162212 -0.555570
v 0.768178 0.318190 -0.555570
vt 0.937500 0.312500
vn 0.768178 0.318190 -0.555570
v 0.691342 0.461940 -0.555570
vt 0.906250 0.312500
vn 0.691342 0.461940 -0.555570
v 0.587938 0.587938 -0.555570
vt 0.875000 0.312500
vn 0.587938 0.587938 -0.555570
v 0.461940 0.691342 -0.555570
vt 0.843750 0.312500
vn 0.461940 0.691342 -0.555570
v 0.318190 0.768178 -0.555570
vt 0.812500 0.312500
vn 0.318190 0.768178 -0.555570
v 0.162212 0.815493 -0.555570
vt 0.781250 0.312500
vn 0.162212 0.815493 -0.555570
v 0.000000 0.831470 -0.555570
vt 0.750000 0.312500
vn 0.000000 0.831470 -0.555570
v -0.162212 0.815493 -0.555570
vt 0.718750 0.312500
vn -0.162212 0.815493 -0.555570
v -0.318190 0.768178 -0.555570
vt 0.687500 0.312500
vn -0.318190 0.768178 -0.555570
v -0.461940 0.691342 -0.555570
vt 0.656250 0.312500
vn -0.461940 0.691342 -0.555570
v -0.587938 0.587938 -0.555570
vt 0.625000 0.312500
vn -0.587938 0.587938 -0.555570
v -0.691342 0.461940 -0.555570
vt 0.593750 0.312500
vn -0.691342 0.461940 -0.555570
v -0.768178 0.318190 -0.555570
vt 0.562500 0.312500
vn -0.768178 0.318190 -0.555570
v -0.815493 0.162212 -0.555570
vt 0.531250 0.312500
vn -0.815493 0.162212 -0.555570
v -0.831470 0.000000 -0.555570
vt 0.500000 0.312500
vn -0.831470 0.000000 -0.555570
v -0.815493 -0.162212 -0.555570
vt 0.468750 0.312500
vn -0.815493 -0.162212 -0.555570
v -0.768178 -0.318190 -0.555570
vt 0.437500 0.312500
vn -0.768178 -0.318190 -0.555570
v -0.691342 -0.461940 -0.555570
vt 0.406250 0.312500
vn -0.691342 -0.461940 -0.555570
v -0.587938 -0.587938 -0.555570
vt 0.375000 0.312500
vn -0.587938 -0.587938 -0.555570
v -0.461940 -0.691342 -0.555570
vt 0.343750 0.312500
vn -0.461940 -0.691342 -0.555570
v -0.318189 -0.768178 -0.555570
vt 0.312500 0.312500
vn -0.318189 -0.768178 -0.555570
v -0.162212 -0.815493 -0.555570
vt 0.281250 0.312500
vn -0.162212 -0.815493 -0.555570
v 0.000000 -0.831470 -0.555570
vt 0.250000 0.312500
vn 0.000000 -0.831470 -0.555570
v 0.162212 -0.815493 -0.555570
vt 0.218750 0.312500
vn 0.162212 -0.815493 -0.555570
v 0.318190 -0.768178 -0.555570
vt 0.187500 0.312500
vn 0.318190 -0.768178 -0.555570
v 0.461940 -0.691342 -0.555570
vt 0.156250 0.312500
vn 0.461940 -0.691342 -0.555570
v 0.587938 -0.587938 -0.555570
vt 0.125000 0.312500
vn 0.587938 -0.587938 -0.555570
v 0.691342 -0.461940 -0.555570
vt 0.093750 0.312500
vn 0.691342 -0.461940 -0.555570
v 0.768178 -0.318190 -0.555570
vt 0.062500 0.312500
vn 0.768178 -0.318190 -0.555570
v 0.815493 -0.162212 -0.555570
vt 0.031250 0.312500
vn 0.815493 -0.162212 -0.555570
v 0.831470 0.000000 -0.555570
vt 0.000000 0.312500
vn 0.831470 0.000000 -0.555570
v 0.707107 0.000000 -0.707107
vt 1.000000 0.250000
vn 0.707107 0.000000 -0.707107
v 0.693520 0.137950 -0.707107
vt 0.968750 0.250000
vn 0.693520 0.137950 -0.707107
v 0.653282 0.270598 -0.707107
vt 0.937500 0.250000
vn 0.653282 0.270598 -0.707107
v 0.587938 0.392848 -0.707107
vt 0.906250 0.250000
vn 0.587938 0.392848 -0.707107
v 0.500000 0.500000 -0.707107
vt 0.875000 0.250000
vn 0.500000 0.500000 -0.707107
v 0.392847 0.587938 -0.707107
vt 0.843750 0.250000
vn 0.392847 0.587938 -0.707107
v 0.270598 0.653282 -0.707107
vt 0.812500 0.250000
vn 0.270598 0.653282 -0.707107
v 0.137950 0.693520 -0.707107
vt 0.781250 0.250000
vn 0.137950 0.693520 -0.707107
v 0.000000 0.707107 -0.707107
vt 0.750000 0.250000
vn 0.000000 0.707107 -0.707107
v -0.137950 0.693520 -0.707107
vt 0.718750 0.250000
vn -0.137950 0.693520 -0.707107
v -0.270598 0.653282 -0.707107
vt 0.687500 0.250000
vn -0.270598 0.653282 -0.707107
v -0.392848 0.587938 -0.707107
vt 0.656250 0.250000
vn -0.392848 0.587938 -0.707107
v -0.500000 0.500000 -0.707107
vt 0.625000 0.250000
vn -0.500000 0.500000 -0.707107
v -0.587938 0.392847 -0.707107
vt 0.593750 0.250000
vn -0.587938 0.392847 -0.707107
v -0.653282 0.270598 -0.707107
vt 0.562500 0.250000
vn -0.653282 0.270598 -0.707107
v -0.693520 0.137950 -0.707107
vt 0.531250 0.250000
vn -0.693520 0.137950 -0.707107
v -0.707107 0.000000 -0.707107
vt 0.500000 0.250000
vn -0.707107 0.000000 -0.707107
v -0.693520 -0.137950 -0.707107
vt 0.468750 0.250000
vn -0.693520 -0.137950 -0.707107
v -0.653282 -0.270598 -0.707107
vt 0.437500 0.250000
vn -0.653282 -0.270598 -0.707107
v -0.587938 -0.392848 -0.707107
vt 0.406250 0.250000
vn -0.587938 -0.392848 -0.707107
v -0.500000 -0.500000 -0.707107
vt 0.375000 0.250000
vn -0.500000 -0.500000 -0.707107
v -0.392847 -0.587938 -0.707107
vt 0.343750 0.250000
vn -0.392847 -0.587938 -0.707107
v -0.270598 -0.653282 -0.707107
vt 0.312500 0.250000
vn -0.270598 -0.653282 -0.707107
v -0.137950 -0.693520 -0.707107
vt 0.281250 0.250000
vn -0.137950 -0.693520 -0.707107
v 0.000000 -0.707107 -0.707107
vt 0.250000 0.250000
vn 0.000000 -0.707107 -0.707107
v 0.137950 -0.693520 -0.707107
vt 0.218750 0.250000
vn 0.137950 -0.693520 -0.707107
v 0.270598 -0.653281 -0.707107
vt 0.187500 0.250000
vn 0.270598 -0.653282 -0.707107
v 0.392848 -0.587938 -0.707107
vt 0.156250 0.250000
vn 0.392848 -0.587938 -0.707107
v 0.500000 -0.500000 -0.707107
vt 0.125000 0.250000
vn 0.500000 -0.500000 -0.707107
v 0.587938 -0.392848 -0.707107
vt 0.093750 0.250000
vn 0.587938 -0.392848 -0.707107
v 0.653282 -0.270598 -0.707107
vt 0.062500 0.250000
vn 0.653282 -0.270598 -0.707107
v 0.693520 -0.137950 -0.707107
vt 0.031250 0.250000
vn 0.693520 -0.137950 -0.707107
v 0.707107 0.000000 -0.707107
vt 0.000000 0.250000
vn 0.707107 0.000000 -0.707107
v 0.555570 0.000000 -0.831470
vt 1.000000 0.187500
vn 0.555570 0.000000 -0.831470
v 0.544895 0.108386 -0.831470
vt 0.968750 0.187500
vn 0.544895 0.108386 -0.831470
v 0.513280 0.212608 -0.831470
vt 0.937500 0.187500
vn 0.513280 0.212608 -0.831470
v 0.461940 0.308658 -0.831470
vt 0.906250 0.187500
vn 0.461940 0.308658 -0.831470
v 0.392847 0.392847 -0.831470
vt 0.875000 0.187500
vn 0.392847 0.392847 -0.831470
v 0.308658 0.461940 -0.831470
vt 0.843750 0.187500
vn 0.308658 0.461940 -0.831470
v 0.212608 0.513280 -0.831470
vt 0.812500 0.187500
vn 0.212608 0.513280 -0.831470
v 0.108386 0.544895 -0.831470
vt 0.781250 0.187500
vn 0.108386 0.544895 -0.831470
v 0.000000 0.555570 -0.831470
vt 0.750000 0.187500
vn 0.000000 0.555570 -0.831470
v -0.108386 0.544895 -0.831470
vt 0.718750 0.187500
vn -0.108386 0.544895 -0.831470
v -0.212608 0.513280 -0.831470
vt 0.687500 0.187500
vn -0.212608 0.513280 -0.831470
v -0.308658 0.461940 -0.831470
vt 0.656250 0.187500
vn -0.308658 0.461940 -0.831470
v -0.392847 0.392847 -0.831470
vt 0.625000 0.187500
vn -0.392847 0.392847 -0.831470
v -0.461940 0.308658 -0.831470
vt 0.593750 0.187500
vn -0.461940 0.308658 -0.831470
v -0.513280 0.212607 -0.831470
vt 0.562500 0.187500
vn -0.513280 0.212607 -0.831470
v -0.544895 0.108386 -0.831470
vt 0.531250 0.187500
vn -0.544895 0.108386 -0.831470
v -0.555570 0.000000 -0.831470
vt 0.500000 0.187500
vn -0.555570 0.000000 -0.831470
v -0.544895 -0.108387 -0.831470
vt 0.468750 0.187500
vn -0.544895 -0.108387 -0.831470
v -0.513280 -0.212608 -0.831470
vt 0.437500 0.187500
vn -0.513280 -0.212608 -0.831470
v -0.461940 -0.308658 -0.831470
vt 0.406250 0.187500
vn -0.461940 -0.308658 -0.831470
v -0.392847 -0.392848 -0.831470
vt 0.375000 0.187500
vn -0.392847 -0.392848 -0.831470
v -0.308658 -0.461940 -0.831470
vt 0.343750 0.187500
vn -0.308658 -0.461940 -0.831470
v -0.212607 -0.513280 -0.831470
vt 0.312500 0.187500
vn -0.212607 -0.513280 -0.831470
v -0.108386 -0.544895 -0.831470
vt 0.281250 0.187500
vn -0.108386 -0.544895 -0.831470
v 0.000000 -0.555570 -0.831470
vt 0.250000 0.187500
vn 0.000000 -0.555570 -0.831470
v 0.108386 -0.544895 -0.831470
vt 0.218750 0.187500
vn 0.108386 -0.544895 -0.831470
v 0.212608 -0.513280 -0.831470
vt 0.187500 0.187500
vn 0.212608 -0.513280 -0.831470
v 0.308658 -0.461940 -0.831470
vt 0.156250 0.187500
vn 0.308658 -0.461940 -0.831470
v 0.392848 -0.392847 -0.831470
vt 0.125000 0.187500
vn 0.392848 -0.392847 -0.831470
v 0.461940 -0.308658 -0.831470
vt 0.093750 0.187500
vn 0.461940 -0.308658 -0.831470
v 0.513280 -0.212608 -0.831470
vt 0.062500 0.187500
vn 0.513280 -0.212608 -0.831470
v 0.544895 -0.108386 -0.831470
vt 0.031250 0.187500
vn 0.544895 -0.108386 -0.831470
v 0.555570 0.000000 -0.831470
vt 0.000000 0.187500
vn 0.555570 0.000000 -0.831470
v 0.382683 0.000000 -0.923880
vt 1.000000 0.125000
vn 0.382683 0.000000 -0.923880
v 0.375330 0.074658 -0.923880
vt 0.968750 0.125000
vn 0.375330 0.074658 -0.923880
v 0.353553 0.146447 -0.923880
vt 0.937500 0.125000
vn 0.353553 0.146447 -0.923880
v 0.318190 0.212607 -0.923880
vt 0.906250 0.125000
vn 0.318190 0.212607 -0.923880
v 0.270598 0.270598 -0.923880
vt 0.875000 0.125000
vn 0.270598 0.270598 -0.923880
v 0.212607 0.318190 -0.923880
vt 0.843750 0.125000
vn 0.212607 0.318190 -0.923880
v 0.146447 0.353553 -0.923880
vt 0.812500 0.125000
vn 0.146447 0.353553 -0.923880
v 0.074658 0.375330 -0.923880
vt 0.781250 0.125000
vn 0.074658 0.375330 -0.923880
v 0.000000 0.382683 -0.923880
vt 0.750000 0.125000
vn 0.000000 0.382683 -0.923880
v -0.074658 0.375330 -0.923880
vt 0.718750 0.125000
vn -0.074658 0.375330 -0.923880
v -0.146447 0.353553 -0.923880
vt 0.687500 0.125000
vn -0.146447 0.353553 -0.923880
v -0.212608 0.318190 -0.923880
vt 0.656250 0.125000
vn -0.212608 0.318190 -0.923880
v -0.270598 0.270598 -0.923880
vt 0.625000 0.125000
vn -0.270598 0.270598 -0.923880
v -0.318190 0.212607 -0.923880
vt 0.593750 0.125000
vn -0.318190 0.212607 -0.923880
v -0.353553 0.146447 -0.923880
vt 0.562500 0.125000
vn -0.353553 0.146447 -0.923880
v -0.375330 0.074658 -0.923880
vt 0.531250 0.125000
vn -0.375330 0.074658 -0.923880
v -0.382683 0.000000 -0.923880
vt 0.500000 0.125000
vn -0.382683 0.000000 -0.923880
v -0.375330 -0.074658 -0.923880
vt 0.468750 0.125000
vn -0.375330 -0.074658 -0.923880
v -0.353553 -0.146447 -0.923880
vt 0.437500 0.125000
vn -0.353553 -0.146447 -0.923880
v -0.318190 -0.212608 -0.923880
vt 0.406250 0.125000
vn -0.318190 -0.212608 -0.923880
v -0.270598 -0.270598 -0.923880
vt 0.375000 0.125000
vn -0.270598 -0.270598 -0.923880
v -0.212607 -0.318190 -0.923880
vt 0.343750 0.125000
vn -0.212607 -0.318190 -0.923880
v -0.146446 -0.353553 -0.923880
vt 0.312500 0.125000
vn -0.146446 -0.353553 -0.923880
v -0.074658 -0.375330 -0.923880
vt 0.281250 0.125000
vn -0.074658 -0.375330 -0.923880
v 0.000000 -0.382683 -0.923880
vt 0.250000 0.125000
vn 0.000000 -0.382683 -0.923880
v 0.074658 -0.375330 -0.923880
vt 0.218750 0.125000
vn 0.074658 -0.375330 -0.923880
v 0.146447 -0.353553 -0.923880
vt 0.187500 0.125000
vn 0.146447 -0.353553 -0.923880
v 0.212608 -0.318190 -0.923880
vt 0.156250 0.125000
vn 0.212608 -0.318190 -0.923880
v 0.270598 -0.270598 -0.923880
vt 0.125000 0.125000
vn 0.270598 -0.270598 -0.923880
v 0.318190 -0.212608 -0.923880
vt 0.093750 0.125000
vn 0.318190 -0.212608 -0.923880
v 0.353553 -0.146447 -0.923880
vt 0.062500 0.125000
vn 0.353553 -0.146447 -0.923880
v 0.375330 -0.074658 -0.923880
vt 0.031250 0.125000
vn 0.375330 -0.074658 -0.923880
v 0.382683 0.000000 -0.923880
vt 0.000000 0.125000
vn 0.382683 0.000000 -0.923880
v 0.195090 0.000000 -0.980785
vt 1.000000 0.062500
vn 0.195090 0.000000 -0.980785
v 0.191342 0.038060 -0.980785
vt 0.968750 0.062500
vn 0.191342 0.038060 -0.980785
v 0.180240 0.074658 -0.980785
vt 0.937500 0.062500
vn 0.180240 0.074658 -0.980785
v 0.162212 0.108386 -0.980785
vt 0.906250 0.062500
vn 0.162212 0.108386 -0.980785
v 0.137950 0.137950 -0.980785
vt 0.875000 0.062500
vn 0.137950 0.137950 -0.980785
v 0.108386 0.162212 -0.980785
vt 0.843750 0.062500
vn 0.108386 0.162212 -0.980785
v 0.074658 0.180240 -0.980785
vt 0.812500 0.062500
vn 0.074658 0.180240 -0.980785
v 0.038060 0.191342 -0.980785
vt 0.781250 0.062500
vn 0.038060 0.191342 -0.980785
v 0.000000 0.195090 -0.980785
vt 0.750000 0.062500
vn 0.000000 0.195090 -0.980785
v -0.038060 0.191342 -0.980785
vt 0.718750 0.062500
vn -0.038060 0.191342 -0.980785
v -0.074658 0.180240 -0.980785
vt 0.687500 0.062500
vn -0.074658 0.180240 -0.980785
v -0.108386 0.162212 -0.980785
vt 0.656250 0.062500
vn -0.108386 0.162212 -0.980785
v -0.137950 0.137950 -0.980785
vt 0.625000 0.062500
vn -0.137950 0.137950 -0.980785
v -0.162212 0.108386 -0.980785
vt 0.593750 0.062500
vn -0.162212 0.108386 -0.980785
v -0.180240 0.074658 -0.980785
vt 0.562500 0.062500
vn -0.180240 0.074658 -0.980785
v -0.191342 0.038060 -0.980785
vt 0.531250 0.062500
vn -0.191342 0.038060 -0.980785
v -0.195090 0.000000 -0.980785
vt 0.500000 0.062500
vn -0.195090 0.000000 -0.980785
v -0.191342 -0.038060 -0.980785
vt 0.468750 0.062500
vn -0.191342 -0.038060 -0.980785
v -0.180240 -0.074658 -0.980785
vt 0.437500 0.062500
vn -0.180240 -0.074658 -0.980785
v -0.162212 -0.108386 -0.980785
vt 0.406250 0.062500
vn -0.162212 -0.108386 -0.980785
v -0.137950 -0.137950 -0.980785
vt 0.375000 0.062500
vn -0.137950 -0.137950 -0.980785
v -0.108386 -0.162212 -0.980785
vt 0.343750 0.062500
vn -0.108386 -0.162212 -0.980785
v -0.074658 -0.180240 -0.980785
vt 0.312500 0.062500
vn -0.074658 -0.180240 -0.980785
v -0.038060 -0.191342 -0.980785
vt 0.281250 0.062500
vn -0.038060 -0.191342 -0.980785
v 0.000000 -0.195090 -0.980785
vt 0.250000 0.062500
vn 0.000000 -0.195090 -0.980785
v 0.038060 -0.191342 -0.980785
vt 0.218750 0.062500
vn 0.038060 -0.191342 -0.980785
v 0.074658 -0.180240 -0.980785
vt 0.187500 0.062500
vn 0.074658 -0.180240 -0.980785
v 0.108386 -0.162212 -0.980785
vt 0.156250 0.062500
vn 0.108386 -0.162212 -0.980785
v 0.137950 -0.137950 -0.980785
vt 0.125000 0.062500
vn 0.137950 -0.137950 -0.980785
v 0.162212 -0.108386 -0.980785
vt 0.093750 0.062500
vn 0.162212 -0.108386 -0.980785
v 0.180240 -0.074658 -0.980785
vt 0.062500 0.062500
vn 0.180240 -0.074658 -0.980785
v 0.191342 -0.038060 -0.980785
vt 0.031250 0.062500
vn 0.191342 -0.038060 -0.980785
v 0.195090 0.000000 -0.980785
vt 0.000000 0.062500
vn 0.195090 0.000000 -0.980785
v 0.000000 0.000000 -1.000000
vt 1.000000 0.000000
vn 0.000000 0.000000 -1.000000
v 0.000000 0.000000 -1.000000
vt 0.968750 0.000000
vn 0.000000 0.000000 -1.000000
v 0.000000 0.000000 -1.000000
vt 0.937500 0.000000
vn 0.000000 0.000000 -1.000000
v 0.000000 0.000000 -1.000000
vt 0.906250 0.000000
vn 0.000000 0.000000 -1.000000
v 0.000000 0.000000 -1.000000
vt 0.875000 0.000000
vn 0.000000 0.000000 -1.000000
v 0.000000 0.000000 -1.000000
vt 0.843750 0.000000
vn 0.000000 0.000000 -1.000000
v 0.000000 0.000000 -1.000000
vt 0.812500 0.000000
vn 0.000000 0.000000 -1.000000
v 0.000000 0.000000 -1.000000
vt 0.781250 0.000000
vn 0.000000 0.000000 -1.000000
v 0.000000 0.000000 -1.000000
vt 0.750000 0.000000
vn 0.000000 0.000000 -1.000000
v 0.000000 0.000000 -1.000000
vt 0.718750 0.000000
vn 0.000000 0.000000 -1.000000
v 0.000000 0.000000 -1.000000
vt 0.687500 0.000000
vn 0.000000 0.000000 -1.000000
v 0.000000 0.000000 -1.000000
vt 0.656250 0.000000
vn 0.000000 0.000000 -1.000000
v 0.000000 0.000000 -1.000000
vt 0.625000 0.000000
vn 0.000000 0.000000 -1.000000
v 0.000000 0.000000 -1.000000
vt 0.593750 0.000000
vn 0.000000 0.000000 -1.000000
v 0.000000 0.000000 -1.000000
vt 0.562500 0.000000
vn 0.000000 0.000000 -1.000000
v 0.000000 0.000000 -1.000000
vt 0.531250 0.000000
vn 0.000000 0.000000 -1.000000
v 0.000000 0.000000 -1.000000
vt 0.500000 0.000000
vn 0.000000 0.000000 -1.000000
v 0.000000 0.000000 -1.000000
vt 0.468750 0.000000
vn 0.000000 0.000000 -1.000000
v 0.000000 0.000000 -1.000000
vt 0.437500 0.000000
vn 0.000000 0.000000 -1.000000
v 0.000000 0.000000 -1.000000
vt 0.406250 0.000000
vn 0.000000 0.000000 -1.000000
v 0.000000 0.000000 -1.000000
vt 0.375000 0.000000
vn 0.000000 0.000000 -1.000000
v 0.000000 0.000000 -1.000000
vt 0.343750 0.000000
vn 0.000000 0.000000 -1.000000
v 0.000000 0.000000 -1.000000
vt 0.312500 0.000000
vn 0.000000 0.000000 -1.000000
v 0.000000 0.000000 -1.000000
vt 0.281250 0.000000
vn 0.000000 0.000000 -1.000000
v 0.000000 0.000000 -1.000000
vt 0.250000 0.000000
vn 0.000000 0.000000 -1.000000
v 0.000000 0.000000 -1.000000
vt 0.218750 0.000000
vn 0.000000 0.000000 -1.000000
v 0.000000 0.000000 -1.000000
vt 0.187500 0.000000
vn 0.000000 0.000000 -1.000000
v 0.000000 0.000000 -1.000000
vt 0.156250 0.000000
vn 0.000000 0.000000 -1.000000
v 0.000000 0.000000 -1.000000
vt 0.125000 0.000000
vn 0.000000 0.000000 -1.000000
v 0.000000 0.000000 -1.000000
vt 0.093750 0.000000
vn 0.000000 0.000000 -1.000000
v 0.000000 0.000000 -1.000000
vt 0.062500 0.000000
vn 0.000000 0.000000 -1.000000
v 0.000000 0.000000 -1.000000
vt 0.031250 0.000000
vn 0.000000 0.000000 -1.000000
v 0.000000 0.000000 -1.000000
vt 0.000000 0.000000
vn 0.000000 0.000000 -1.000000
f 2/2/2 34/34/34 35/35/35
f 3/3/3 35/35/35 36/36/36
f 4/4/4 36/36/36 37/37/37
f 5/5/5 37/37/37 38/38/38
f 6/6/6 38/38/38 39/39/39
f 7/7/7 39/39/39 40/40/40
f 8/8/8 40/40/40 41/41/41
f 9/9/9 41/41/41 42/42/42
f 10/10/10 42/42/42 43/43/43
f 11/11/11 43/43/43 44/44/44
f 12/12/12 44/44/44 45/45/45
f 13/13/13 45/45/45 46/46/46
f 14/14/14 46/46/46 47/47/47
f 15/15/15 47/47/47 48/48/48
f 16/16/16 48/48/48 49/49/49
f 17/17/17 49/49/49 50/50/50
f 18/18/18 50/50/50 51/51/51
f 19/19/19 51/51/51 52/52/52
f 20/20/20 52/52/52 53/53/53
f 21/21/21 53/53/53 54/54/54
f 22/22/22 54/54/54 55/55/55
f 23/23/23 55/55/55 56/56/56
f 24/24/24 56/56/56 57/57/57
f 25/25/25 57/57/57 58/58/58
f 26/26/26 58/58/58 59/59/59
f 27/27/27 59/59/59 60/60/60
f 28/28/28 60/60/60 61/61/61
f 29/29/29 61/61/61 62/62/62
f 30/30/30 62/62/62 63/63/63
f 31/31/31 63/63/63 64/64/64
f 32/32/32 64/64/64 65/65/65
f 33/33/33 65/65/65 66/66/66
f 34/34/34 67/67/67 35/35/35
f 35/35/35 67/67/67 68/68/68
f 35/35/35 68/68/68 36/36/36
f 36/36/36 68/68/68 69/69/69
f 36/36/36 69/69/69 37/37/37
f 37/37/37 69/69/69 70/70/70
f 37/37/37 70/70/70 38/38/38
f 38/38/38 70/70/70 71/71/71
f 38/38/38 71/71/71 39/39/39
f 39/39/39 71/71/71 72/72/72
f 39/39/39 72/72/72 40/40/40
f 40/40/40 72/72/72 73/73/73
f 40/40/40 73/73/73 41/41/41
f 41/41/41 73/73/73 74/74/74
f 41/41/41 74/74/74 42/42/42
f 42/42/42 74/74/74 75/75/75
f 42/42/42 75/75/75 43/43/43
f 43/43/43 75/75/75 76/76/76
f 43/43/43 76/76/76 44/44/44
f 44/44/44 76/76/76 77/77/77
f 44/44/44 77/77/77 45/45/45
f 45/45/45 77/77/77 78/78/78
f 45/45/45 78/78/78 46/46/46
f 46/46/46 78/78/78 79/79/79
f 46/46/46 79/79/79 47/47/47
f 47/47/47 79/79/79 80/80/80
f 47/47/47 80/80/80 48/48/48
f 48/48/48 80/80/80 81/81/81
f 48/48/48 81/81/81 49/49/49
f 49/49/49 81/81/81 82/82/82
f 49/49/49 82/82/82 50/50/50
f 50/50/50 82/82/82 83/83/83
f 50/50/50 83/83/83 51/51/51
f 51/51/51 83/83/83 84/84/84
f 51/51/51 84/84/84 52/52/52
f 52/52/52 84/84/84 85/85/85
f 52/52/52 85/85/85 53/53/53
f 53/53/53 85/85/85 86/86/86
f 53/53/53 86/86/86 54/54/54
f 54/54/54 86/86/86 87/87/87
f 54/54/54 87/87/87 55/55/55
f 55/55/55 87/87/87 88/88/88
f 55/55/55 88/88/88 56/56/56
f 56/56/56 88/88/88 89/89/89
f 56/56/56 89/89/89 57/57/57
f 57/57/57 89/89/89 90/90/90
f 57/57/57 90/90/90 58/58/58
f 58/58/58 90/90/90 91/91/91
f 58/58/58 91/91/91 59/59/59
f 59/59/59 91/91/91 92/92/92
f 59/59/59 92/92/92 60/60/60
f 60/60/60 92/92/92 93/93/93
f 60/60/60 93/93/93 61/61/61
f 61/61/61 93/93/93 94/94/94
f 61/61/61 94/94/94 62/62/62
f 62/62/62 94/94/94 95/95/95
f 62/62/62 95/95/95 63/63/63
f 63/63/63 95/95/95 96/96/96
f 63/63/63 96/96/96 64/64/64
f 64/64/64 96/96/96 97/97/97
f 64/64/64 97/97/97 65/65/65
f 65/65/65 97/97/97 98/98/98
f 65/65/65 98/98/98 66/66/66
f 66/66/66 98/98/98 99/99/99
f 67/67/67 100/100/100 68/68/68
f 68/68/68 100/100/100 101/101/101
f 68/68/68 101/101/101 69/69/69
f 69/69/69 101/101/101 102/102/102
f 69/69/69 102/102/102 70/70/70
f 70/70/70 102/102/102 103/103/103
f 70/70/70 103/103/103 71/71/71
f 71/71/71 103/103/103 104/104/104
f 71/71/71 104/104/104 72/72/72
f 72/72/72 104/104/104 105/105/105
f 72/72/72 105/105/105 73/73/73
f 73/73/73 105/105/105 106/106/106
f 73/73/73 106/106/106 74/74/74
f 74/74/74 106/106/106 107/107/107
f 74/74/74 107/107/107 75/75/75
f 75/75/75 107/107/107 108/108/108
f 75/75/75 108/108/108 76/76/76
f 76/76/76 108/108/108 109/109/109
f 76/76/76 109/109/109 77/77/77
f 77/77/77 109/109/109 110/110/110
f 77/77/77 110/110/110 78/78/78
f 78/78/78 110/110/110 111/111/111
f 78/78/78 111/111/111 79/79/79
f 79/79/79 111/111/111 112/112/112
f 79/79/79 112/112/112 80/80/80
f 80/80/80 112/112/112 113/113/113
f 80/80/80 113/113/113 81/81/81
f 81/81/81 113/113/113 114/114/114
f 81/81/81 114/114/114 82/82/82
f 82/82/82 114/114/114 115/115/115
f 82/82/82 115/115/115 83/83/83
f 83/83/83 115/115/115 116/116/116
f 83/83/83 116/116/116 84/84/84
f 84/84/84 116/116/116 117/117/117
f 84/84/84 117/117/117 85/85/85
f 85/85/85 117/117/117 118/118/118
f 85/85/85 118/118/118 86/86/86
f 86/86/86 118/118/118 119/119/119
f 86/86/86 119/119/119 87/87/87
f 87/87/87 119/119/119 120/120/120
f 87/87/87 120/120/120 88/88/88
f 88/88/88 120/120/120 121/121/121
f 88/88/88 121/121/121 89/89/89
f 89/89/89 121/121/121 122/122/122
f 89/89/89 122/122/122 90/90/90
f 90/90/90 122/122/122 123/123/123
f 90/90/90 123/123/123 91/91/91
f 91/91/91 123/123/123 124/124/124
f 91/91/91 124/124/124 92/92/92
f 92/92/92 124/124/124 125/125/125
f 92/92/92 125/125/125 93/93/93
f 93/93/93 125/125/125 126/126/126
f 93/93/93 126/126/126 94/94/94
f 94/94/94 126/126/126 127/127/127
f 94/94/94 127/127/127 95/95/95
f 95/95/95 127/127/127 128/128/128
f 95/95/95 128/128/128 96/96/96
f 96/96/96 128/128/128 129/129/129
f 96/96/96 129/129/129 97/97/97
f 97/97/97 129/129/129 130/130/130
f 97/97/97 130/130/130 98/98/98
f 98/98/98 130/130/130 131/131/131
f 98/98/98 131/131/131 99/99/99
f 99/99/99 131/131/131 132/132/132
f 100/100/100 133/133/133 101/101/101
f 101/101/101 133/133/133 134/134/134
f 101/101/101 134/134/134 102/102/102
f 102/102/102 134/134/134 135/135/135
f 102/102/102 135/135/135 103/103/103
f 103/103/103 135/135/135 136/136/136
f 103/103/103 136/136/136 104/104/104
f 104/104/104 136/136/136 137/137/137
f 104/104/104 137/137/137 105/105/105
f 105/105/105 137/137/137 138/138/138
f 105/105/105 138/138/138 106/106/106
f 106/106/106 138/138/138 139/139/139
f 106/106/106 139/139/139 107/107/107
f 107/107/107 139/139/139 140/140/140
f 107/107/107 140/140/140 108/108/108
f 108/108/108 140/140/140 141/141/141
f 108/108/108 141/141/141 109/109/109
f 109/109/109 141/141/141 142/142/142
f 109/109/109 142/142/142 110/110/110
f 110/110/110 142/142/142 143/143/143
f 110/110/110 143/143/143 111/111/111
f 111/111/111 143/143/143 144/144/144
f 111/111/111 144/144/144 112/112/112
f 112/112/112 144/144/144 145/145/145
f 112/112/112 145/145/145 113/113/113
f 113/113/113 145/145/145 146/146/146
f 113/113/113 146/146/146 114/114/114
f 114/114/114 146/146/146 147/147/147
f 114/114/114 147/147/147 115/115/115
f 115/115/115 147/147/147 148/148/148
f 115/115/115 148/148/148 116/116/116
f 116/116/116 148/148/148 149/149/149
f 116/116/116 149/149/149 117/117/117
f 117/117/117 149/149/149 150/150/150
f 117/117/117 150/150/150 118/118/118
f 118/118/118 150/150/150 151/151/151
f 118/118/118 151/151/151 119/119/119
f 119/119/119 151/151/151 152/152/152
f 119/119/119 152/152/152 120/120/120
f 120/120/120 152/152/152 153/153/153
f 120/120/120 153/153/153 121/121/121
f 121/121/121 153/153/153 154/154/154
f 121/121/121 154/154/154 122/122/122
f 122/122/122 154/154/154 155/155/155
f 122/122/122 155/155/155 123/123/123
f 123/123/123 155/155/155 156/156/156
f 123/123/123 156/156/156 124/124/124
f 124/124/124 156/156/156 157/157/157
f 124/124/124 157/157/157 125/125/125
f 125/125/125 157/157/157 158/158/158
f 125/125/125 158/158/158 126/126/126
f 126/126/126 158/158/158 159/159/159
f 126/126/126 159/159/159 127/127/127
f 127/127/127 159/159/159 160/160/160
f 127/127/127 160/160/160 128/128/128
f 128/128/128 160/160/160 161/161/161
f 128/128/128 161/161/161 129/129/129
f 129/129/129 161/161/161 162/162/162
f 129/129/129 162/162/162 130/130/130
f 130/130/130 162/162/162 163/163/163
f 130/130/130 163/163/163 131/131/131
f 131/131/131 163/163/163 164/164/164
f 131/131/131 164/164/164 132/132/132
f 132/132/132 164/164/164 165/165/165
f 133/133/133 166/166/166 134/134/134
f 134/134/134 166/166/166 167/167/167
f 134/134/134 167/167/167 135/135/135
f 135/135/135 167/167/167 168/168/168
f 135/135/135 168/168/168 136/136/136
f 136/136/136 168/168/168 169/169/169
f 136/136/136 169/169/169 137/137/137
f 137/137/137 169/169/169 170/170/170
f 137/137/137 170/170/170 138/138/138
f 138/138/138 170/170/170 171/171/171
f 138/138/138 171/171/171 139/139/139
f 139/139/139 171/171/171 172/172/172
f 139/139/139 172/172/172 140/140/140
f 140/140/140 172/172/172 173/173/173
f 140/140/140 173/173/173 141/141/141
f 141/141/141 173/173/173 174/174/174
f 141/141/141 174/174/174 142/142/142
f 142/142/142 174/174/174 175/175/175
f 142/142/142 175/175/175 143/143/143
f 143/143/143 175/175/175 176/176/176
f 143/143/143 176/176/176 144/144/144
f 144/144/144 176/176/176 177/177/177
f 144/144/144 177/177/177 145/145/145
f 145/145/145 177/177/177 178/178/178
f 145/145/145 178/178/178 146/146/146
f 146/146/146 178/178/178 179/179/179
f 146/146/146 179/179/179 147/147/147
f 147/147/147 179/179/179 180/180/180
f 147/147/147 180/180/180 148/148/148
f 148/148/148 180/180/180 181/181/181
f 148/148/148 181/181/181 149/149/149
f 149/149/149 181/181/181 182/182/182
f 149/149/149 182/182/182 150/150/150
f 150/150/150 182/182/182 183/183/183
f 150/150/150 183/183/183 151/151/151
f 151/151/151 183/183/183 184/184/184
f 151/151/151 184/184/184 152/152/152
f 152/152/152 184/184/184 185/185/185
f 152/152/152 185/185/185 153/153/153
f 153/153/153 185/185/185 186/186/186
f 153/153/153 186/186/186 154/154/154
f 154/154/154 186/186/186 187/187/187
f 154/154/154 187/187/187 155/155/155
f 155/155/155 187/187/187 188/188/188
f 155/155/155 188/188/188 156/156/156
f 156/156/156 188/188/188 189/189/189
f 156/156/156 189/189/189 157/157/157
f 157/157/157 189/189/189 190/190/190
f 157/157/157 190/190/190 158/158/158
f 158/158/158 190/190/190 191/191/191
f 158/158/158 191/191/191 159/159/159
f 159/159/159 191/191/191 192/192/192
f 159/159/159 192/192/192 160/160/160
f 160/160/160 192/192/192 193/193/193
f 160/160/160 193/193/193 161/161/161
f 161/161/161 193/193/193 194/194/194
f 161/161/161 194/194/194 162/162/162
f 162/162/162 194/194/194 195/195/195
f 162/162/162 195/195/195 163/163/163
f 163/163/163 195/195/195 196/196/196
f 163/163/163 196/196/196 164/164/164
f 164/164/164 196/196/196 197/197/197
f 164/164/164 197/197/197 165/165/165
f 165/165/165 197/197/197 198/198/198
f 166/166/166 199/199/199 167/167/167
f 167/167/167 199/199/199 200/200/200
f 167/167/167 200/200/200 168/168/168
f 168/168/168 200/200/200 201/201/201
f 168/168/168 201/201/201 169/169/169
f 169/169/169 201/201/201 202/202/202
f 169/169/169 202/202/202 170/170/170
f 170/170/170 202/202/202 203/203/203
f 170/170/170 203/203/203 171/171/171
f 171/171/171 203/203/203 204/204/204
f 171/171/171 204/204/204 172/172/172
f 172/172/172 204/204/204 205/205/205
f 172/172/172 205/205/205 173/173/173
f 173/173/173 205/205/205 206/206/206
f 173/173/173 206/206/206 174/174/174
f 174/174/174 206/206/206 207/207/207
f 174/174/174 207/207/207 175/175/175
f 175/175/175 207/207/207 208/208/208
f 175/175/175 208/208/208 176/176/176
f 176/176/176 208/208/208 209/209/209
f 176/176/176 209/209/209 177/177/177
f 177/177/177 209/209/209 210/210/210
f 177/177/177 210/210/210 178/178/178
f 178/178/178 210/210/210 211/211/211
f 178/178/178 211/211/211 179/179/179
f 179/179/179 211/211/211 212/212/212
f 179/179/179 212/212/212 180/180/180
f 180/180/180 212/212/212 213/213/213
f 180/180/180 213/213/213 181/181/181
f 181/181/181 213/213/213 214/214/214
f 181/181/181 214/214/214 182/182/182
f 182/182/182 214/214/214 215/215/215
f 182/182/182 215/215/215 183/183/183
f 183/183/183 215/215/215 216/216/216
f 183/183/183 216/216/216 184/184/184
f 184/184/184 216/216/216 217/217/217
f 184/184/184 217/217/217 185/185/185
f 185/185/185 217/217/217 218/218/218
f 185/185/185 218/218/218 186/186/186
f 186/186/186 218/218/218 219/219/219
f 186/186/186 219/219/219 187/187/187
f 187/187/187 219/219/219 220/220/220
f 187/187/187 220/220/220 188/188/188
f 188/188/188 220/220/220 221/221/221
f 188/188/188 221/221/221 189/189/189
f 189/189/189 221/221/221 222/222/222
f 189/189/189 222/222/222 190/190/190
f 190/190/190 222/222/222 223/223/223
f 190/190/190 223/223/223 191/191/191
f 191/191/191 223/223/223 224/224/224
f 191/191/191 224/224/224 192/192/192
f 192/192/192 224/224/224 225/225/225
f 192/192/192 225/225/225 193/193/193
f 193/193/193 225/225/225 226/226/226
f 193/193/193 226/226/226 194/194/194
f 194/194/194 226/226/226 227/227/227
f 194/194/194 227/227/227 195/195/195
f 195/195/195 227/227/227 228/228/228
f 195/195/195 228/228/228 196/196/196
f 196/196/196 228/228/228 229/229/229
f 196/196/196 229/229/229 197/197/197
f 197/197/197 229/229/229 230/230/230
f 197/197/197 230/230/230 198/198/198
f 198/198/198 230/230/230 231/231/231
f 199/199/199 232/232/232 200/200/200
f 200/200/200 232/232/232 233/233/233
f 200/200/200 233/233/233 201/201/201
f 201/201/201 233/233/233 234/234/234
f 201/201/201 234/234/234 202/202/202
f 202/202/202 234/234/234 235/235/235
f 202/202/202 235/235/235 203/203/203
f 203/203/203 235/235/235 236/236/236
f 203/203/203 236/236/236 204/204/204
f 204/204/204 236/236/236 237/237/237
f 204/204/204 237/237/237 205/205/205
f 205/205/205 237/237/237 238/238/238
f 205/205/205 238/238/238 206/206/206
f 206/206/206 238/238/238 239/239/239
f 206/206/206 239/239/239 207/207/207
f 207/207/207 239/239/239 240/240/240
f 207/207/207 240/240/240 208/208/208
f 208/208/208 240/240/240 241/241/241
f 208/208/208 241/241/241 209/209/209
f 209/209/209 241/241/241 242/242/242
f 209/209/209 242/242/242 210/210/210
f 210/210/210 242/242/242 243/243/243
f 210/210/210 243/243/243 211/211/211
f 211/211/211 243/243/243 244/244/244
f 211/211/211 244/244/244 212/212/212
f 212/212/212 244/244/244 245/245/245
f 212/212/212 245/245/245 213/213/213
f 213/213/213 245/245/245 246/246/246
f 213/213/213 246/246/246 214/214/214
f 214/214/214 246/246/246 247/247/247
f 214/214/214 247/247/247 215/215/215
f 215/215/215 247/247/247 248/248/248
f 215/215/215 248/248/248 216/216/216
f 216/216/216 248/248/248 249/249/249
f 216/216/216 249/249/249 217/217/217
f 217/217/217 249/249/249 250/250/250
f 217/217/217 250/250/250 218/218/218
f 218/218/218 250/250/250 251/251/251
f 218/218/218 251/251/251 219/219/219
f 219/219/219 251/251/251 252/252/252
f 219/219/219 252/252/252 220/220/220
f 220/220/220 252/252/252 253/253/253
f 220/220/220 253/253/253 221/221/221
f 221/221/221 253/253/253 254/254/254
f 221/221/221 254/254/254 222/222/222
f 222/222/222 254/254/254 255/255/255
f 222/222/222 255/255/255 223/223/223
f 223/223/223 255/255/255 256/256/256
f 223/223/223 256/256/256 224/224/224
f 224/224/224 256/256/256 257/257/257
f 224/224/224 257/257/257 225/225/225
f 225/225/225 257/257/257 258/258/258
f 225/225/225 258/258/258 226/226/226
f 226/226/226 258/258/258 259/259/259
f 226/226/226 259/259/259 227/227/227
f 227/227/227 259/259/259 260/260/260
f 227/227/227 260/260/260 228/228/228
f 228/228/228 260/260/260 261/261/261
f 228/228/228 261/261/261 229/229/229
f 229/229/229 261/261/261 262/262/262
f 229/229/229 262/262/262 230/230/230
f 230/230/230 262/262/262 263/263/263
f 230/230/230 263/263/263 231/231/231
f 231/231/231 263/263/263 264/264/264
f 232/232/232 265/265/265 233/233/233
f 233/233/233 265/265/265 266/266/266
f 233/233/233 266/266/266 234/234/234
f 234/234/234 266/266/266 267/267/267
f 234/234/234 267/267/267 235/235/235
f 235/235/235 267/267/267 268/268/268
f 235/235/235 268/268/268 236/236/236
f 236/236/236 268/268/268 269/269/269
f 236/236/236 269/269/269 237/237/237
f 237/237/237 269/269/269 270/270/270
f 237/237/237 270/270/270 238/238/238
f 238/238/238 270/270/270 271/271/271
f 238/238/238 271/271/271 239/239/239
f 239/239/239 271/271/271 272/272/272
f 239/239/239 272/272/272 240/240/240
f 240/240/240 272/272/272 273/273/273
f 240/240/240 273/273/273 241/241/241
f 241/241/241 273/273/273 274/274/274
f 241/241/241 274/274/274 242/242/242
f 242/242/242 274/274/274 275/275/275
f 242/242/242 275/275/275 243/243/243
f 243/243/243 275/275/275 276/276/276
f 243/243/243 276/276/276 244/244/244
f 244/244/244 276/276/276 277/277/277
f 244/244/244 277/277/277 245/245/245
f 245/245/245 277/277/277 278/278/278
f 245/245/245 278/278/278 246/246/246
f 246/246/246 278/278/278 279/279/279
f 246/246/246 279/279/279 247/247/247
f 247/247/247 279/279/279 280/280/280
f 247/247/247 280/280/280 248/248/248
f 248/248/248 280/280/280 281/281/281
f 248/248/248 281/281/281 249/249/249
f 249/249/249 281/281/281 282/282/282
f 249/249/249 282/282/282 250/250/250
f 250/250/250 282/282/282 283/283/283
f 250/250/250 283/283/283 251/251/251
f 251/251/251 283/283/283 284/284/284
f 251/251/251 284/284/284 252/252/252
f 252/252/252 284/284/284 285/285/285
f 252/252/252 285/285/285 253/253/253
f 253/253/253 285/285/285 286/286/286
f 253/253/253 286/286/286 254/254/254
f 254/254/254 286/286/286 287/287/287
f 254/254/254 287/287/287 255/255/255
f 255/255/255 287/287/287 288/288/288
f 255/255/255 288/288/288 256/256/256
f 256/256/256 288/288/288 289/289/289
f 256/256/256 289/289/289 257/257/257
f 257/257/257 289/289/289 290/290/290
f 257/257/257 290/290/290 258/258/258
f 258/258/258 290/290/290 291/291/291
f 258/258/258 291/291/291 259/259/259
f 259/259/259 291/291/291 292/292/292
f 259/259/259 292/292/292 260/260/260
f 260/260/260 292/292/292 293/293/293
f 260/260/260 293/293/293 261/261/261
f 261/261/261 293/293/293 294/294/294
f 261/261/261 294/294/294 262/262/262
f 262/262/262 294/294/294 295/295/295
f 262/262/262 295/295/295 263/263/263
f 263/263/263 295/295/295 296/296/296
f 263/263/263 296/296/296 264/264/264
f 264/264/264 296/296/296 297/297/297
f 265/265/265 298/298/298 266/266/266
f 266/266/266 298/298/298 299/299/299
f 266/266/266 299/299/299 267/267/267
f 267/267/267 299/299/299 300/300/300
f 267/267/267 300/300/300 268/268/268
f 268/268/268 300/300/300 301/301/301
f 268/268/268 301/301/301 269/269/269
f 269/269/269 301/301/301 302/302/302
f 269/269/269 302/302/302 270/270/270
f 270/270/270 302/302/302 303/303/303
f 270/270/270 303/303/303 271/271/271
f 271/271/271 303/303/303 304/304/304
f 271/271/271 304/304/304 272/272/272
f 272/272/272 304/304/304 305/305/305
f 272/272/272 305/305/305 273/273/273
f 273/273/273 305/305/305 306/306/306
f 273/273/273 306/306/306 274/274/274
f 274/274/274 306/306/306 307/307/307
f 274/274/274 307/307/307 275/275/275
f 275/275/275 307/307/307 308/308/308
f 275/275/275 308/308/308 276/276/276
f 276/276/276 308/308/308 309/309/309
f 276/276/276 309/309/309 277/277/277
f 277/277/277 309/309/309 310/310/310
f 277/277/277 310/310/310 278/278/278
f 278/278/278 310/310/310 311/311/311
f 278/278/278 311/311/311 279/279/279
f 279/279/279 311/311/311 312/312/312
f 279/279/279 312/312/312 280/280/280
f 280/280/280 312/312/312 313/313/313
f 280/280/280 313/313/313 281/281/281
f 281/281/281 313/313/313 314/314/314
f 281/281/281 314/314/314 282/282/282
f 282/282/282 314/314/314 315/315/315
f 282/282/282 315/315/315 283/283/283
f 283/283/283 315/315/315 316/316/316
f 283/283/283 316/316/316 284/284/284
f 284/284/284 316/316/316 317/317/317
f 284/284/284 317/317/317 285/285/285
f 285/285/285 317/317/317 318/318/318
f 285/285/285 318/318/318 286/286/286
f 286/286/286 318/318/318 319/319/319
f 286/286/286 319/319/319 287/287/287
f 287/287/287 319/319/319 320/320/320
f 287/287/287 320/320/320 288/288/288
f 288/288/288 320/320/320 321/321/321
f 288/288/288 321/321/321 289/289/289
f 289/289/289 321/321/321 322/322/322
f 289/289/289 322/322/322 290/290/290
f 290/290/290 322/322/322 323/323/323
f 290/290/290 323/323/323 291/291/291
f 291/291/291 323/323/323 324/324/324
f 291/291/291 324/324/324 292/292/292
f 292/292/292 324/324/324 325/325/325
f 292/292/292 325/325/325 293/293/293
f 293/293/293 325/325/325 326/326/326
f 293/293/293 326/326/326 294/294/294
f 294/294/294 326/326/326 327/327/327
f 294/294/294 327/327/327 295/295/295
f 295/295/295 327/327/327 328/328/328
f 295/295/295 328/328/328 296/296/296
f 296/296/296 328/328/328 329/329/329
f 296/296/296 329/329/329 297/297/297
f 297/297/297 329/329/329 330/330/330
f 298/298/298 331/331/331 299/299/299
f 299/299/299 331/331/331 332/332/332
f 299/299/299 332/332/332 300/300/300
f 300/300/300 332/332/332 333/333/333
f 300/300/300 333/333/333 301/301/301
f 301/301/301 333/333/333 334/334/334
f 301/301/301 334/334/334 302/302/302
f 302/302/302 334/334/334 335/335/335
f 302/302/302 335/335/335 303/303/303
f 303/303/303 335/335/335 336/336/336
f 303/303/303 336/336/336 304/304/304
f 304/304/304 336/336/336 337/337/337
f 304/304/304 337/337/337 305/305/305
f 305/305/305 337/337/337 338/338/338
f 305/305/305 338/338/338 306/306/306
f 306/306/306 338/338/338 339/339/339
f 306/306/306 339/339/339 307/307/307
f 307/307/307 339/339/339 340/340/340
f 307/307/307 340/340/340 308/308/308
f 308/308/308 340/340/340 341/341/341
f 308/308/308 341/341/341 309/309/309
f 309/309/309 341/341/341 342/342/342
f 309/309/309 342/342/342 310/310/310
f 310/310/310 342/342/342 343/343/343
f 310/310/310 343/343/343 311/311/311
f 311/311/311 343/343/343 344/344/344
f 311/311/311 344/344/344 312/312/312
f 312/312/312 344/344/344 345/345/345
f 312/312/312 345/345/345 313/313/313
f 313/313/313 345/345/345 346/346/346
f 313/313/313 346/346/346 314/314/314
f 314/314/314 346/346/346 347/347/347
f 314/314/314 347/347/347 315/315/315
f 315/315/315 347/347/347 348/348/348
f 315/315/315 348/348/348 316/316/316
f 316/316/316 348/348/348 349/349/349
f 316/316/316 349/349/349 317/317/317
f 317/317/317 349/349/349 350/350/350
f 317/317/317 350/350/350 318/318/318
f 318/318/318 350/350/350 351/351/351
f 318/318/318 351/351/351 319/319/319
f 319/319/319 351/351/351 352/352/352
f 319/319/319 352/352/352 320/320/320
f 320/320/320 352/352/352 353/353/353
f 320/320/320 353/353/353 321/321/321
f 321/321/321 353/353/353 354/354/354
f 321/321/321 354/354/354 322/322/322
f 322/322/322 354/354/354 355/355/355
f 322/322/322 355/355/355 323/323/323
f 323/323/323 355/355/355 356/356/356
f 323/323/323 356/356/356 324/324/324
f 324/324/324 356/356/356 357/357/357
f 324/324/324 357/357/357 325/325/325
f 325/325/325 357/357/357 358/358/358
f 325/325/325 358/358/358 326/326/326
f 326/326/326 358/358/358 359/359/359
f 326/326/326 359/359/359 327/327/327
f 327/327/327 359/359/359 360/360/360
f 327/327/327 360/360/360 328/328/328
f 328/328/328 360/360/360 361/361/361
f 328/328/328 361/361/361 329/329/329
f 329/329/329 361/361/361 362/362/362
f 329/329/329 362/362/362 330/330/330
f 330/330/330 362/362/362 363/363/363
f 331/331/331 364/364/364 332/332/332
f 332/332/332 364/364/364 365/365/365
f 332/332/332 365/365/365 333/333/333
f 333/333/333 365/365/365 366/366/366
f 333/333/333 366/366/366 334/334/334
f 334/334/334 366/366/366 367/367/367
f 334/334/334 367/367/367 335/335/335
f 335/335/335 367/367/367 368/368/368
f 335/335/335 368/368/368 336/336/336
f 336/336/336 368/368/368 369/369/369
f 336/336/336 369/369/369 337/337/337
f 337/337/337 369/369/369 370/370/370
f 337/337/337 370/370/370 338/338/338
f 338/338/338 370/370/370 371/371/371
f 338/338/338 371/371/371 339/339/339
f 339/339/339 371/371/371 372/372/372
f 339/339/339 372/372/372 340/340/340
f 340/340/340 372/372/372 373/373/373
f 340/340/340 373/373/373 341/341/341
f 341/341/341 373/373/373 374/374/374
f 341/341/341 374/374/374 342/342/342
f 342/342/342 374/374/374 375/375/375
f 342/342/342 375/375/375 343/343/343
f 343/343/343 375/375/375 376/376/376
f 343/343/343 376/376/376 344/344/344
f 344/344/344 376/376/376 377/377/377
f 344/344/344 377/377/377 345/345/345
f 345/345/345 377/377/377 378/378/378
f 345/345/345 378/378/378 346/346/346
f 346/346/346 378/378/378 379/379/379
f 346/346/346 379/379/379 347/347/347
f 347/347/347 379/379/379 380/380/380
f 347/347/347 380/380/380 348/348/348
f 348/348/348 380/380/380 381/381/381
f 348/348/348 381/381/381 349/349/349
f 349/349/349 381/381/381 382/382/382
f 349/349/349 382/382/382 350/350/350
f 350/350/350 382/382/382 383/383/383
f 350/350/350 383/383/383 351/351/351
f 351/351/351 383/383/383 384/384/384
f 351/351/351 384/384/384 352/352/352
f 352/352/352 384/384/384 385/385/385
f 352/352/352 385/385/385 353/353/353
f 353/353/353 385/385/385 386/386/386
f 353/353/353 386/386/386 354/354/354
f 354/354/354 386/386/386 387/387/387
f 354/354/354 387/387/387 355/355/355
f 355/355/355 387/387/387 388/388/388
f 355/355/355 388/388/388 356/356/356
f 356/356/356 388/388/388 389/389/389
f 356/356/356 389/389/389 357/357/357
f 357/357/357 389/389/389 390/390/390
f 357/357/357 390/390/390 358/358/358
f 358/358/358 390/390/390 391/391/391
f 358/358/358 391/391/391 359/359/359
f 359/359/359 391/391/391 392/392/392
f 359/359/359 392/392/392 360/360/360
f 360/360/360 392/392/392 393/393/393
f 360/360/360 393/393/393 361/361/361
f 361/361/361 393/393/393 394/394/394
f 361/361/361 394/394/394 362/362/362
f 362/362/362 394/394/394 395/395/395
f 362/362/362 395/395/395 363/363/363
f 363/363/363 395/395/395 396/396/396
f 364/364/364 397/397/397 365/365/365
f 365/365/365 397/397/397 398/398/398
f 365/365/365 398/398/398 366/366/366
f 366/366/366 398/398/398 399/399/399
f 366/366/366 399/399/399 367/367/367
f 367/367/367 399/399/399 400/400/400
f 367/367/367 400/400/400 368/368/368
f 368/368/368 400/400/400 401/401/401
f 368/368/368 401/401/401 369/369/369
f 369/369/369 401/401/401 402/402/402
f 369/369/369 402/402/402 370/370/370
f 370/370/370 402/402/402 403/403/403
f 370/370/370 403/403/403 371/371/371
f 371/371/371 403/403/403 404/404/404
f 371/371/371 404/404/404 372/372/372
f 372/372/372 404/404/404 405/405/405
f 372/372/372 405/405/405 373/373/373
f 373/373/373 405/405/405 406/406/406
f 373/373/373 406/406/406 374/374/374
f 374/374/374 406/406/406 407/407/407
f 374/374/374 407/407/407 375/375/375
f 375/375/375 407/407/407 408/408/408
f 375/375/375 408/408/408 376/376/376
f 376/376/376 408/408/408 409/409/409
f 376/376/376 409/409/409 377/377/377
f 377/377/377 409/409/409 410/410/410
f 377/377/377 410/410/410 378/378/378
f 378/378/378 410/410/410 411/411/411
f 378/378/378 411/411/411 379/379/379
f 379/379/379 411/411/411 412/412/412
f 379/379/379 412/412/412 380/380/380
f 380/380/380 412/412/412 413/413/413
f 380/380/380 413/413/413 381/381/381
f 381/381/381 413/413/413 414/414/414
f 381/381/381 414/414/414 382/382/382
f 382/382/382 414/414/414 415/415/415
f 382/382/382 415/415/415 383/383/383
f 383/383/383 415/415/415 416/416/416
f 383/383/383 416/416/416 384/384/384
f 384/384/384 416/416/416 417/417/417
f 384/384/384 417/417/417 385/385/385
f 385/385/385 417/417/417 418/418/418
f 385/385/385 418/418/418 386/386/386
f 386/386/386 418/418/418 419/419/419
f 386/386/386 419/419/419 387/387/387
f 387/387/387 419/419/419 420/420/420
f 387/387/387 420/420/420 388/388/388
f 388/388/388 420/420/420 421/421/421
f 388/388/388 421/421/421 389/389/389
f 389/389/389 421/421/421 422/422/422
f 389/389/389 422/422/422 390/390/390
f 390/390/390 422/422/422 423/423/423
f 390/390/390 423/423/423 391/391/391
f 391/391/391 423/423/423 424/424/424
f 391/391/391 424/424/424 392/392/392
f 392/392/392 424/424/424 425/425/425
f 392/392/392 425/425/425 393/393/393
f 393/393/393 425/425/425 426/426/426
f 393/393/393 426/426/426 394/394/394
f 394/394/394 426/426/426 427/427/427
f 394/394/394 427/427/427 395/395/395
f 395/395/395 427/427/427 428/428/428
f 395/395/395 428/428/428 396/396/396
f 396/396/396 428/428/428 429/429/429
f 397/397/397 430/430/430 398/398/398
f 398/398/398 430/430/430 431/431/431
f 398/398/398 431/431/431 399/399/399
f 399/399/399 431/431/431 432/432/432
f 399/399/399 432/432/432 400/400/400
f 400/400/400 432/432/432 433/433/433
f 400/400/400 433/433/433 401/401/401
f 401/401/401 433/433/433 434/434/434
f 401/401/401 434/434/434 402/402/402
f 402/402/402 434/434/434 435/435/435
f 402/402/402 435/435/435 403/403/403
f 403/403/403 435/435/435 436/436/436
f 403/403/403 436/436/436 404/404/404
f 404/404/404 436/436/436 437/437/437
f 404/404/404 437/437/437 405/405/405
f 405/405/405 437/437/437 438/438/438
f 405/405/405 438/438/438 406/406/406
f 406/406/406 438/438/438 439/439/439
f 406/406/406 439/439/439 407/407/407
f 407/407/407 439/439/439 440/440/440
f 407/407/407 440/440/440 408/408/408
f 408/408/408 440/440/440 441/441/441
f 408/408/408 441/441/441 409/409/409
f 409/409/409 441/441/441 442/442/442
f 409/409/409 442/442/442 410/410/410
f 410/410/410 442/442/442 443/443/443
f 410/410/410 443/443/443 411/411/411
f 411/411/411 443/443/443 444/444/444
f 411/411/411 444/444/444 412/412/412
f 412/412/412 444/444/444 445/445/445
f 412/412/412 445/445/445 413/413/413
f 413/413/413 445/445/445 446/446/446
f 413/413/413 446/446/446 414/414/414
f 414/414/414 446/446/446 447/447/447
f 414/414/414 447/447/447 415/415/415
f 415/415/415 447/447/447 448/448/448
f 415/415/415 448/448/448 416/416/416
f 416/416/416 448/448/448 449/449/449
f 416/416/416 449/449/449 417/417/417
f 417/417/417 449/449/449 450/450/450
f 417/417/417 450/450/450 418/418/418
f 418/418/418 450/450/450 451/451/451
f 418/418/418 451/451/451 419/419/419
f 419/419/419 451/451/451 452/452/452
f 419/419/419 452/452/452 420/420/420
f 420/420/420 452/452/452 453/453/453
f 420/420/420 453/453/453 421/421/421
f 421/421/421 453/453/453 454/454/454
f 421/421/421 454/454/454 422/422/422
f 422/422/422 454/454/454 455/455/455
f 422/422/422 455/455/455 423/423/423
f 423/423/423 455/455/455 456/456/456
f 423/423/423 456/456/456 424/424/424
f 424/424/424 456/456/456 457/457/457
f 424/424/424 457/457/457 425/425/425
f 425/425/425 457/457/457 458/458/458
f 425/425/425 458/458/458 426/426/426
f 426/426/426 458/458/458 459/459/459
f 426/426/426 459/459/459 427/427/427
f 427/427/427 459/459/459 460/460/460
f 427/427/427 460/460/460 428/428/428
f 428/428/428 460/460/460 461/461/461
f 428/428/428 461/461/461 429/429/429
f 429/429/429 461/461/461 462/462/462
f 430/430/430 463/463/463 431/431/431
f 431/431/431 463/463/463 464/464/464
f 431/431/431 464/464/464 432/432/432
f 432/432/432 464/464/464 465/465/465
f 432/432/432 465/465/465 433/433/433
f 433/433/433 465/465/465 466/466/466
f 433/433/433 466/466/466 434/434/434
f 434/434/434 466/466/466 467/467/467
f 434/434/434 467/467/467 435/435/435
f 435/435/435 467/467/467 468/468/468
f 435/435/435 468/468/468 436/436/436
f 436/436/436 468/468/468 469/469/469
f 436/436/436 469/469/469 437/437/437
f 437/437/437 469/469/469 470/470/470
f 437/437/437 470/470/470 438/438/438
f 438/438/438 470/470/470 471/471/471
f 438/438/438 471/471/471 439/439/439
f 439/439/439 471/471/471 472/472/472
f 439/439/439 472/472/472 440/440/440
f 440/440/440 472/472/472 473/473/473
f 440/440/440 473/473/473 441/441/441
f 441/441/441 473/473/473 474/474/474
f 441/441/441 474/474/474 442/442/442
f 442/442/442 474/474/474 475/475/475
f 442/442/442 475/475/475 443/443/443
f 443/443/443 475/475/475 476/476/476
f 443/443/443 476/476/476 444/444/444
f 444/444/444 476/476/476 477/477/477
f 444/444/444 477/477/477 445/445/445
f 445/445/445 477/477/477 478/478/478
f 445/445/445 478/478/478 446/446/446
f 446/446/446 478/478/478 479/479/479
f 446/446/446 479/479/479 447/447/447
f 447/447/447 479/479/479 480/480/480
f 447/447/447 480/480/480 448/448/448
f 448/448/448 480/480/480 481/481/481
f 448/448/448 481/481/481 449/449/449
f 449/449/449 481/481/481 482/482/482
f 449/449/449 482/482/482 450/450/450
f 450/450/450 482/482/482 483/483/483
f 450/450/450 483/483/483 451/451/451
f 451/451/451 483/483/483 484/484/484
f 451/451/451 484/484/484 452/452/452
f 452/452/452 484/484/484 485/485/485
f 452/452/452 485/485/485 453/453/453
f 453/453/453 485/485/485 486/486/486
f 453/453/453 486/486/486 454/454/454
f 454/454/454 486/486/486 487/487/487
f 454/454/454 487/487/487 455/455/455
f 455/455/455 487/487/487 488/488/488
f 455/455/455 488/488/488 456/456/456
f 456/456/456 488/488/488 489/489/489
f 456/456/456 489/489/489 457/457/457
f 457/457/457 489/489/489 490/490/490
f 457/457/457 490/490/490 458/458/458
f 458/458/458 490/490/490 491/491/491
f 458/458/458 491/491/491 459/459/459
f 459/459/459 491/491/491 492/492/492
f 459/459/459 492/492/492 460/460/460
f 460/460/460 492/492/492 493/493/493
f 460/460/460 493/493/493 461/461/461
f 461/461/461 493/493/493 494/494/494
f 461/461/461 494/494/494 462/462/462
f 462/462/462 494/494/494 495/495/495
f 463/463/463 496/496/496 464/464/464
f 464/464/464 496/496/496 497/497/497
f 464/464/464 497/497/497 465/465/465
f 465/465/465 497/497/497 498/498/498
f 465/465/465 498/498/498 466/466/466
f 466/466/466 498/498/498 499/499/499
f 466/466/466 499/499/499 467/467/467
f 467/467/467 499/499/499 500/500/500
f 467/467/467 500/500/500 468/468/468
f 468/468/468 500/500/500 501/501/501
f 468/468/468 501/501/501 469/469/469
f 469/469/469 501/501/501 502/502/502
f 469/469/469 502/502/502 470/470/470
f 470/470/470 502/502/502 503/503/503
f 470/470/470 503/503/503 471/471/471
f 471/471/471 503/503/503 504/504/504
f 471/471/471 504/504/504 472/472/472
f 472/472/472 504/504/504 505/505/505
f 472/472/472 505/505/505 473/473/473
f 473/473/473 505/505/505 506/506/506
f 473/473/473 506/506/506 474/474/474
f 474/474/474 506/506/506 507/507/507
f 474/474/474 507/507/507 475/475/475
f 475/475/475 507/507/507 508/508/508
f 475/475/475 508/508/508 476/476/476
f 476/476/476 508/508/508 509/509/509
f 476/476/476 509/509/509 477/477/477
f 477/477/477 509/509/509 510/510/510
f 477/477/477 510/510/510 478/478/478
f 478/478/478 510/510/510 511/511/511
f 478/478/478 511/511/511 479/479/479
f 479/479/479 511/511/511 512/512/512
f 479/479/479 512/512/512 480/480/480
f 480/480/480 512/512/512 513/513/513
f 480/480/480 513/513/513 481/481/481
f 481/481/481 513/513/513 514/514/514
f 481/481/481 514/514/514 482/482/482
f 482/482/482 514/514/514 515/515/515
f 482/482/482 515/515/515 483/483/483
f 483/483/483 515/515/515 516/516/516
f 483/483/483 516/516/516 484/484/484
f 484/484/484 516/516/516 517/517/517
f 484/484/484 517/517/517 485/485/485
f 485/485/485 517/517/517 518/518/518
f 485/485/485 518/518/518 486/486/486
f 486/486/486 518/518/518 519/519/519
f 486/486/486 519/519/519 487/487/487
f 487/487/487 519/519/519 520/520/520
f 487/487/487 520/520/520 488/488/488
f 488/488/488 520/520/520 521/521/521
f 488/488/488 521/521/521 489/489/489
f 489/489/489 521/521/521 522/522/522
f 489/489/489 522/522/522 490/490/490
f 490/490/490 522/522/522 523/523/523
f 490/490/490 523/523/523 491/491/491
f 491/491/491 523/523/523 524/524/524
f 491/491/491 524/524/524 492/492/492
f 492/492/492 524/524/524 525/525/525
f 492/492/492 525/525/525 493/493/493
f 493/493/493 525/525/525 526/526/526
f 493/493/493 526/526/526 494/494/494
f 494/494/494 526/526/526 527/527/527
f 494/494/494 527/527/527 495/495/495
f 495/495/495 527/527/527 528/528/528
f 496/496/496 529/529/529 497/497/497
f 497/497/497 530/530/530 498/498/498
f 498/498/498 531/531/531 499/499/499
f 499/499/499 532/532/532 500/500/500
f 500/500/500 533/533/533 501/501/501
f 501/501/501 534/534/534 502/502/502
f 502/502/502 535/535/535 503/503/503
f 503/503/503 536/536/536 504/504/504
f 504/504/504 537/537/537 505/505/505
f 505/505/505 538/538/538 506/506/506
f 506/506/506 539/539/539 507/507/507
f 507/507/507 540/540/540 508/508/508
f 508/508/508 541/541/541 509/509/509
f 509/509/509 542/542/542 510/510/510
f 510/510/510 543/543/543 511/511/511
f 511/511/511 544/544/544 512/512/512
f 512/512/512 545/545/545 513/513/513
f 513/513/513 546/546/546 514/514/514
f 514/514/514 547/547/547 515/515/515
f 515/515/515 548/548/548 516/516/516
f 516/516/516 549/549/549 517/517/517
f 517/517/517 550/550/550 518/518/518
f 518/518/518 551/551/551 519/519/519
f 519/519/519 552/552/552 520/520/520
f 520/520/520 553/553/553 521/521/521
f 521/521/521 554/554/554 522/522/522
f 522/522/522 555/555/555 523/523/523
f 523/523/523 556/556/556 524/524/524
f 524/524/524 557/557/557 525/525/525
f 525/525/525 558/558/558 526/526/526
f 526/526/526 559/559/559 527/527/527
f 527/527/527 560/560/560 528/528/528
